<?xml version="1.0" encoding="utf-8"?>
<!-- Generator: Adobe Illustrator 24.2.1, SVG Export Plug-In . SVG Version: 6.00 Build 0)  -->
<svg version="1.1" id="Layer_1" xmlns="http://www.w3.org/2000/svg" xmlns:xlink="http://www.w3.org/1999/xlink" x="0px" y="0px"
	 viewBox="0 0 1200 1200" style="enable-background:new 0 0 1200 1200;" xml:space="preserve">
<g>
	<path d="M195,313.08v573.77c0,135.11,49.4,225.04,143.8,253.08V60C244.4,88.04,195,177.98,195,313.08z"/>
	<path d="M411.7,60v829.32c0,5.21-0.17,10.19-0.46,14.99v235.63c97.48-23.92,144.75-107.48,144.75-255.26V60H411.7z"/>
	<path d="M628.7,60v819.71c0,140.25,48.9,231.44,143.82,260.29V60H628.7z"/>
	<path d="M1005,1139.94c-14.43-40.4-15.74-79.24-15.74-132.07V816.75c0-122.75-23.61-203.54-95.76-229.96v-3.11
		c64.27-31.08,94.44-102.55,94.44-214.42v-66.81C987.95,164.23,944.32,84,845.38,60v984.2c1.37,56.5,6.12,72.32,12.71,95.74H1005z"
		/>
</g>
</svg>
