<svg id="Layer_1" data-name="Layer 1" xmlns="http://www.w3.org/2000/svg" viewBox="0 0 465.6 465.6"><defs><style>.cls-1{fill:#c1272d;}</style></defs><path d="M793.66,458.4l-9.6-35.4q-1.8-7.2-1.2-25.8v-3c0-6.39-.8-9.6-2.4-9.6a2.35,2.35,0,0,0-2.4,1.8l-1.2,2.4c-1.6,2.81-4.6,4.2-9,4.2a29.61,29.61,0,0,1-3.6-.3q-2.4-.29-5.4-.9l-22.2-9q-48-18.58-96-18.6-76.8,0-123.9,29.7t-75.3,95.7q20.4,10.8,20.4,25.2a33.55,33.55,0,0,1-4.8,16.8c-1.2,2-2.2,3-3,3-1.2,0-2.8-1-4.8-3a21.17,21.17,0,0,1-9.6,2.4,19.92,19.92,0,0,1-7.8-1.8c-.4,5.61-.7,10.5-.9,14.7s-.3,7.71-.3,10.5q0,35.42,16.8,76.2a89.75,89.75,0,0,1,12.9-11.7,124.52,124.52,0,0,1,14.7-9.3q-12-44.39-12-65.4,0-73.8,48-120Q560.86,381,638.26,381q51,0,88.2,18.9t52.8,51.9l10.2,21.6,3.6,4.8a35.37,35.37,0,0,0,1.8-9.6,38.9,38.9,0,0,0-.3-4.8Q794.26,461.42,793.66,458.4Z" transform="translate(-388.06 -325)"/><path d="M437.86,504a47.19,47.19,0,0,0-3.6,12.6,13.82,13.82,0,0,0,5.4,1.8q5.4,0,5.4-5.4Q445.06,508.81,437.86,504Z" transform="translate(-388.06 -325)"/><path d="M665.26,385.8q-12.6-1.19-28.8-1.2-76.2,0-123.6,45-46.8,44.41-46.8,117,0,24.61,11.4,64.8l3-1.8q-9-38.39-9-60.6,0-72,46.8-116.4,46.8-45,123.6-45,43.8,0,94.2,21.6-30-15-48.6-19.8A154.28,154.28,0,0,0,665.26,385.8Z" transform="translate(-388.06 -325)"/><path d="M653.86,730.8h-15.6q-44.4,1.22-72.6-13.8-27-14.4-68.4-59.4-12.6,1.8-30.6,10.2,36,43.2,73.8,61.8,37.2,18.61,93,18.6c3.2,0,7.3-.09,12.3-.3s10.9-.49,17.7-.9q-2.4-4.18-4.8-8.1T653.86,730.8Z" transform="translate(-388.06 -325)"/><path d="M505.06,657.6l-3,.6q3.6,4.81,8.1,10.2a105.49,105.49,0,0,0,10.5,10.8q-4.8-6-8.7-11.4C509.36,664.2,507.06,660.81,505.06,657.6Z" transform="translate(-388.06 -325)"/><path d="M646.36,750.3c-5.4.21-9.9.3-13.5.3q-43.8,0-103.8-24.6,58.2,28.8,100.2,28.8,16.2,0,39-1.8l-3.6-3.6Q654.46,750,646.36,750.3Z" transform="translate(-388.06 -325)"/><path d="M745.66,699.6q-19.8,16.2-73.2,28.2,3,4.22,5.7,8.1t5.7,8.1q38.4-10.18,53.4-18A133.77,133.77,0,0,0,755,715.2q9.3-6.59,20.7-15l12.6-58.2q0-2.38-2.4-6.6Q766.06,682.82,745.66,699.6Z" transform="translate(-388.06 -325)"/><path d="M788.86,636l1.2,6-.6,1.8-12,58.2q-14.4,10.8-24.3,17.4a125.57,125.57,0,0,1-19.5,10.8q-9.6,4.21-20.4,7.8t-27.6,7.8l3.6,4.2q36.6-10.18,50.4-16.8a210.47,210.47,0,0,0,19.2-11.1q10.8-6.89,24-17.1l11.4-61.8Q794.26,639,788.86,636Z" transform="translate(-388.06 -325)"/><path d="M789.46,399.6v-6q.6-4.19-4.8-7.2l.6,4.2v12.6a142.19,142.19,0,0,0,2.7,20.4q2.1,10.22,5.1,21.6,4.8,17.42,4.8,22.8a23.76,23.76,0,0,1-2.4,10.8c2.4.81,3.4,1.2,3,1.2,2.4,0,3.6-2.59,3.6-7.8q0-12.6-9.6-49.2Q788.86,408,789.46,399.6Z" transform="translate(-388.06 -325)"/><path class="cls-1" d="M426.46,421.8q-7.8-15-16.8-15t-9,9.6q0,3,4.2,7.2l-.6-3.6c0-4,2-6,6-6s8.8,4.61,14.4,13.8q7.8,13.81,28.8,25.8l.6-1.2A70.17,70.17,0,0,1,426.46,421.8Z" transform="translate(-388.06 -325)"/><path class="cls-1" d="M490.06,753q-3-1.18-3-1.8v-1.8l1.8-4.8a14.9,14.9,0,0,0,1.8-6.6q0-4.18-6-8.4l1.2,6c0,1.2-1.7,3.11-5.1,5.7s-5.1,4.91-5.1,6.9a5.8,5.8,0,0,0,1.2,3,6.25,6.25,0,0,1,1.2,2.4c0,1.61-1.8,2.4-5.4,2.4q-13.8,0-13.8-12,0-4.79,8.4-9.6l12-6q6.6-3,6.6-13.8,0-7.79-6.6-16.2-1.8-2.39-12-7.2a1.06,1.06,0,0,1-1.2-1.2l.6-2.4,1.2-3-4.8-.6q-15,0-26.1,13.2t-9.9,31.2v8.4c.4,4-.2,6-1.8,6-2.8,0-4.2-2.79-4.2-8.4q0-14.4,7.8-29.4t7.2-25.8v-8.4l-4.8,1.8-5.4,4.8q-1.8,1.8-3,1.8a1.69,1.69,0,0,1-.6-1.2c0-1.2,2.4-4,7.2-8.4q9.6-6,9.6-31.8,0-13.78-6.6-22.2c-.4,2.81-1.2,4.2-2.4,4.2a3.42,3.42,0,0,1-1.2-2.4q-4.8-23.4-18.6-23.4c-6.4,0-9.6,2.81-9.6,8.4q0,6,6.3,14.1t6.3,15.3q0,10.22-7.8,9.6h-3.6c1.2,3.21,3,4.8,5.4,4.8q11.4,0,11.4-15.6,0-8.39-10.2-20.4-4.2-4.19-4.2-7.2c0-2.79,1.8-4.2,5.4-4.2,4,0,7.4,2.61,10.2,7.8s4.2,11.4,4.2,18.6q0,9-4.8,28.2l-9,28.8q-4.2,12.6-4.2,30.6,0,43.82,25.2,43.8,12,0,11.4-11.4l-.6-19.8a24.68,24.68,0,0,1,4.8-16.5q5.4-7.49,12-7.5,14.4,0,14.4,13.8,0,6-4.2,8.4l-10.8,8.4c-2.4,2-3.6,5.4-3.6,10.2q0,18,16.8,18a14.27,14.27,0,0,0,3.9-.9,14.27,14.27,0,0,1,3.9-.9q.6,0,2.4,1.8a5.19,5.19,0,0,0,3.6,1.8l.6-.6,4.8-1.2h1.2c3.6,0,5.4,2,5.4,6q0,2.41-3,5.4,8.4-1.19,8.4-7.8Q502.66,754.8,490.06,753Z" transform="translate(-388.06 -325)"/><path class="cls-1" d="M409.66,565.8q0-10.8,16.2-13.8l.6-2.4-5.4-.6a17.82,17.82,0,0,0-12.6,5.1q-5.4,5.11-5.4,11.7,0,14.4,14.4,14.4c2,0,5.2-1.59,9.6-4.8a12.28,12.28,0,0,1-4.8.6Q409.66,576,409.66,565.8Z" transform="translate(-388.06 -325)"/><path class="cls-1" d="M422.26,365.4l-4.2-5.4q-1.2-1.19-10.8-2.4a35.77,35.77,0,0,1,4.8,9.6q3.6,10.21,11.4,10.2a4.38,4.38,0,0,0,.9-1.2,5.07,5.07,0,0,1,.9-1.2q-3.6-.58-3.6-3a.53.53,0,0,1,.6-.6l3.6,1.2a2.41,2.41,0,0,0,.6-1.8,3.49,3.49,0,0,0-1.2-2.4Z" transform="translate(-388.06 -325)"/><path class="cls-1" d="M413.26,478.8h-1.8q4.8,3,4.8,5.4a7.43,7.43,0,0,1-2.4,5.4q-4.2,5.4-6.6,15.6c.8-1.2,1.6-2.29,2.4-3.3s1.6-1.89,2.4-2.7a7.71,7.71,0,0,1,1.8-3.6q6.6-10.19,6.6-10.8Q420.46,478.22,413.26,478.8Z" transform="translate(-388.06 -325)"/><path class="cls-1" d="M449.86,500.1q-8.4-7.49-18.6-7.5-24,0-24,26.4,0,17.41,18.6,27l.6-3.6q-15.6-9-15.6-24.6a18.7,18.7,0,0,1,6-14.1,20.21,20.21,0,0,1,14.4-5.7q18,0,18,15.6,0,9.61-10.2,9.6c-4,0-7.2-2.59-9.6-7.8a12.52,12.52,0,0,0-.6,4.8q0,9,11.4,9c2.4,0,5.8-1.39,10.2-4.2,1.2,0,2.2,1,3,3q4.8-6.59,4.8-10.8Q458.26,507.62,449.86,500.1Z" transform="translate(-388.06 -325)"/><path class="cls-1" d="M426.46,445.8a45.58,45.58,0,0,1,14.4,2.4q-7.8-6-15.6-6-17.4,0-17.4,15.6t13.2,15.6c1.6,0,4.6-1.59,9-4.8a20.69,20.69,0,0,1-6,.6q-12,0-12-11.4Q412.06,445.82,426.46,445.8Z" transform="translate(-388.06 -325)"/><path class="cls-1" d="M412.06,751.8c-1.2,0-1.8.81-1.8,2.4a2.12,2.12,0,0,0,2.4,2.4,1.59,1.59,0,0,0,1.8-1.8C414.46,752.81,413.66,751.8,412.06,751.8Z" transform="translate(-388.06 -325)"/><path class="cls-1" d="M427.66,387q-3.6,0-3.6-1.8c.8-.79,2.2-1.2,4.2-1.2l-2.4-2.4-4.8-1.2c-2.4,0-4.8,1.41-7.2,4.2a65.33,65.33,0,0,0,15.6,5.4l-.6-3.6Z" transform="translate(-388.06 -325)"/><path class="cls-1" d="M417.46,757.8a3.54,3.54,0,0,0-1.8,3,2.35,2.35,0,0,0,2.4,1.8,2.12,2.12,0,0,0,2.4-2.4C420.46,758.61,419.46,757.8,417.46,757.8Z" transform="translate(-388.06 -325)"/><path class="cls-1" d="M422.26,529.2c0-1.2.6-3.39,1.8-6.6q-5.4,4.81-5.4,7.8,0,5.4,8.4,9v-1.8C423.86,535.2,422.26,532.41,422.26,529.2Z" transform="translate(-388.06 -325)"/><path class="cls-1" d="M444.46,342.6l-1.8-3-6,3.6-10.2,3.6c-3.2,1.2-4.8,4-4.8,8.4q0,10.8,9.6,10.8c-2-2-3-3.6-3-4.8s.4-1.8,1.2-1.8q.6,0,1.8,1.8l3.6,4.2,4.2.6q-.6-2.38-.9-3.9a13.74,13.74,0,0,1-.3-2.7q0-6.58,7.8-12l-2.4-1.8Z" transform="translate(-388.06 -325)"/><path class="cls-1" d="M427.06,760.2a2.66,2.66,0,0,0-3,3q0,3.6,3,3.6c2,0,3-1,3-3Q430.06,760.2,427.06,760.2Z" transform="translate(-388.06 -325)"/><path class="cls-1" d="M445.66,771q-1.2-.59-1.8-3.6c-5.2,2-8.6,3-10.2,3a20.69,20.69,0,0,1-6-.6q9.6,9,19.8,9,4.8,0,4.8-1.8Q452.26,777.62,445.66,771Z" transform="translate(-388.06 -325)"/><path class="cls-1" d="M433.06,409.8q0-11.39,7.8-17.4a13.25,13.25,0,0,0,3.08-1.18l-.08,0c.05,0,.08,0,.08,0a8.32,8.32,0,0,1,2.62,1.48,6.4,6.4,0,0,0,3.3,1.5,2.12,2.12,0,0,0,2.4-2.4q0-4.79-7.2-11.4c-3.2-2-5-3-5.4-3-2,0-3,.81-3,2.4v.6l1.2,3v1.2a3.46,3.46,0,0,1-.6,2.4q-9,10.22-9,20.4,0,25.82,26.4,43.2l2.4-3.6Q433.06,424.81,433.06,409.8Z" transform="translate(-388.06 -325)"/><path class="cls-1" d="M443.86,391.2l.08,0S443.91,391.2,443.86,391.2Z" transform="translate(-388.06 -325)"/><path class="cls-1" d="M435.46,370.2c-4.4,0-6.6,2.21-6.6,6.6,0,2,1.2,4.8,3.6,8.4l2.4-2.4a8.3,8.3,0,0,1-.6-3.6c0-3.19,1.8-4.8,5.4-4.8,3.2,0,6.5,1.91,9.9,5.7s5.1,7.5,5.1,11.1-1.6,5.4-4.8,5.4a8.78,8.78,0,0,1-5.4-1.8l-3.6,2.4c4.4,3.21,7.8,4.8,10.2,4.8q8.4,0,8.4-9.6a17.27,17.27,0,0,0-5.4-12.6Q444.46,370.22,435.46,370.2Z" transform="translate(-388.06 -325)"/><path class="cls-1" d="M437.26,760.2c-2,.81-3,1.8-3,3,0,2,1,3,3,3q4.2,0,4.2-3.6C441.46,761,440.06,760.2,437.26,760.2Z" transform="translate(-388.06 -325)"/><path class="cls-1" d="M529.66,622.8l.73-.72C529.91,621.91,529.66,622.14,529.66,622.8Z" transform="translate(-388.06 -325)"/><path class="cls-1" d="M540.46,648q4.8,0,13.2-6.6l-10.8-4.8-6.6-8.4c-3-3.74-4.9-5.78-5.87-6.12l-.73.72c0-.66.25-.89.73-.72l.47-.48,3.6-1.8q-10.8-5.4-17.4-5.4a52.66,52.66,0,0,0-5.4,1.2l-9,3-1.8.6q-3,0-3-1.8,0-4.18,12-5.4,18.6-1.8,25.8-9.3t9-26.7l-7.2,3.6a2.41,2.41,0,0,1-.6-1.8v-5.4q0-6.58-6.9-15t-14.1-9.6q-4.8-.59-5.4-1.8l-4.2-4.2-3-1.2v4.8q-13.2,6-13.2,15.6a17.55,17.55,0,0,0,2.1,7.8,50.43,50.43,0,0,0,4.8,7.8c1.8,2.4,3.5,4.71,5.1,6.9s2.4,3.9,2.4,5.1q0,9.61-8.4,9.6c-4,0-6-2-6-6q0-5.4,4.2-5.4c1.6,0,2.6.21,3,.6-1.6-2.79-3.6-4.2-6-4.2-5.6,0-8.4,2.81-8.4,8.4q0,9.61,11.4,9.6,14.4,0,14.4-13.2,0-6-5.4-14.1c-3.6-5.4-5.4-8.89-5.4-10.5q0-9.58,11.4-9.6,14.4,0,14.4,18.6,0,21-21,31.2l-18.6,9.6q-36.6,18.62-41.4,37.2l2.4-1.8h1.2c.8,0,1.2.21,1.2.6q0,1.8-7.2,9l-2.4,5.4,3,2.4q20.4-20.38,31.2-24.6l20.4-7.8a29.61,29.61,0,0,1,9-1.8q4.8,0,4.8,1.8,0,3-12.6,3.6-22.8,2.41-52.8,32.4v4.8c4-4,6.4-6,7.2-6a.53.53,0,0,1,.6.6q0,1.21-7.8,9v8.4q25.2-33.58,58.2-33.6,13.2,0,22.5,5.4t9.3,13.2v4.2a13.25,13.25,0,0,1-.6,4.2q5.4-1.18,6.6-4.2t2.4-6c0-.79.6-1.2,1.8-1.2h1.8a30.93,30.93,0,0,0-7.2-11.4q-19.8-1.8-19.8-6.6l1.2-1.2a4.11,4.11,0,0,1,3,1.2l3,1.8q2.4,1.8,7.2,1.8a23.21,23.21,0,0,0,3.3-.3q2.1-.29,5.1-.9-3-1.8-3-3.6a3.5,3.5,0,0,1,2.4-1.2Z" transform="translate(-388.06 -325)"/><path class="cls-1" d="M482.86,369a3.42,3.42,0,0,1-2.4-1.2,10.91,10.91,0,0,1,1.8-3.3,9.27,9.27,0,0,0,1.8-5.1,41.78,41.78,0,0,0-1.8-9.6q-2.4.61-3.9.9a13.17,13.17,0,0,1-2.7.3h-4.8a107.71,107.71,0,0,0-12.6-1.8q-16.2,0-16.2,10.2a8.3,8.3,0,0,0,.6,3.6c1.2-2,2.6-3,4.2-3a.53.53,0,0,1,.6.6,2.41,2.41,0,0,1-.6,1.8l-1.2,2.4-.6,1.2q0,1.8,4.8,3.6c.4-2.79,1.2-4.2,2.4-4.2q1.2,1.22,1.2,1.8l-1.2,3.6,5.4,1.2,3-2.4,1.2-.6a1.06,1.06,0,0,1,1.2,1.2,3.46,3.46,0,0,1-.6,2.4l-3,2.4v4.8l2.4-.6c2,0,3,.41,3,1.2,0,1.61-1.4,2.4-4.2,2.4l3.6,3.6c2.8-1.59,5-2.4,6.6-2.4a.53.53,0,0,1,.6.6q0,3-3.6,3.6h2.4q15.6,0,15.6-13.8,0-4.78-.6-6A3.42,3.42,0,0,1,482.86,369Z" transform="translate(-388.06 -325)"/><path class="cls-1" d="M444.46,754.8a1.8,1.8,0,1,0,0,3.6q2.4,0,2.4-1.8Q446.86,754.21,444.46,754.8Z" transform="translate(-388.06 -325)"/><path class="cls-1" d="M450.46,405.6v.6c0,.81-.2,1.2-.6,1.2s-.6-.39-.6-1.2v-.6l-5.4-1.2q.6,3.6,7.2,10.8c2.8-2.4,4.2-4.59,4.2-6.6l-.6-3Z" transform="translate(-388.06 -325)"/><path class="cls-1" d="M446.26,749.4c.8.81,1.4,1.2,1.8,1.2a1.59,1.59,0,0,0,1.8-1.8c-.8-.79-1.4-1.2-1.8-1.2Z" transform="translate(-388.06 -325)"/><path class="cls-1" d="M452.88,429.55c0,.18,0,.4,0,.65C452.86,430,452.87,429.77,452.88,429.55Z" transform="translate(-388.06 -325)"/><path class="cls-1" d="M459.46,418.2q-10.2,0-10.2,11.4,0,6.61,8.4,15-4.5-19.1-4.78-15.05c0,.22,0,.43,0,.65,0-.25,0-.47,0-.65q.3-7.74,7.78-7.75c3.6,0,6,2.81,7.2,8.4q1.2-4.79,1.2-4.2C469.06,420.81,465.86,418.2,459.46,418.2Z" transform="translate(-388.06 -325)"/><path class="cls-1" d="M467.26,406.8l-.6,2.4-1.2-1.2-2.4-3.6-2.4-3a13.82,13.82,0,0,0-1.8,5.4,5.8,5.8,0,0,0,3.3,5.4l9.9,5.4a24.14,24.14,0,0,0,1.8-9.6l-4.2-.6Z" transform="translate(-388.06 -325)"/><path class="cls-1" d="M491.56,386.7a9.72,9.72,0,0,1-4.5,1.5c-1.6,0-2.6-.19-3-.6-5.6,3.21-9.8,4.8-12.6,4.8h-3.6a13,13,0,0,1-4.2-.6v3a6.29,6.29,0,0,0,5.4,2.4,12,12,0,0,1,5.4,1.2,4.85,4.85,0,0,1-3.6,1.2,47,47,0,0,1-5.4-1.2q4.2,7.2,12,7.2,15,0,22.2-19.8Q494.26,385.22,491.56,386.7Z" transform="translate(-388.06 -325)"/><path class="cls-1" d="M473.26,338.4v4.2l-2.4,4.2q6.6,0,6.6-5.4a3.49,3.49,0,0,0-1.2-2.4Z" transform="translate(-388.06 -325)"/><path class="cls-1" d="M511.06,477.6,500.86,501a67.77,67.77,0,0,1-9.3,16.2q-6.3,8.41-14.7,18.6l-.6,4.2q19.2-16.2,26.4-33.6l12-27q7.2-18.58,27.6-39.6l15-16.2A114.64,114.64,0,0,0,511.06,477.6Z" transform="translate(-388.06 -325)"/><path class="cls-1" d="M491.86,490.2a3.85,3.85,0,0,1-4.2-3.6,13.82,13.82,0,0,0-1.8,5.4q0,5.4,4.8,5.4,6.6,0,16.8-19.8c.8-1.2,1.9-3.09,3.3-5.7s3.3-5.89,5.7-9.9l3-5.4a149.6,149.6,0,0,0-14.4,19.2Q496.66,490.2,491.86,490.2Z" transform="translate(-388.06 -325)"/><path class="cls-1" d="M526.66,351a12.28,12.28,0,0,1-4.8-.6,35.93,35.93,0,0,0-5.4-1.8h-2.4a3.53,3.53,0,0,0-2.4.6l-1.8,1.8-3.6-.6a33.45,33.45,0,0,0-7.2-1.2c-.8,0-2.2.11-4.2.3s-4.6.51-7.8.9l.6,3.6q4.8-.58,7.8-.9c2-.19,3.4-.3,4.2-.3q9,0,9,3.6l-1.2,5.4c0,.81,1.2,2.4,3.6,4.8a10.91,10.91,0,0,1,3.6,7.8c0,1.61-1.2,3.6-3.6,6q8.4-1.8,8.4-11.4,0-4.19-1.2-5.4l-3-4.2a3.46,3.46,0,0,1-.6-2.4c0-.39.4-.6,1.2-.6h1.8l4.2,1.2c.4.41,1.6.6,3.6.6q10.2,0,10.2-8.4a12.52,12.52,0,0,0-.6-4.8C533.86,349,531.06,351,526.66,351Z" transform="translate(-388.06 -325)"/><path class="cls-1" d="M493.06,363c-2.8,0-4.6.21-5.4.6q10.8,1.22,10.8,7.2c0,2.81-1.8,4.8-5.4,6l4.8,3c3.6-2.79,5.4-5.4,5.4-7.8Q503.26,363,493.06,363Z" transform="translate(-388.06 -325)"/><path class="cls-1" d="M493.06,534q0-3.6,6-15.6-9.6,7.82-9.6,18,0,5.4,3,5.4,7.2,0,7.2-5.4v-1.8c-2,2-3.4,3-4.2,3Q493.06,537.6,493.06,534Z" transform="translate(-388.06 -325)"/><path class="cls-1" d="M497.26,742.2q-4.2,0-4.2,5.4,0,3.6,4.2,3.6c2.4,0,3.6-1.39,3.6-4.2C500.86,743.81,499.66,742.2,497.26,742.2Z" transform="translate(-388.06 -325)"/><path class="cls-1" d="M506.26,738c-2.4,0-3.6,1.41-3.6,4.2s1.2,4.2,3.6,4.2c2.8,0,4.2-1.39,4.2-4.2S509.06,738,506.26,738Z" transform="translate(-388.06 -325)"/><path class="cls-1" d="M508.06,449.4l-3.6,6a85.42,85.42,0,0,0,15-6.9,74.56,74.56,0,0,0,11.4-8.1l16.2-13.2a56,56,0,0,1,9.6-5.4l3-3.6q-8.4,6-21.3,13.5T508.06,449.4Z" transform="translate(-388.06 -325)"/><path class="cls-1" d="M516.46,513q-2.4,16.82-8.4,16.8c-1.6,0-2.6-.19-3-.6l.6,2.4a4.24,4.24,0,0,0,4.2,3q7.8,0,10.8-14.4.6-5.4.9-10.8c.2-3.6.5-7,.9-10.2a61.31,61.31,0,0,0,.9-8.1,99.26,99.26,0,0,1,1.5-11.7q-4.2,5.4-6,17.4Z" transform="translate(-388.06 -325)"/><path class="cls-1" d="M521.26,752.4q-12.6,0-12.6,11.4,0,8.41,11.4,13.8-4.8-8.39-4.8-9,0-7.2,7.8-7.2a23.49,23.49,0,0,1,7.8,1.8l15.6,8.4q13.8,8.42,25.8,7.2l9-.6q-25.8-.59-45.6-18Q526.06,752.42,521.26,752.4Z" transform="translate(-388.06 -325)"/><path class="cls-1" d="M515.86,736.8q-2.4.62-2.4,3.6c0,2,.8,3,2.4,3q3.6,0,3.6-3.6C519.46,737.81,518.26,736.8,515.86,736.8Z" transform="translate(-388.06 -325)"/><path class="cls-1" d="M550.06,360.6c-.8,0-3,.71-6.6,2.1a25,25,0,0,1-8.4,2.1q-6,0-13.8-3.6a26.06,26.06,0,0,0,19.2,7.8q13.8,0,13.8-6C554.26,361.41,552.86,360.6,550.06,360.6Z" transform="translate(-388.06 -325)"/><path class="cls-1" d="M526.06,738.6a2.66,2.66,0,0,0-3,3c0,1.61,1,2.4,3,2.4,2.4,0,3.6-1,3.6-3C529.66,739.41,528.46,738.6,526.06,738.6Z" transform="translate(-388.06 -325)"/><path class="cls-1" d="M581.26,465s0,0,0-.07S581.26,464.94,581.26,465Z" transform="translate(-388.06 -325)"/><path class="cls-1" d="M668.86,416.4a8.21,8.21,0,0,1-3.6.6q0-4.78,9-6a41.6,41.6,0,0,0,9.6-1.8l-5.4-2.4q-4.2.61-6.9,1.2a19.61,19.61,0,0,0-3.9,1.2c-.8,0-4.4,2-10.8,6a14.79,14.79,0,0,0-3,1.8l-.6-.6q0-6,19.8-10.8l-9.6-1.8q-17.4,9-21.6,14.4-7.2,9-9,9c-.4,0-.6-.39-.6-1.2q0-3,6.6-9.6l9.6-8.4,9.6-5.4-4.2-1.2a72.43,72.43,0,0,0-8.7,6c-4.2,3.21-6.9,4.8-8.1,4.8a.53.53,0,0,1-.6-.6c0-2,2-4.2,6-6.6a9,9,0,0,0,2.4-1.8,14.49,14.49,0,0,1,3.6-2.4h-6.6l-5.4,3.6-.6-1.8,1.8-1.8-10.8-.6q-18,0-51,13.8c-1.6,2.4-3.4,5.21-5.4,8.4a100.39,100.39,0,0,0-6,11.4l-1.2,7.8a23.88,23.88,0,0,0-1.2,3c-1.2-.39-1.8-1.8-1.8-4.2q0-4.18,9-22.2-3.6,3-7.2,6.3t-6.6,6.3q-4.8,13.21-4.8,18.6c0,4.8.8,8.61,2.4,11.4l4.2,10.8.6,1.8a1.06,1.06,0,0,1-1.2,1.2q-1.8,0-3.6-5.4l-4.2-10.8a59.23,59.23,0,0,1-1.2-7.2q0-3,3-15a27.84,27.84,0,0,0-4.8,4.8,32.53,32.53,0,0,0-3,4.8v6.6l.6,3.6v.6a3.46,3.46,0,0,1-.6,2.4c-2,0-3-2.79-3-8.4l.6-1.2a17.91,17.91,0,0,0-4.8,9l.6,3.6,1.2,3.6.6,2.4-.6.6c-2.4,0-3.6-2.19-3.6-6.6l-2.4,6.6a50.84,50.84,0,0,1,1.2,5.4c0,2-.4,3-1.2,3-.4,0-1-.39-1.8-1.2q-4.2,13.21-4.2,19.2c0,2.81,1.2,6.6,3.6,11.4l.6-5.4,3.6,14.4,5.4,6q-5.4-16.78-5.4-24c0-6.39.8-9.6,2.4-9.6q3,0,4.2,3.6l5.4,15q2.4,7.82,10.8,7.8l1.8-.6,7.2-1.8-.6-3v-1.2c0-1.59.4-2.4,1.2-2.4l3.6,1.2q10.8,4.82,13.2,4.8h5.4a15.31,15.31,0,0,0,4.8-.6q-7.2-10.19-6.6-17.4v-4.8a25.72,25.72,0,0,0,.6-4.8v-4.2c0-2.4-1.4-6.19-4.2-11.4a15.6,15.6,0,0,0-1.17-3.07s0,.05,0,.07,0-.07,0-.07c.08-.34.66-.53,1.77-.53,1.6,0,4,1,7.2,3q.6-3,.9-4.5a12.37,12.37,0,0,0,.3-2.1c0-1.2-.8-2.89-2.4-5.1s-3.3-4.8-5.1-7.8a98.31,98.31,0,0,1-4.8-9,21.72,21.72,0,0,1-2.1-9.3q0-13.19,13.8-18a26.21,26.21,0,0,0-11.4,21q18.6-25.2,34.2-25.2c2.4,0,3.6.81,3.6,2.4,0,2-2,3.6-6,4.8s-7.8,4.41-11.4,9.6q-4.8,8.42-4.8,13.8c0,1.2,1,5.21,3,12,2.8-2.79,4.8-4.2,6-4.2a4.09,4.09,0,0,1,1.2,3l-.6,1.2v6a3.49,3.49,0,0,0-.6,2.4v.6c0,3.6,1.8,7.41,5.4,11.4l9.6,12,4.8,9,8.4-8.4,10.8-9c2.8-2.4,4.2-6.19,4.2-11.4a46.43,46.43,0,0,0-.3-5.1c-.2-1.8-.5-3.69-.9-5.7l-.6-2.4c0-.79.2-1.2.6-1.2a1.69,1.69,0,0,0,1.2.6,1.77,1.77,0,0,1,1.2.6l4.2,3.6,5.4,3q3-4.78,3-5.4l.6-5.4v-6q-.6-24,27-24h4.8a18.54,18.54,0,0,1,5.4.6l-10.8-4.8A62.86,62.86,0,0,0,668.86,416.4Z" transform="translate(-388.06 -325)"/><path class="cls-1" d="M561.38,569.38l-.52,0A4,4,0,0,0,561.38,569.38Z" transform="translate(-388.06 -325)"/><path class="cls-1" d="M626.86,528a9.39,9.39,0,0,0-5.7.6,12.92,12.92,0,0,1-3.3,1.2q-.6,0-.6-1.8l1.2-4.8-7.8,1.2q-8.4,1.22-10.8,2.7c-1.6,1-4,2.7-7.2,5.1a7.77,7.77,0,0,0-3,1.8,2.41,2.41,0,0,1-.6-1.8,15.25,15.25,0,0,1,2.4-7.2h-7.8l-18.6,7.8a47,47,0,0,1-5.4,1.2q-19.2,0-34.2-27.6l1.8,13.2q8.4,11.42,14.4,13.8l7.2,3a3.38,3.38,0,0,1,1.5,1.2,4.38,4.38,0,0,0,.9,1.2,3.42,3.42,0,0,1-2.4,1.2,7.42,7.42,0,0,1-5.4-2.4l-8.4-6.6-7.2-6.6,1.8,9,9.6,7.2,9,4.2c1.6.41,2.4,1.2,2.4,2.4a3.42,3.42,0,0,1-2.4.6,12.38,12.38,0,0,1-8.1-3.3c-2.6-2.19-5.5-4.5-8.7-6.9l4.8,10.2q22.2,12,28.8,11.4l3-.6a48.09,48.09,0,0,0,7.5-.6c2.6-.39,4.1-.6,4.5-.6q3.6,0,3.6,1.8,0,3.6-11.4,3.6a29.61,29.61,0,0,1-3.6-.3q-2.4-.29-5.4-.9l-12.6-3-13.2-7.2,3.6,7.2a53.53,53.53,0,0,0,11.4,5.4c5.6,1.2,8.9,1.91,9.9,2.1s1.5.71,1.5,1.5c0,1.09-.83,1.68-2.48,1.78a4,4,0,0,1-.52,0l.52,0q3-.28-14.92-4.78l7.2,7.2,10.2,2.4h9.6a3.5,3.5,0,0,1,2.4,1.2c0,1.61-1.4,2.4-4.2,2.4l-3-.6a12.69,12.69,0,0,0-4.8-.6,33,33,0,0,1-6.6-.6l7.2,4.8,4.8.6h3.6q3.6,0,3.6,1.8t-3.6,1.8h-2.4q11.4,7.82,22.8,7.2h3a4.38,4.38,0,0,1-.9-1.2,5.07,5.07,0,0,0-.9-1.2c.4-.39,1.4-.6,3-.6h5.4q9,.62,19.8-6l-8.1,1.2q-3.9.61-8.7,1.8c-.8.41-2.8.6-6,.6-7.2,0-10.8-1.59-10.8-4.8,0-1.59,1.2-2.4,3.6-2.4h.6l9,1.2q6.6,0,24-15.6-4.8-1.19-4.8-1.8,0-1.8,2.4-3.6l9-6.6q3.6-1.8,8.4-15.6a28.66,28.66,0,0,0,1.5-4.2,36.51,36.51,0,0,1,3.3-7.2,68.59,68.59,0,0,1-13.8,1.8Z" transform="translate(-388.06 -325)"/><path class="cls-1" d="M581.26,771.6q-32.4,0-41.4-33.6l-5.4-2.4q6.6,40.81,47.4,40.8,18,0,35.4-14.4l.6-3.6h-3.6Q601.66,771.62,581.26,771.6Z" transform="translate(-388.06 -325)"/><path class="cls-1" d="M721.66,433.2q-17.4-16.2-30-16.2-6,0-19.2,4.8a75.51,75.51,0,0,1,54.9,25.8A85,85,0,0,1,743,474.9a101.6,101.6,0,0,1,5.7,34.5q0,51.61-32.4,84t-84.6,32.4a280.39,280.39,0,0,1-29.4-1.8l-34.8-4.2a22.82,22.82,0,0,0-5.4-.6h-13.8a70.89,70.89,0,0,1-9-.6l-1.8,4.8,28.8,2.4,55.8,6c1.2.41,4,.6,8.4.6q54,0,88.8-34.8,36.6-34.79,36.6-84.6Q755.86,465,721.66,433.2Z" transform="translate(-388.06 -325)"/><path class="cls-1" d="M566.26,589.8q-3.6,0-7.8,3.6h2.4q8.4-1.18,8.4,8.4,0,7.82-11.4,9.6l-10.8,1.8-9,2.4a25,25,0,0,0,4.8.6h8.4q25.8,0,25.8-15Q577.06,589.82,566.26,589.8Z" transform="translate(-388.06 -325)"/><path class="cls-1" d="M574.66,630.9q-13.8-2.08-33-3.3l1.8,1.8q16.8,1.8,28.2,3.3a107.11,107.11,0,0,1,21.6,5.1,198,198,0,0,1,22.2,9.6q12,6,31.2,16.8l5.4-1.2q-39.6-22.18-55.2-27A124.82,124.82,0,0,0,574.66,630.9Z" transform="translate(-388.06 -325)"/><path class="cls-1" d="M548.26,348.6q-4.8,0-4.8,5.4c0,2.81,1.6,4.2,4.8,4.2s4.8-1.59,4.8-4.8S551.46,348.6,548.26,348.6Z" transform="translate(-388.06 -325)"/><path class="cls-1" d="M555.46,662.4c-4.8,0-7.6,1.61-8.4,4.8.8-.39,2.6-.6,5.4-.6,5.2,0,7.8,2.81,7.8,8.4q0,5.4-13.8,22.8a46.21,46.21,0,0,1,4.8-4.2,32.33,32.33,0,0,1,4.8-3q9.6-7.79,9.6-16.2Q565.66,662.42,555.46,662.4Z" transform="translate(-388.06 -325)"/><path class="cls-1" d="M830.26,761.4a4.85,4.85,0,0,1-3.6-1.2q0-.59,3.6-3.6a13.25,13.25,0,0,0-9.6-4.2q-9,0-18.6,7.8-15,13.21-24.6,13.2-5.4,0-5.4-1.8,0-1.19,2.4-1.8t10.2-1.8q16.8-2.38,16.8-19.2v-3a15.65,15.65,0,0,0-.6-4.8l-5.4.6q-4.2-20.39-21.6-20.4-18.6,0-18.6,15.6,0,10.8,10.2,10.8c2.4,0,5.4-2,9-6l-3.6.6c-4,0-6-1.59-6-4.8,0-5.59,2.8-8.4,8.4-8.4q13.2,0,13.2,15,0,12-13.5,19.8t-32.7,7.8q-31.2,0-47.4-12.6-14.4-10.8-43.8-58.8-36.6-60-101.4-66.6l8.4,4.2q35.4,7.82,52.8,22.2,18,13.82,43.2,54,23.4,39,43.8,52.2t56.4,13.2q23.4,0,55.2-8.4a53.47,53.47,0,0,1,16.8-2.4q13.8,0,13.2,7.8v1.8c2.8-2.79,4.2-5.4,4.2-7.8Q841.66,761.4,830.26,761.4Z" transform="translate(-388.06 -325)"/><path class="cls-1" d="M599.26,700.8q-10.2-10.8-27-10.8-11.4,0-23.4,10.2l3,1.8q9.6-7.79,18.6-7.8,19.2,0,19.2,15.6c0,3.6-2.2,6.41-6.6,8.4,2,2,3.8,3,5.4,3a12.45,12.45,0,0,0,3.3-.6,14.32,14.32,0,0,1,2.7-.6c.4,0,1.4.71,3,2.1a11.49,11.49,0,0,0,4.8,2.7,21.69,21.69,0,0,1,1.8-5.4l2.4-4.8,2.4-1.2,2.4-1.8-6-4.2Z" transform="translate(-388.06 -325)"/><path class="cls-1" d="M554.86,744.6c-3.2,0-4.8,1.61-4.8,4.8,0,3.6,2,6.81,6,9.6a12.45,12.45,0,0,1-.6-4.8c0-2.79,1.8-4.2,5.4-4.2Q557.86,744.6,554.86,744.6Z" transform="translate(-388.06 -325)"/><path class="cls-1" d="M559.06,343.2c-2.8,0-4.2,1.61-4.2,4.8,0,2.81,1.4,4.2,4.2,4.2s4.2-1.39,4.2-4.2C563.26,344.81,561.86,343.2,559.06,343.2Z" transform="translate(-388.06 -325)"/><path class="cls-1" d="M555.46,646.8l15,7.8q18,10.21,18,18.6c0,5.61-2.8,8.4-8.4,8.4q-7.8,0-8.4-9-1.8,3-1.8,4.2,0,9,9.6,9.6l1.8.6q13.8,1.21,13.8-13.8Q595.06,657.61,555.46,646.8Z" transform="translate(-388.06 -325)"/><path class="cls-1" d="M565.66,699.6q-10.2,0-10.2,5.4c0,.81.6,1.2,1.8,1.2a6,6,0,0,0,2.4-1.2,6.53,6.53,0,0,1,3.6-1.2q6,0,7.2,9c3.6,0,5.4-1.59,5.4-4.8Q575.86,699.62,565.66,699.6Z" transform="translate(-388.06 -325)"/><path class="cls-1" d="M560.26,355.8c-2.4,0-3.6,1.61-3.6,4.8q0,3.6,4.2,3.6c2.4,0,3.6-1.39,3.6-4.2S563.06,355.8,560.26,355.8Z" transform="translate(-388.06 -325)"/><path class="cls-1" d="M559.66,640.8l-1.8,3.6q19.8,7.2,32.7,15a88.21,88.21,0,0,1,21,17.1A53.67,53.67,0,0,1,623,698.1a110.55,110.55,0,0,1,3.3,28.5l4.8,1.2v-8.4Q632.26,664.22,559.66,640.8Z" transform="translate(-388.06 -325)"/><path class="cls-1" d="M574.66,514.8c-4.8,0-7.2,1.61-7.2,4.8q0,4.21,5.4,3h1.2c3.6,0,5.4-1.59,5.4-4.8C579.46,515.81,577.86,514.8,574.66,514.8Z" transform="translate(-388.06 -325)"/><path class="cls-1" d="M592.06,764.4q-11.4,0-14.4-12c-2,2-3,3.6-3,4.8q0,10.8,13.8,10.8a29.19,29.19,0,0,0,22.2-9.6h-2.4Q598.66,764.42,592.06,764.4Z" transform="translate(-388.06 -325)"/><path class="cls-1" d="M611.26,605.1q-3.6-2.08-20.4-7.5a46.31,46.31,0,0,1-4.5-1.8q-2.7-1.18-6.3-2.4a70.84,70.84,0,0,0,17.7,9.3q9.3,3.31,9.3,8.7t-6.6,5.4h-1.8c3.2,2,5.6,3,7.2,3,6,0,9-2.59,9-7.8Q614.86,607.21,611.26,605.1Z" transform="translate(-388.06 -325)"/><path class="cls-1" d="M589.66,514.8c-4,0-6,1-6,3q0,3.6,5.4,3.6t5.4-3.6C594.46,515.81,592.86,514.8,589.66,514.8Z" transform="translate(-388.06 -325)"/><path class="cls-1" d="M603.46,338.4q-20.4,0-19.2,21V363l7.8-1.8q.6-18,12.6-18,10.2,0,10.2,8.4a18.11,18.11,0,0,1-1.8,6.6q7.2-2.38,7.2-8.4Q620.26,338.42,603.46,338.4Z" transform="translate(-388.06 -325)"/><path class="cls-1" d="M595.66,472.2c-4.4,0-6.6,1.41-6.6,4.2,0,2,2,3,6,3,3.6,0,5.4-1.39,5.4-4.2C600.46,473.21,598.86,472.2,595.66,472.2Z" transform="translate(-388.06 -325)"/><path class="cls-1" d="M593.86,495.6h-.6q-3,1.22-3,5.4c0,2.81,1.8,4.2,5.4,4.2,2.4,0,3.6-1.39,3.6-4.2Q599.26,495.6,593.86,495.6Z" transform="translate(-388.06 -325)"/><path class="cls-1" d="M674.86,553.2c-1.6,1.61-3,2.4-4.2,2.4q-1.2-1.19-1.2-1.8l-1.8-7.8-5.4-7.2q-10.8,12-10.8,16.8c0,2-.2,3-.6,3a6,6,0,0,1-2.4-1.2,6.34,6.34,0,0,0-2.4-1.2q-3.6,0-5.4,5.4l-5.4,13.8q-6,16.2-45,19.2l13.2,3q21.6-6,19.2-6h.6q0,1.21-13.8,6.6l7.8,1.2q6.6-3,11.4-5.4a27.42,27.42,0,0,0,7.2-4.8l5.4-5.4a3.5,3.5,0,0,1,2.4-1.2c.4,0,.6.41.6,1.2,0,2-1.8,4.2-5.4,6.6l-7.8,5.4-7.2,4.2h7.2a32.7,32.7,0,0,1,5.4-3.6,13.47,13.47,0,0,0,3.6-2.4l.6.6a5.18,5.18,0,0,1-2.4,4.2l4.8.6a109.14,109.14,0,0,0,21.6-18.6q11.4-13.18,11.4-19.2a25.08,25.08,0,0,0-.3-3.3Q675.46,556.21,674.86,553.2Z" transform="translate(-388.06 -325)"/><path class="cls-1" d="M599.26,481.8q-8.4,0-8.4,7.2,0,3.6,4.8,3.6,7.8,0,7.8-7.2Q603.46,481.8,599.26,481.8Z" transform="translate(-388.06 -325)"/><path class="cls-1" d="M595.66,454.8c-1.6,0-2.4.41-2.4,1.2s1,1.61,3,2.4l.6.6q3,0,3-1.8a16.7,16.7,0,0,1-2.1-1.2A23.76,23.76,0,0,0,595.66,454.8Z" transform="translate(-388.06 -325)"/><path class="cls-1" d="M597.46,462.6c-1.6,0-2.4,1-2.4,3q0,3.6,3.6,3.6c2.4,0,3.6-1,3.6-3Q602.26,462.6,597.46,462.6Z" transform="translate(-388.06 -325)"/><path class="cls-1" d="M601.06,518.4q-5.4,0-5.4,3.6c0,1.61,1.2,2.4,3.6,2.4h1.2a19.19,19.19,0,0,0,5.4-3C605.86,519.41,604.26,518.4,601.06,518.4Z" transform="translate(-388.06 -325)"/><path class="cls-1" d="M604.06,504.6l-3.6,2.4q-3.6,1.8-3.6,3.6c0,3.21,2.6,4.8,7.8,4.8,3.6,0,5.4-1.39,5.4-4.2C610.06,506.81,608.06,504.6,604.06,504.6Z" transform="translate(-388.06 -325)"/><path class="cls-1" d="M609.46,489c-5.2,0-7.8,2.81-7.8,8.4q0,3.6,3,3.6c5.2,0,7.8-2.59,7.8-7.8C612.46,490.41,611.46,489,609.46,489Z" transform="translate(-388.06 -325)"/><path class="cls-1" d="M605.26,472.8a1.59,1.59,0,0,0-1.8,1.8,2.12,2.12,0,0,0,2.4,2.4,1.59,1.59,0,0,0,1.8-1.8Q607.66,472.22,605.26,472.8Z" transform="translate(-388.06 -325)"/><path class="cls-1" d="M613.06,691.8c0,4.41-1.8,6.6-5.4,6.6-1.6,0-2.6-.19-3-.6q2.4,5.4,6,5.4,6,0,6-9,0-6-9-18Q613.06,690,613.06,691.8Z" transform="translate(-388.06 -325)"/><path class="cls-1" d="M608.86,478.2q-3.6,0-3.6,3.6c0,2,1.4,3,4.2,3,2.4,0,3.6-1,3.6-3Q613.06,478.2,608.86,478.2Z" transform="translate(-388.06 -325)"/><path class="cls-1" d="M665.86,632.4h-3.6l-34.8,2.4-18.6-1.2,18.9,2.1a126.18,126.18,0,0,0,13.5.9h10.8a102,102,0,0,0,10.2-.6h2.4q21.6-.59,21.6,11.4,0,7.2-6.6,7.2h-4.2a15.79,15.79,0,0,0,7.8,2.4q8.4,0,8.4-9.6Q691.66,631.82,665.86,632.4Z" transform="translate(-388.06 -325)"/><path class="cls-1" d="M615.46,513.6q-6,.61-6,5.4c0,1.61,1.4,2.4,4.2,2.4h1.8q6-2.39,6-4.8C621.46,514.61,619.46,513.6,615.46,513.6Z" transform="translate(-388.06 -325)"/><path class="cls-1" d="M635.86,394.8l-16.2-1.8-8.4.6a143.58,143.58,0,0,0,23.4,3.6q12,1.21,19.2,1.8a55.13,55.13,0,0,1,9,1.2,87.33,87.33,0,0,0,9,2.4q5.4,1.22,12.6,3.6a193.65,193.65,0,0,0-22.8-7.2A167.9,167.9,0,0,0,635.86,394.8Z" transform="translate(-388.06 -325)"/><path class="cls-1" d="M618.46,496.8c-4.8,0-7.2,2.21-7.2,6.6s2,6.6,6,6.6c4.4,0,6.6-2.19,6.6-6.6S622.06,496.8,618.46,496.8Z" transform="translate(-388.06 -325)"/><path class="cls-1" d="M665.26,594.6c-1.2,0-4,1.61-8.4,4.8l3-.6q7.8,0,7.8,7.2,0,10.21-27.6,12.6-6.6.61-13.5,1.2t-13.5,1.8a17.13,17.13,0,0,0,4.2.6h11.4q45.6,0,45.6-18Q674.26,594.61,665.26,594.6Z" transform="translate(-388.06 -325)"/><path class="cls-1" d="M616.06,486a3.54,3.54,0,0,0-1.8,3l.6,1.2c1.2,1.61,2.2,2.4,3,2.4q.6,0,.6-1.8v-1.2Q617.26,486,616.06,486Z" transform="translate(-388.06 -325)"/><path class="cls-1" d="M622.66,759q-4.8,10.8-4.8,12.6,0,6,7.8,6.6-3-7.2-3-9c0-1.2,1-4.39,3-9.6Z" transform="translate(-388.06 -325)"/><path class="cls-1" d="M631.06,515.4c-4.4,0-6.6,1.41-6.6,4.2,0,3.21,2.2,4.8,6.6,4.8,3.2,0,4.8-1.59,4.8-4.8C635.86,516.81,634.26,515.4,631.06,515.4Z" transform="translate(-388.06 -325)"/><path class="cls-1" d="M626.26,763.2a15.65,15.65,0,0,0-.6,4.8v3c0,4.41,1,6.6,3,6.6a2.41,2.41,0,0,0,.6-1.8,27.32,27.32,0,0,0-1.2-5.4Q626.86,766.22,626.26,763.2Z" transform="translate(-388.06 -325)"/><path class="cls-1" d="M632.86,489q-6,0-6,7.2,0,5.4,5.4,5.4c4,0,6-2,6-6C638.26,491.21,636.46,489,632.86,489Z" transform="translate(-388.06 -325)"/><path class="cls-1" d="M634.06,504.6q-7.2,1.22-7.2,3.6c0,2.81,2.4,4.2,7.2,4.2q6,0,6-5.4C640.06,505.41,638.06,504.6,634.06,504.6Z" transform="translate(-388.06 -325)"/><path class="cls-1" d="M653.86,760.2h-.6q4.2,4.21,4.2,7.2,0,8.42-9.6,8.4T632.26,759l-3,.6v1.8a18.75,18.75,0,0,0,.3,3c.2,1.2.5,2.81.9,4.8,1.2,6.81,3.2,10.2,6,10.2h.6l1.8-1.2h3l4.2.6,2.4.6a16.31,16.31,0,0,0,10.5-3.6c3-2.4,4.5-5,4.5-7.8Q663.46,759.62,653.86,760.2Z" transform="translate(-388.06 -325)"/><path class="cls-1" d="M634.06,720v6.6h2.4a32.23,32.23,0,0,0-1.2-3.9Q634.66,721.22,634.06,720Z" transform="translate(-388.06 -325)"/><path class="cls-1" d="M644.26,481.2c-3.6,0-5.4,1.61-5.4,4.8s2,4.8,6,4.8c3.6,0,5.4-2,5.4-6Q650.26,480.62,644.26,481.2Z" transform="translate(-388.06 -325)"/><path class="cls-1" d="M644.86,513q-5.4,0-5.4,5.4t5.4,5.4c4,0,6-2,6-6C650.86,514.2,648.86,512.61,644.86,513Z" transform="translate(-388.06 -325)"/><path class="cls-1" d="M644.26,549c-3.2,0-4.8.81-4.8,2.4q0,1.8,3,1.8h1.2a16.7,16.7,0,0,0,2.1-1.2,23.76,23.76,0,0,1,2.1-1.2Q647.86,549,644.26,549Z" transform="translate(-388.06 -325)"/><path class="cls-1" d="M665.26,656.4q-9-7.78-9-11.4l1.2-4.8q-7.2,4.81-7.2,9.6a14.26,14.26,0,0,0,3.3,9,30.55,30.55,0,0,0,6.3,6.3,42.25,42.25,0,0,1,3.6,2.7c0,.41-.6.6-1.8.6a17.87,17.87,0,0,1-5.4-.6l-3-.6q-13.2,0-13.8,12.6c3.2-2,5.6-3,7.2-3a25.67,25.67,0,0,1,7.5,1.8,26,26,0,0,0,8.1,1.8q10.2,0,10.2-10.8Q672.46,661.82,665.26,656.4Z" transform="translate(-388.06 -325)"/><path class="cls-1" d="M645.46,719.4a18.11,18.11,0,0,1-1.8,6.6q6.6-1.18,6.6-5.4t-10.8-20.4Q645.46,712.8,645.46,719.4Z" transform="translate(-388.06 -325)"/><path class="cls-1" d="M646.66,493.8q-6,0-6,5.4c0,3.21,1.6,4.8,4.8,4.8,4,0,6-2,6-6C651.46,495.21,649.86,493.8,646.66,493.8Z" transform="translate(-388.06 -325)"/><path class="cls-1" d="M648.46,540q-4.2,0-4.2,3.6c0,2,1.6,3,4.8,3s4.8-1.2,4.8-3.6S652.06,539.61,648.46,540Z" transform="translate(-388.06 -325)"/><path class="cls-1" d="M670.06,706.8c2,2,3,3.6,3,4.8q0,3.6-4.2,3.6a10.59,10.59,0,0,1-7.2-4.8l-8.4-12-7.8-7.2,5.4,7.8,8.4,12.6q4.2,7.2,11.4,7.2c4.4,0,6.6-2.19,6.6-6.6Q677.26,708,670.06,706.8Z" transform="translate(-388.06 -325)"/><path class="cls-1" d="M652.66,468.6c-4,0-6,1.61-6,4.8q0,3.6,3,3.6,7.2,0,7.2-5.4C656.86,469.61,655.46,468.6,652.66,468.6Z" transform="translate(-388.06 -325)"/><path class="cls-1" d="M655.66,525.6c-2.4,0-4.6,1.61-6.6,4.8l-1.8,4.2c0,1.61,1.8,2.4,5.4,2.4q9,0,9-7.2C661.66,527,659.66,525.6,655.66,525.6Z" transform="translate(-388.06 -325)"/><path class="cls-1" d="M650.86,505.8l-.6.6q-1.2,0-1.2,1.8c0,2.81,1.6,4.2,4.8,4.2q1.2,0,1.2-1.8C655.06,507.41,653.66,505.8,650.86,505.8Z" transform="translate(-388.06 -325)"/><path class="cls-1" d="M656.26,459.6c-4,0-6,1-6,3q0,3.6,6,3.6,6.6,0,6.6-3.6C662.86,460.61,660.66,459.6,656.26,459.6Z" transform="translate(-388.06 -325)"/><path class="cls-1" d="M659.86,487.8c-4.4,0-6.6,1.41-6.6,4.2,0,4.41,2,6.6,6,6.6s6-2.19,6-6.6C665.26,489.21,663.46,487.8,659.86,487.8Z" transform="translate(-388.06 -325)"/><path class="cls-1" d="M713.26,473.4a14.07,14.07,0,0,1,.3-2.7q.3-1.49.9-4.5a7.2,7.2,0,0,0-4.8,3.6c-1.2,2-2.2,3-3,3a5.22,5.22,0,0,0-1.2-.9,4.28,4.28,0,0,1-1.2-.9l-3-3.6q-.6-.58-1.8-1.8a36.43,36.43,0,0,0-3.6-3,43.45,43.45,0,0,1-10.2-15q-10.8,10.22-10.8,19.2a33,33,0,0,0,1.2,6.6l3,7.8V483a3.46,3.46,0,0,1-.6,2.4,2.4,2.4,0,0,1-1.8-.6l-6-2.4a45.3,45.3,0,0,0-2.4,14.4,26.25,26.25,0,0,0,3.6,13.8l4.2,7.2q.6.62.6,3c0,.81-.2,1.2-.6,1.2q-2.4,0-6.6-3.6l1.8,9.6,7.8,12.6q2.4,4.21,2.4,12.6,0,22.21-27.6,42,12.6-4.79,19.2-9,10.8-16.2,12-22.8l1.2-10.2c.4-1.59.8-2.4,1.2-2.4.8,0,1.2,1,1.2,3a10.23,10.23,0,0,1-.6,4.2l-4.2,16.2-4.8,8.4a31.54,31.54,0,0,0,4.5-2.7,10.29,10.29,0,0,0,3.3-3.9l4.8-14.4.6-12.6c0-2,.4-3,1.2-3,1.2,0,1.8,2.21,1.8,6.6,0,.41-.3,2.1-.9,5.1s-1.3,7.31-2.1,12.9l4.2-3.6q6-18.59,6-26.4l-.6-3.6-1.8-18.6a2.72,2.72,0,0,1,.6-3q4.2,0,4.2,15v7.8l-3.6,21.6q16.2-22.18,16.2-54.6a93.44,93.44,0,0,0-2.1-16.2C714,481.8,713.26,476.61,713.26,473.4Z" transform="translate(-388.06 -325)"/><path class="cls-1" d="M661.06,513.6h-.6q-6.6,1.21-6.6,6,0,3.6,6,3.6h.6c4-.39,6-2.4,6-6Q666.46,513.6,661.06,513.6Z" transform="translate(-388.06 -325)"/><path class="cls-1" d="M660.46,475.2q-5.4,0-5.4,5.4c0,2.81,2.2,4.2,6.6,4.2q4.8,0,4.8-3.6C666.46,477.21,664.46,475.2,660.46,475.2Z" transform="translate(-388.06 -325)"/><path class="cls-1" d="M680.26,338.4c-5.2,0-9.4,1.61-12.6,4.8q-1.8,1.8-2.4,1.8t-1.8-1.8q-1.2-1.8-2.4-1.8c-1.2,0-2.2,1-3,3a32,32,0,0,0-1.8,6.6v1.2q-.6.62.6,7.2l10.2,1.2q1.2-15.59,11.4-15.6c6,0,9,2.81,9,8.4a12.45,12.45,0,0,1-.6,4.8c4.8-2.4,7.2-5.19,7.2-8.4Q694.06,338.42,680.26,338.4Z" transform="translate(-388.06 -325)"/><path class="cls-1" d="M659.86,501l-1.8.6a3.54,3.54,0,0,0-1.8,3c0,4,2.6,6,7.8,6a2.12,2.12,0,0,0,2.4-2.4Q666.46,501,659.86,501Z" transform="translate(-388.06 -325)"/><path class="cls-1" d="M673.06,749.4l-12.6-18,8.4,16.2,11.4,12.6a13.23,13.23,0,0,1,4.2,9.6q0,5.4-5.4,5.4l-4.2-.6c3.2,3.21,5.8,4.8,7.8,4.8,5.2,0,7.8-2.59,7.8-7.8a13.23,13.23,0,0,0-4.2-9.6Z" transform="translate(-388.06 -325)"/><path class="cls-1" d="M665.26,466.8h-.6a2.85,2.85,0,0,0-2.4,3q0,5.4,8.4,5.4a.53.53,0,0,0,.6-.6C671.26,469.41,669.26,466.8,665.26,466.8Z" transform="translate(-388.06 -325)"/><path class="cls-1" d="M665.86,525.6c-.8,0-1.2.81-1.2,2.4s.4,2.4,1.2,2.4c1.2,0,1.8-.79,1.8-2.4S667.06,525.6,665.86,525.6Z" transform="translate(-388.06 -325)"/><path class="cls-1" d="M667.66,532.8c-2,0-3,.81-3,2.4,0,2.81,1.8,4.2,5.4,4.2.8,0,1.2-1,1.2-3Q671.26,532.8,667.66,532.8Z" transform="translate(-388.06 -325)"/><path class="cls-1" d="M669.46,460.8q-3,0-3,1.8,0,3.6,4.2,3.6c1.2,0,1.8-1,1.8-3C672.46,461.61,671.46,460.8,669.46,460.8Z" transform="translate(-388.06 -325)"/><path class="cls-1" d="M707.86,663a44.86,44.86,0,0,1-12.6-2.4l-6-1.2q-3.6,0-9,3.6c1.6.41,2.4,1.2,2.4,2.4a.53.53,0,0,1-.6.6h-3.6l-1.2,2.4a30.27,30.27,0,0,0,4.2,1.8,22.76,22.76,0,0,1-4.2,2.4l1.8,2.4,3,1.8a2.48,2.48,0,0,1,.6,1.8c0,.81-.6,1.2-1.8,1.2h-.6l-3-1.2-4.2.6q1.8,3,1.8,4.2a.53.53,0,0,1-.6.6c-.8,0-2.2-1-4.2-3q-1.8,1.21-1.8,2.4l.6,1.2c1.6.41,2.4,1.2,2.4,2.4s-.4,1.8-1.2,1.8a2.49,2.49,0,0,0-1.8-.6,1.69,1.69,0,0,1-1.2-.6q.6,6,6,12,9,10.21,9,15,0,2.42-2.4,6.6c3.2-.79,5.4-3.6,6.6-8.4.4-1.59,1-2.4,1.8-2.4l1.8,1.2,1.8-1.2a17,17,0,0,0-6-10.5q-4.8-3.89-4.8-6.3c0-1.59,1-2.4,3-2.4a3.53,3.53,0,0,1,3,1.8l3.6,6q2.4,3.6,6,3.6,2.4,0,9-10.2,7.2-12.6,7.2-10.8,0-5.4-6.6-5.4h-6.6q-5.4-.59-5.4-4.8,0-1.8,3-1.8a44.32,44.32,0,0,0,7.8,3,12.28,12.28,0,0,0,4.8.6c1.6,0,3-1,4.2-3l-1.2-1.2,1.2-1.2q5.4-4.18,5.4-6.6a7.46,7.46,0,0,1-1.8-3C714.26,661.41,711.06,663,707.86,663Z" transform="translate(-388.06 -325)"/><path class="cls-1" d="M831.76,522a37.84,37.84,0,0,0-24.3-8.4q-16.2,0-26.4,8.7T758.86,555q-14.4,27.62-31.8,43.2-16.8,15-51,28.2,35.4-12.6,51.6-25.2,15.6-13.19,30.6-40.2,16.2-28.18,24-35.4,10.2-8.39,25.2-8.4a33.88,33.88,0,0,1,21.9,7.5q9.3,7.51,9.3,17.1,0,4.82-4.8,13.2l1.2,3.6q7.2-10.8,7.2-17.4Q842.26,530.4,831.76,522Z" transform="translate(-388.06 -325)"/><path class="cls-1" d="M779.26,613.2q-9-13.79-22.8-13.8a56.8,56.8,0,0,0-29.4,7.8l-31.8,16.2-17.4,5.4a81.48,81.48,0,0,0,37.8-9.6q25.8-12,33.6-12,18.6,0,18.6,14.4T754.06,636c-.4,0-3-1-7.8-3q3.6,9.62,12,9.6a9.91,9.91,0,0,0,6.3-2.1c1.8-1.39,2.9-2.1,3.3-2.1q1.2,0,4.2,1.8,6.6-12,6.6-16.8a11.62,11.62,0,0,0-1.2-4.5,13.22,13.22,0,0,1-1.2-3.3Q776.26,614.42,779.26,613.2Z" transform="translate(-388.06 -325)"/><path class="cls-1" d="M733.06,435.6a138.43,138.43,0,0,0-16.2-15.9q-10.8-9.29-27.6-21.3l-5.4-1.2a377.34,377.34,0,0,1,30.6,24.9,177.72,177.72,0,0,1,18.6,19.5,96.91,96.91,0,0,1,12.3,19.2,178.17,178.17,0,0,1,10.5,27l-2.4-18Q743.26,447.62,733.06,435.6Z" transform="translate(-388.06 -325)"/><path class="cls-1" d="M706.66,564.6q-10.2,0-10.2,10.2c0,4,1.6,6,4.8,6,.4-.39,1.4-.6,3-.6-2.4-1.59-3.6-3.6-3.6-6,0-3.19,1.8-4.8,5.4-4.8,4.4,0,6.6,3.41,6.6,10.2s-7.2,16.41-21.6,28.8l9.6-4.8q16.8-15,16.8-26.4Q717.46,564.6,706.66,564.6Z" transform="translate(-388.06 -325)"/><path class="cls-1" d="M731.86,741l-4.2,2.4h1.8c5.2,0,7.8,2.21,7.8,6.6q0,12.6-15.6,12.6-8.4,0-26.4-9h-2.4q16.8,12.6,34.2,12.6,16.8,0,16.8-15.6Q743.86,742.21,731.86,741Z" transform="translate(-388.06 -325)"/><path class="cls-1" d="M735.46,466.8a48.68,48.68,0,0,0-10.8-12.6,20,20,0,0,0-12.6-4.8q-10.2,0-10.2,8.4,0,1.8,3.6,5.4,1.8-7.2,7.2-7.2,21.6,0,33,51a87.71,87.71,0,0,0-2.7-21.9A66.42,66.42,0,0,0,735.46,466.8Z" transform="translate(-388.06 -325)"/><path class="cls-1" d="M705.46,700.8l2.4,3.6,3.6.6q3,1.21,3,6l3.6-1.8V708Q718.66,705.62,705.46,700.8Z" transform="translate(-388.06 -325)"/><path class="cls-1" d="M729.46,339q-12,0-21.6,9.6a15.54,15.54,0,0,1,4.2,1.8,13.23,13.23,0,0,1-.6,2.7,13,13,0,0,0-.6,3.3q0,12,12,12c1.6,0,4-1,7.2-3l-3.6.6q-8.4,1.22-8.4-9,0-12.6,12.6-12.6,12,0,12,12.6,0,5.4-5.4,19.8l1.8,1.2,2.4-6.6,3-6.6a20.2,20.2,0,0,0,2.4-10.2Q746.86,339,729.46,339Z" transform="translate(-388.06 -325)"/><path class="cls-1" d="M735.46,651l-1.2-1.2c2.8-2.79,4.2-4.8,4.2-6l-.6-3.6a15.56,15.56,0,0,1-.6-4.8V633a15.65,15.65,0,0,1,.6-4.8c-4.8,3.21-7.2,6.6-7.2,10.2v1.2c.4.41.6,1.8.6,4.2,0,2-.8,3-2.4,3a24.22,24.22,0,0,1-4.2-.6,26.7,26.7,0,0,0-4.8-.6q-6.6,0-9,5.4l4.8-.6a12.38,12.38,0,0,1,5.7,1.8,15.87,15.87,0,0,0,3.9,1.8,6,6,0,0,0,2.4-1.2,6.34,6.34,0,0,1,2.4-1.2,17,17,0,0,1,2.7,1.8,21,21,0,0,0,3.9,2.4q12.6,6.62,12.6,18a22,22,0,0,1-7.2,16.5,24.19,24.19,0,0,1-17.4,6.9,43.47,43.47,0,0,1-15-2.4l-1.2,3a56.53,56.53,0,0,0,16.8,2.4q26.4,0,26.4-28.8,0-7.78-2.4-10.2Z" transform="translate(-388.06 -325)"/><path class="cls-1" d="M725.86,667.8c-2,0-4.6,1.61-7.8,4.8l4.8-.6c6,0,9,2.61,9,7.8q0,11.41-12.6,10.2h-6.6l-1.2,2.4q3,.61,5.4.9a32.51,32.51,0,0,0,4.2.3q16.8,0,16.8-13.8Q737.86,667.82,725.86,667.8Z" transform="translate(-388.06 -325)"/><path class="cls-1" d="M714.46,633c-1.2,0-1.8.81-1.8,2.4a2.12,2.12,0,0,0,2.4,2.4q2.4,0,2.4-1.8A2.66,2.66,0,0,0,714.46,633Z" transform="translate(-388.06 -325)"/><path class="cls-1" d="M714.46,642.6c0,.81.8,1.2,2.4,1.2q1.2,0,1.2-1.8v-.6c-.8-.79-1.4-1.2-1.8-1.2C715.06,640.2,714.46,641,714.46,642.6Z" transform="translate(-388.06 -325)"/><path class="cls-1" d="M736.66,510.6l-1.8-8.4c-2.4,3.21-3.6,5.4-3.6,6.6V510l1.2,3.6.6,1.2q0,1.8-2.4,1.8h-1.8q-10.8-.58-10.8,9,0,9,7.8,9,3,0,4.8-5.4c-1.6,1.61-2.8,2.4-3.6,2.4-3.6,0-5.4-1.59-5.4-4.8s1.8-4.8,5.4-4.8q10.2,0,10.2,14.4,0,20.42-9,35.4l-4.2,7.2-5.4,9.6q24-24,24-56.4a36.47,36.47,0,0,0-1.2-6Z" transform="translate(-388.06 -325)"/><path class="cls-1" d="M720.46,625.8q-2.4,0-2.4,3.6t2.4,3.6q1.8,0,1.8-3.6T720.46,625.8Z" transform="translate(-388.06 -325)"/><path class="cls-1" d="M724.06,636q-2.4.62-2.4,3.6,0,3.6,3.6,3.6c2,0,3-1.39,3-4.2C728.26,637,726.86,636,724.06,636Z" transform="translate(-388.06 -325)"/><path class="cls-1" d="M737.26,415.8q22.2,55.21,22.2,87.6,0,53.42-34.8,93.6a278.29,278.29,0,0,0,19.2-23.4,116,116,0,0,0,12.6-21.9,101.66,101.66,0,0,0,6.9-23.4,166.74,166.74,0,0,0,2.1-27.9q0-33.58-20.4-80.4Z" transform="translate(-388.06 -325)"/><path class="cls-1" d="M728.26,627c-1.6,0-2.4,1-2.4,3v.6a2.35,2.35,0,0,0,2.4,1.8c1.2,0,1.8-1,1.8-3C730.06,627.81,729.46,627,728.26,627Z" transform="translate(-388.06 -325)"/><path class="cls-1" d="M826.66,355.8q-14.4-13.19-36.6-13.2-31.8,0-49.8,36l5.4,2.4q15-32.4,45.6-32.4,18,0,30.6,11.7t12.6,29.7q0,16.81-9,27t-24,9.6h-4.8l1.2,5.4q43.2-.58,43.2-42Q841.06,369,826.66,355.8Z" transform="translate(-388.06 -325)"/><path class="cls-1" d="M781.06,355.8q-18.6,0-33,25.8l1.8.6q12.6-22.18,30-22.2,12.6,0,12.6,10.2,0,7.82-7.8,7.2h-3q6,3.6,9.6,3.6,8.4,0,8.4-10.2Q799.66,355.82,781.06,355.8Z" transform="translate(-388.06 -325)"/><path class="cls-1" d="M755.86,340.2a7,7,0,0,0-4.8,2.4V345c1.6-1.59,3-2.4,4.2-2.4a3.49,3.49,0,0,1,1.2,2.4c0,2.4-2,5.61-6,9.6v3q9.6-9.59,9.6-13.2C760.06,341.61,758.66,340.2,755.86,340.2Z" transform="translate(-388.06 -325)"/><path class="cls-1" d="M766.06,370.8q-7.8,0-14.4,12l1.8,1.2q2.4-9,9-9c5.2,0,8,2.61,8.4,7.8,2-2,3-3.6,3-4.8Q773.86,370.8,766.06,370.8Z" transform="translate(-388.06 -325)"/><path class="cls-1" d="M758.86,654.6a20.08,20.08,0,0,0-1.2,4.8c-.4,2.4-.8,5.61-1.2,9.6q-.6,2.41-1.2,5.7t-1.8,8.1l4.2-8.4,3.6-15q1.8-8.39,11.4-10.8h-2.4C764.26,648.6,760.46,650.61,758.86,654.6Z" transform="translate(-388.06 -325)"/><path class="cls-1" d="M773.86,509.4q-7.2,0-7.8,10.8a88.32,88.32,0,0,1-1.8,15.6l4.2-11.4,5.4-10.2,1.2-3.6A1.06,1.06,0,0,0,773.86,509.4Z" transform="translate(-388.06 -325)"/><path class="cls-1" d="M772.06,456.6q-7.2,0-7.2,11.4,0,4.22,1.8,18.6a18.2,18.2,0,0,0,.6-5.4,12.52,12.52,0,0,1,.6-4.8q.6-14.4,6-14.4c1.2,0,2.6.81,4.2,2.4C778.06,459.21,776.06,456.6,772.06,456.6Z" transform="translate(-388.06 -325)"/><path class="cls-1" d="M778.66,540q-8.4,0-13.8,14.4,8.4-10.18,13.2-10.2a2.84,2.84,0,0,1,3,2.4q1.8-2.39,1.8-3.6C782.86,541,781.46,540,778.66,540Z" transform="translate(-388.06 -325)"/><path class="cls-1" d="M771.46,497.4c-2.4,0-3.6,1.41-3.6,4.2q0,3.6,3,3.6c3.2,0,4.8-1.39,4.8-4.2Q775.66,497.4,771.46,497.4Z" transform="translate(-388.06 -325)"/><path class="cls-1" d="M770.86,567c0,5.61,2.2,8.4,6.6,8.4a10.13,10.13,0,0,0,4.2-.6c-4.8-2.4-7.2-5.59-7.2-9.6q0-7.2,12.6-7.2,4.8,0,15,3.6l3-1.8q-14.4-4.78-19.2-4.8Q770.86,555,770.86,567Z" transform="translate(-388.06 -325)"/><path class="cls-1" d="M782.26,497.4q-4.8,0-4.8,5.4c0,3.21,1.6,4.8,4.8,4.8s4.8-1.59,4.8-4.8Q787.06,497.4,782.26,497.4Z" transform="translate(-388.06 -325)"/><path class="cls-1" d="M782.26,510h-.6a4.27,4.27,0,0,0-3,4.2c0,2,1.2,3,3.6,3s3.6-1.2,3.6-3.6S784.66,510,782.26,510Z" transform="translate(-388.06 -325)"/><path class="cls-1" d="M807.46,594.6l-1.2,2.4q16.8,12.6,16.8,23.4,0,16.82-15.6,16.8-9,0-16.2-10.8a43.31,43.31,0,0,1-7.2-24.6q0-7.78,5.4-18.6l-1.8-1.8q-7.2,12-7.2,21.6,0,15.62,8.1,26.7t19.5,11.1q18.6,0,18.6-18.6Q826.66,608.42,807.46,594.6Z" transform="translate(-388.06 -325)"/><path class="cls-1" d="M808.06,532.2q-16.8,0-21,18h3q5.4-14.4,16.8-14.4a19.18,19.18,0,0,1,14.4,6.3,21.37,21.37,0,0,1,6,15.3,31.61,31.61,0,0,1-4.2,15l1.8,3q6-9.58,6-17.4Q830.86,532.21,808.06,532.2Z" transform="translate(-388.06 -325)"/><path class="cls-1" d="M787.06,561.6q.6,15,9.6,24.6l2.4-1.8a45,45,0,0,1-9.6-22.8Z" transform="translate(-388.06 -325)"/><path class="cls-1" d="M808.66,358.8l-9.6-6-10.2-.6q13.2,6.62,15.6,8.4l3.6,3.6a3.42,3.42,0,0,0,2.4,1.2,2.12,2.12,0,0,0,2.4-2.4C812.46,361.41,811.06,360,808.66,358.8Z" transform="translate(-388.06 -325)"/><path class="cls-1" d="M807.46,381l-1.8,1.8h-7.2l-6.6,3.6a10.29,10.29,0,0,1,1.8,4.8q4.2-1.8,6-1.8c4.8,0,7.2,2.61,7.2,7.8q0,4.21-6.6,7.2a18.89,18.89,0,0,0,7.2,1.8q10.2,0,10.2-11.4Q817.66,386.42,807.46,381Z" transform="translate(-388.06 -325)"/><path class="cls-1" d="M807.46,619.8q-9.6,0-9.6-13.2,0-11.39,16.8-24l-1.2-2.4q-19.2,13.81-19.2,26.4,0,16.81,12,16.8,5.4,0,12-7.2l-2.4-2.4C813.06,617.81,810.26,619.8,807.46,619.8Z" transform="translate(-388.06 -325)"/><path class="cls-1" d="M832.69,703.54a.88.88,0,0,0,0,.26A2.06,2.06,0,0,1,832.69,703.54Z" transform="translate(-388.06 -325)"/><path class="cls-1" d="M832.06,669a23.84,23.84,0,0,0-3,3.6c-1.6,0-2.6-2-3-6a72.68,72.68,0,0,0-4.8-9c-2-4.8-3-8-3-9.6a18.61,18.61,0,0,1,.3-2.4c.2-1.2.5-2.79.9-4.8l-4.8,3.6V651q.6,1.8-.6,1.8t-1.2-1.8l-.6-3.6-3.6,9-1.2,11.4-1.2,1.2a2.4,2.4,0,0,1-1.8-.6l-2.4-2.4-4.2,12.6,3.6,10.2V690a1.59,1.59,0,0,1-1.8,1.8l-3-2.4q-.6,3-.9,5.1a32.07,32.07,0,0,0-.3,4.5c0,3.6.8,6.21,2.4,7.8l14.4,15q7.2,8.41,7.2,15.6c0,4-.2,6.6-.6,7.8l4.2-3.6-.6-8.4-1.8-6-.6-1.8c0-.79.2-1.2.6-1.2,2,0,3.4,2.21,4.2,6.6l1.2,7.2,2.4-3.6-1.2-6-2.4-4.8v-1.8a.53.53,0,0,1,.6-.6c1.6,0,2.8,2.21,3.6,6.6a2.48,2.48,0,0,1,.6,1.8,3.46,3.46,0,0,0,.6,2.4v-9.6a35.63,35.63,0,0,0-4.2-19.2c-2.4-3.6-3.6-6.39-3.6-8.4a3.49,3.49,0,0,1,1.2-2.4,7.53,7.53,0,0,1,1.8,1.2l1.2,1.2a39,39,0,0,1,4.8,15,23.85,23.85,0,0,1,.9,5.1,54.52,54.52,0,0,0,1.5,8.1l3-9.6q-3.89-11.11-4.17-9.86a2.06,2.06,0,0,0,0,.26.88.88,0,0,1,0-.26c.06-1,.43-1.54,1.17-1.54q1.8,0,3.6,5.4l.6-6-1.2-3.6-2.4-4.8q-.6-.59-.6-3c0-.39.4-.6,1.2-.6q2.4,0,3.6,5.4a27.48,27.48,0,0,0,.6-7.2q0-4.79-3.6-22.2Z" transform="translate(-388.06 -325)"/><path class="cls-1" d="M796.06,570.6l1.2,2.4,7.2-3,12-5.4,7.2-2.4-1.2-2.4A115.89,115.89,0,0,0,796.06,570.6Z" transform="translate(-388.06 -325)"/><path class="cls-1" d="M798.46,641.4a17.22,17.22,0,0,1,3,9q0,4.82-3.6,3.6h-1.8q1.8,5.4,4.8,5.4,6,0,6-7.2Q806.86,646.22,798.46,641.4Z" transform="translate(-388.06 -325)"/><path class="cls-1" d="M802.06,723.6c-3.2,0-5,2-5.4,6,2-2,3.6-3,4.8-3,4.4,0,6.6,2.61,6.6,7.8a15.87,15.87,0,0,1-2.4,7.8l.6,4.2q6-6,6-12Q812.26,723.6,802.06,723.6Z" transform="translate(-388.06 -325)"/><path class="cls-1" d="M842.26,490.2c-.8-6-2.4-10-4.8-12l-3-3a1.77,1.77,0,0,0-1.2-.6l-.6-.6c-1.2,2.81-2.2,4.2-3,4.2-1.6,0-2.6-.19-3-.6l-3-.6q-12.6,0-12.6,12.6,0,9.61,6.6,8.4h3.6q-4.2-3.6-4.2-7.2,0-9,9-9,10.8,0,10.8,11.4,0,10.8-22.8,14.4a47.54,47.54,0,0,0-13.2,3.6l9.6-1.2h13.2q19.8-1.19,18.6-18.6Z" transform="translate(-388.06 -325)"/><path class="cls-1" d="M805.06,367.2q-3,1.21-3,3.6l.6.6a2.35,2.35,0,0,0,2.4,1.8c2.4,0,3.6-1,3.6-3S807.46,367.2,805.06,367.2Z" transform="translate(-388.06 -325)"/><path class="cls-1" d="M833.26,447a23.6,23.6,0,0,1,1.8,7.8q0,10.8-12.6,10.8-13.8,0-13.8-12,0-8.39,11.4-17.4,15.6-12.6,19.8-27.6-6.6,12-21,22.8-15.6,10.8-15.6,22.2,0,15,15.6,19.8c0-2,.4-3,1.2-3l6.6.6q13.8,1.22,13.8-15Q840.46,451.81,833.26,447Z" transform="translate(-388.06 -325)"/><path class="cls-1" d="M808.66,520.2h-3q13.2,2.41,15,10.2l3-3Q823.66,519.62,808.66,520.2Z" transform="translate(-388.06 -325)"/><path class="cls-1" d="M817.06,738.6c0,.41-.4-.6-1.2-3a43.06,43.06,0,0,1-9.6,13.8V753q10.8-6,10.8-7.8V744l-1.2-1.2a7,7,0,0,1,.6-2.1A6.73,6.73,0,0,0,817.06,738.6Z" transform="translate(-388.06 -325)"/><path class="cls-1" d="M814.66,369.6c-2.8,0-4.2,1.41-4.2,4.2,0,2,1.4,3,4.2,3,2,0,3-1.39,3-4.2A2.66,2.66,0,0,0,814.66,369.6Z" transform="translate(-388.06 -325)"/><path class="cls-1" d="M830.26,346.8a52.71,52.71,0,0,1-9.9-1.5q-6.9-1.49-9.3-2.1l7.8,3.6,4.8,2.4a15.79,15.79,0,0,0,7.8,2.4c5.2,0,7.8-2.19,7.8-6.6a13.45,13.45,0,0,0-1.8-3.6Q834.46,346.8,830.26,346.8Z" transform="translate(-388.06 -325)"/><path class="cls-1" d="M814.06,407.4c-1.6,1.61-2.4,3-2.4,4.2,0,3.21,2,4.8,6,4.8q4.8,0,10.2-7.8-5.4,3.6-8.4,3.6C817.06,412.2,815.26,410.61,814.06,407.4Z" transform="translate(-388.06 -325)"/><path class="cls-1" d="M812.86,571.2q7.8,13.21,7.8,21a27.48,27.48,0,0,1-.6,7.2l3,3.6c.4-2,.7-3.9.9-5.7a42.06,42.06,0,0,0,.3-4.5q0-9-9-22.8Z" transform="translate(-388.06 -325)"/><path class="cls-1" d="M817.06,361.2q-1.8,1.21-1.8,2.4,0,3.6,4.2,3.6c2,0,3-.79,3-2.4Q822.46,361.2,817.06,361.2Z" transform="translate(-388.06 -325)"/><path class="cls-1" d="M835.06,639.6a2.41,2.41,0,0,1-.6-1.8q0-1.18,1.8-2.4l-9.6,1.8-5.4,4.8h4.2q0,2.41-4.2,3v3.6a14.15,14.15,0,0,1,6-1.8c2.4,0,4.6,1.61,6.6,4.8a19.14,19.14,0,0,0,3-5.4,13.82,13.82,0,0,0,5.4-1.8l-3-3Z" transform="translate(-388.06 -325)"/><path class="cls-1" d="M832.66,741c-2.4,0-5.4,2-9,6l3,1.2q4.2-3.6,7.2-3.6t4.2,3.6l.6,1.8c0,1.2-1,2.81-3,4.8h2.4c2.8.41,4.2-1.2,4.2-4.8Q842.26,741,832.66,741Z" transform="translate(-388.06 -325)"/><path class="cls-1" d="M388.06,325V790.6h465.6V325Zm457.8,458.4H395.26V332.8h450.6Z" transform="translate(-388.06 -325)"/></svg>