<svg id="Layer_1" data-name="Layer 1" xmlns="http://www.w3.org/2000/svg" viewBox="0 0 465.6 465.6"><defs><style>.cls-1{fill:#c1272d;}</style></defs><g id="Layer_3" data-name="Layer 3"><path d="M471.05,557.31q-27.6-1.8-27.6-22.2,0-13.18,24.6-59.4-.6-3-.9-4.8a16.73,16.73,0,0,1-.3-2.4c0-1.59.8-3.8,2.4-6.6l-2.4-.6-3,.6-.6.6-7.2-3-25.8,57q-9,19.8-18.3,28.2t-27.9,13.8l-5.4,1.8c-2.4.81-3.6,1.6-3.6,2.4,0,2,3.2,3,9.6,3q3.6,0,17.4-1.8c6-.8,11.4-1.29,16.2-1.5a85.32,85.32,0,0,1,12.6.3h12.6l28.8,2.4q6,0,14.4-3.6a48.05,48.05,0,0,0-6-2.4A45.87,45.87,0,0,0,471.05,557.31Z" transform="translate(-358.65 -145.71)"/><path d="M471.65,476.31l-3,3.6-15,31.2q-7.2,15.61-7.2,23.4,0,6,7.2,13.8a36.86,36.86,0,0,1-2.4-12.6,39.21,39.21,0,0,1,3-13.8l18.6-40.2-.6-3.6Z" transform="translate(-358.65 -145.71)"/><path d="M787.25,556.71q-28.2-3-42-33.6l-149.4-326.4c-3.21-6-5.8-9-7.8-9-2.4,0-5,3.21-7.8,9.6l-100.8,210.6,15.6,8.4q6.6-4.8,12.6-4.8h137.4q12,0,16.8,10.2l23.4,51.6,4.8-1.2,7.2.6,6.6-.6,4.2-.6,1.8-.6c2.4,0,3.6,2,3.6,6a20.22,20.22,0,0,1-3.6,11.4q5.4,6.62,5.4,13.8t-9,18a46.74,46.74,0,0,1,5.4,22.2q0,11.4-24,15.6l-7.2,1.2c-3.2.81-4.8,1.8-4.8,3q0,2.4,6,2.4l15.6.6c1.59,0,3.7-.09,6.3-.3s5.9-.5,9.9-.9c5.6-.39,10.59-.69,15-.9s8-.3,10.8-.3l13.2.6,31.2,1.8h10.2c7.6.4,11.4-.39,11.4-2.4Q805.25,558.52,787.25,556.71Zm-151.8-162-115.8-.6q-9,0-9-6l1.2-4.8,56.4-118.8q4.8-10.2,10.2-10.2,6.6,0,13.2,12l52.2,116.4q1.8,3.6,1.8,4.8Q645.65,394.71,635.45,394.71Z" transform="translate(-358.65 -145.71)"/><path d="M760.25,535.41c-2-3.39-4-7.1-6-11.1l-153-332.4-6.6-2.4a53.86,53.86,0,0,1,3.9,6q.9,1.8,3.9,9l145.8,316.8q7.8,17.41,18,24Q763.25,540.51,760.25,535.41Z" transform="translate(-358.65 -145.71)"/><path d="M571.85,263.31l-57.6,120.6q-.6.6-.6,3.6,0,3.6,3.6,3.6h.6v-2.4c0,.4.4-1,1.2-4.2l60-126.6A11,11,0,0,0,571.85,263.31Z" transform="translate(-358.65 -145.71)"/><path d="M795.05,568.71a47.54,47.54,0,0,1-4.8-.3q-3-.3-7.8-.9c-1.2-.39-6.4-.6-15.6-.6l-34.2-.6h-15.6a67.68,67.68,0,0,0-7.8.6q-6,.6-10.8.9c-3.2.21-6,.3-8.4.3a48.1,48.1,0,0,1-13.8-1.8c1.59,3.6,4.8,5.4,9.6,5.4h8.4a19.79,19.79,0,0,0,4.8-.6q27-1.8,36.6-1.8h14.4c2.79,0,6.2.21,10.2.6l22.2,1.2a27.81,27.81,0,0,0,5.4.6h8.4c6.8,0,10.59-1.2,11.4-3.6l.6-.6-.6-2.4Q799.23,568.71,795.05,568.71Z" transform="translate(-358.65 -145.71)"/><path d="M488.45,563.31q-4.2,4.2-17.4,4.2c-2.4,0-5.7-.09-9.9-.3l-13.2-.6c-4.6-.2-9-.39-13.2-.6s-7.5-.3-9.9-.3h-7.8a24.51,24.51,0,0,0-6.6.6l-19.2,1.8h-6a39.59,39.59,0,0,1-4.5-.3q-2.7-.3-6.9-.9,3,4.82,13.2,4.8h7.2l7.8-1.2c.8-.39,2.79-.6,6-.6h5.4a30.6,30.6,0,0,0,6-.6h18l18.6,1.8,13.2.6,6.6-.6,8.4-1.2c4-.39,6-1.8,6-4.2C490.25,564.91,489.65,564.12,488.45,563.31Z" transform="translate(-358.65 -145.71)"/><path d="M510.65,414.51c-4.8,0-8.61,1.2-11.4,3.6l2.4,1.2,2.4-1.2h151.8a12.21,12.21,0,0,0-9-3.6Z" transform="translate(-358.65 -145.71)"/></g><path class="cls-1" d="M358.65,145.71v465.6h465.6V145.71Zm7.2,7.8h450.6v450.6H365.85Z" transform="translate(-358.65 -145.71)"/><path class="cls-1" d="M808.25,404.91l-2.4,2.4,2.4,4.2.6,2.4q0,10.21-16.2,10.2l-2.4-.6a12.69,12.69,0,0,0-4.8-.6,1.06,1.06,0,0,0-1.2,1.2c0,2,2.6,3,7.8,3a29.9,29.9,0,0,0,13.2-3.6q7.2-3.6,7.2-9l-.6-1.8Z" transform="translate(-358.65 -145.71)"/><path class="cls-1" d="M793.25,403.11q0,4.2,3.6,4.2,4.8,0,4.8-4.2,0-5.4-3.6-5.4C794.84,397.71,793.25,399.51,793.25,403.11Z" transform="translate(-358.65 -145.71)"/><path class="cls-1" d="M795.05,391.11q0,2.4,3.6,2.4t3.6-2.4q0-3.6-3.6-3.6T795.05,391.11Z" transform="translate(-358.65 -145.71)"/><path class="cls-1" d="M796.85,380.31q0,3.6,2.4,3.6,3.6,0,3.6-3.6a2.65,2.65,0,0,0-3-3C797.84,377.31,796.85,378.31,796.85,380.31Z" transform="translate(-358.65 -145.71)"/><path class="cls-1" d="M801.65,371.31a1.59,1.59,0,0,0,1.8,1.8q1.8,0,1.8-2.4a3.48,3.48,0,0,0-1.2-2.4Q801.65,368.31,801.65,371.31Z" transform="translate(-358.65 -145.71)"/><path class="cls-1" d="M804.05,395.91c0,1.6,1,2.4,3,2.4s3-1,3-3-.8-3-2.4-3Q804.05,392.31,804.05,395.91Z" transform="translate(-358.65 -145.71)"/><path class="cls-1" d="M808.25,374.91q-3,0-3,3.6,0,1.8,2.4,1.8a2.12,2.12,0,0,0,2.4-2.4A3.54,3.54,0,0,0,808.25,374.91Z" transform="translate(-358.65 -145.71)"/><path class="cls-1" d="M810.65,386.31a2.13,2.13,0,0,0-2.4-2.4c-2,0-3,.81-3,2.4q0,1.8,2.4,1.8Q810.65,388.11,810.65,386.31Z" transform="translate(-358.65 -145.71)"/><path class="cls-1" d="M738.65,353.91c.8.81,1.4,1.2,1.8,1.2a1.59,1.59,0,0,0,1.8-1.8q0-1.8-1.2-1.8A2.13,2.13,0,0,0,738.65,353.91Z" transform="translate(-358.65 -145.71)"/><path class="cls-1" d="M749.45,177.51c-4.8,0-7.2,1.41-7.2,4.2a8.12,8.12,0,0,0,2.4,6l9.6,4.8-.6-3c-4.8-3.6-7.2-6.39-7.2-8.4Q746.45,179.31,749.45,177.51Z" transform="translate(-358.65 -145.71)"/><path class="cls-1" d="M743.45,359.91a1.05,1.05,0,0,0,1.2,1.2q1.2,0,1.2-.6l1.8-3.6-3,1.2C743.84,358.92,743.45,359.52,743.45,359.91Z" transform="translate(-358.65 -145.71)"/><path class="cls-1" d="M775.25,414.51c-.8,0-1.2.21-1.2.6l-.6,1.8-.6,1.8h-5.4l-10.2-1.8h-4.8l-3.6,1.8c4.4.81,8.49,1.6,12.3,2.4s7.7,1.6,11.7,2.4l1.2,3.6v2.4l7.8,4.2,3,4.8a8,8,0,0,0,1.8-4.8c0-2.79-1.5-4.8-4.5-6s-4.5-3-4.5-5.4a2.13,2.13,0,0,1,2.4-2.4l4.2-.6c2.79,0,4.2-2.6,4.2-7.8,0-2-1.6-4.59-4.8-7.8v1.2Q784.85,413.91,775.25,414.51Z" transform="translate(-358.65 -145.71)"/><path class="cls-1" d="M752.45,250.11h-1.8q5.4,10.22,9,16.2l2.4.6h2.4q3.6,0,3.6-1.8t-2.4-6l-1.8-4.8-.6-.6v-1.2a23.66,23.66,0,0,1,4.2-2.4l-4.8-4.8a68.79,68.79,0,0,0-7.2,4.2c2,2,3,4,3,6v.6Q756.65,256.11,752.45,250.11Z" transform="translate(-358.65 -145.71)"/><path class="cls-1" d="M799.85,335.91c0-5.6-.81-9.8-2.4-12.6l-4.2-6a27.85,27.85,0,0,1-1.5-4.8c-.6-2.4-1.11-3.6-1.5-3.6q-2.4,0-5.4,8.4l-.6,1.8v.6l1.2,2.4-1.8.6-4.8-.6h-1.2c-3.2-.39-6.3.9-9.3,3.9s-4.5,5.91-4.5,8.7c0,1.2,1,2.8,3,4.8q0-8.4,9-8.4,12.6,0,12.6,15.6,0,24-35.4,57.6l1.2,3Q799.84,370.73,799.85,335.91Z" transform="translate(-358.65 -145.71)"/><path class="cls-1" d="M808.85,443.91c0,4.8-2,7.2-6,7.2-3.21,0-7-1.59-11.4-4.8l-12-9q-8.41-6-25.8-12l3.6,4.2a90,90,0,0,1,15.9,7.5,119.34,119.34,0,0,1,14.1,9.9l13.2,10.8c3.2,2,5.19,3,6,3a8.39,8.39,0,0,0,3.6-.6l-.6-4.2q3-4.8,3-6.6,0-3-3.6-6.6Z" transform="translate(-358.65 -145.71)"/><path class="cls-1" d="M807.65,346.71c-3.2,0-5.61,2.4-7.2,7.2a132,132,0,0,1-45.6,55.8q24.6-7.79,42-41.4,9-16.2,15.6-16.2C811.64,348.51,810.05,346.71,807.65,346.71Z" transform="translate(-358.65 -145.71)"/><path class="cls-1" d="M764.45,192.51a19.71,19.71,0,0,1,5.1,1.5c2.6,1,4.29,1.71,5.1,2.1l-1.2-4.2c-4.41-3.2-7.6-4.8-9.6-4.8-3.21,0-4.8,1.6-4.8,4.8,0,1.2,1,2.8,3,4.8v-1.8A2.13,2.13,0,0,1,764.45,192.51Z" transform="translate(-358.65 -145.71)"/><path class="cls-1" d="M766.85,476.91a5.77,5.77,0,0,0-4.8,3.6h.6C764.65,480.51,766,479.31,766.85,476.91Z" transform="translate(-358.65 -145.71)"/><path class="cls-1" d="M765.05,491.31h.6a4,4,0,0,0,3-1.2c0-1.2-1.6-2.79-4.8-4.8q-1.8,1.8-1.8,3C762.05,489.51,763,490.51,765.05,491.31Z" transform="translate(-358.65 -145.71)"/><path class="cls-1" d="M769.25,271.11c-4.41.81-6.6,1.8-6.6,3,.39,1.6.8,3.21,1.2,4.8Z" transform="translate(-358.65 -145.71)"/><path class="cls-1" d="M765.65,435.51q4.2,4.2,4.2,6l.6,2.4c0,2,1.7,3.9,5.1,5.7a33.06,33.06,0,0,1,6.3,3.9q3,3.6,5.4,6.6a57,57,0,0,1,4.2,6q9,14.4,9,34.8a38.46,38.46,0,0,1-6.3,21.6q-6.3,9.6-14.1,9.6-9,0-11.4-7.8v-1.8q0-3.6,4.2-7.2l6-4.2a5.89,5.89,0,0,0,3-5.4q1.2-6.6-6-6.6.6,0-3,1.2,2.4,1.8,2.4,3.6c0,2.4-1.41,4.41-4.2,6q-8.4,5.4-8.4,12.6a13.29,13.29,0,0,0,2.7,8.7,20.42,20.42,0,0,0,6,5.1,34.23,34.23,0,0,0,8.1,3l-.6,2.4c0,.81.8,1.2,2.4,1.2h7.2q11.38-.58,12.6-12.6c0-4,1-6,3-6q1.8,0,1.8,3.6a8.73,8.73,0,0,1-1.8,5.4l-6.6,10.8-5.4,7.8,9.6,2.4q10.2-22.18,10.2-44.4a83,83,0,0,0-12.9-44.7Q786,444.51,765.65,435.51Z" transform="translate(-358.65 -145.71)"/><path class="cls-1" d="M765.65,446.31l-3,.6q19.8,17.41,19.8,25.2a16,16,0,0,1-2.4,7.8q5.4-2.39,5.4-7.2Q785.45,460.11,765.65,446.31Z" transform="translate(-358.65 -145.71)"/><path class="cls-1" d="M784.25,286.71q-15,0-15,14.4c0,4,2.4,7.41,7.2,10.2a15.12,15.12,0,0,1-2.4-7.2q0-12.6,13.2-12.6,12.6,0,12.6,15.6a34.27,34.27,0,0,1-.3,4.2q-.31,2.4-.9,5.4l.6,1.8c2-6,3-10,3-12Q802.25,286.71,784.25,286.71Z" transform="translate(-358.65 -145.71)"/><path class="cls-1" d="M777.65,481.71h-7.8v.6c0,3.21.8,4.8,2.4,4.8Q775.85,487.11,777.65,481.71Z" transform="translate(-358.65 -145.71)"/><path class="cls-1" d="M771.65,232.11q.58,3.6.9,6.6c.2,2,.3,4,.3,6,0,6-.81,10.6-2.4,13.8l2.4,6q5.4-13.19,5.4-22.2a52.85,52.85,0,0,0-2.4-15.6Z" transform="translate(-358.65 -145.71)"/><path class="cls-1" d="M770.45,493.11a3.4,3.4,0,0,0,2.4,1.2q2.4,0,2.4-1.8a1.59,1.59,0,0,0-1.8-1.8C771.45,490.71,770.45,491.52,770.45,493.11Z" transform="translate(-358.65 -145.71)"/><path class="cls-1" d="M770.45,586.71a7.52,7.52,0,0,0,3.6,6.6,21,21,0,0,1,1.8-5.4l2.4-4.8-1.2-7.8Q770.44,581.93,770.45,586.71Z" transform="translate(-358.65 -145.71)"/><path class="cls-1" d="M774.65,166.71a18.2,18.2,0,0,1,.6-5.4c-2.4,2-3.6,3.6-3.6,4.8,0,2,1.2,4.2,3.6,6.6A21.05,21.05,0,0,1,774.65,166.71Z" transform="translate(-358.65 -145.71)"/><path class="cls-1" d="M779.45,473.31c0-1.59-1-2.4-3-2.4-2.4,0-3.6,1.41-3.6,4.2s.6,4.2,1.8,4.2Q779.45,479.31,779.45,473.31Z" transform="translate(-358.65 -145.71)"/><path class="cls-1" d="M780.05,203.31a7.77,7.77,0,0,0,4.2,7.2l4.8,3c1.2.81,1.8,1.6,1.8,2.4a2.44,2.44,0,0,1-1.8.6h-3q-.6,0-.6,1.2,0,7.8,9,13.2,7.2,4.2,12,15.6c.8,3.21,1.2,4.6,1.2,4.2q0,2.4-1.2,2.4-1.8,0-3.6-6-5.4-15-15-15-3.6,0-4.8,1.2,0,3.6,4.2,5.7c2.79,1.41,4.2,2.5,4.2,3.3-5.61,2.4-8.4,4.8-8.4,7.2.4,1.2,1.59,2.8,3.6,4.8q1.8-3.6,4.8-3.6,15.6,0,15.6,37.2a124.73,124.73,0,0,1-5.4,36,14.89,14.89,0,0,1,1.5,4.8,40.1,40.1,0,0,0,.9,4.8q9-31.18,8.4-46.8l-.6-25.8q0-24-9.6-31.2l-3-1.8a3.44,3.44,0,0,1-1.2-2.4,1.06,1.06,0,0,1,1.2-1.2,7.25,7.25,0,0,1,1.8,1.2l1.2,1.2,3.6,3.6,3,4.8q-3-13.8-9.9-20.1c-4.6-4.2-6.9-6.69-6.9-7.5,0-.39.4-.6,1.2-.6q-1.8,0,8.4,6.6l-3-6.6-4.8-8.4a38.44,38.44,0,0,1-3-15q0-17.4,11.4-17.4,5.4,0,5.4,4.8c0,1.2-1.2,3.21-3.6,6s-3.6,5.2-3.6,7.2q0,7.8,9.6,9.6c-2.8-4-4.2-7.4-4.2-10.2,0-.8,1-3.8,3-9a8.73,8.73,0,0,0,1.8-5.4q0-7.2-9.6-7.2c-3.6,0-6.21.9-7.8,2.7s-3,3.51-4.2,5.1h-2.4c-3.6.81-5.4,4.6-5.4,11.4q0,6.62,3.6,9l3,2.4a2.44,2.44,0,0,1,.6,1.8,1.71,1.71,0,0,1-.6,1.2,15.94,15.94,0,0,1-3-2.1,7.31,7.31,0,0,0-4.8-1.5h-1.8l1.2,4.8Z" transform="translate(-358.65 -145.71)"/><path class="cls-1" d="M780.65,489.51h.6q3.6,0,3.6-2.4a2.13,2.13,0,0,0-2.4-2.4q-3.6,1.21-3.6,3.6l.6.6A1.71,1.71,0,0,0,780.65,489.51Z" transform="translate(-358.65 -145.71)"/><path class="cls-1" d="M793.25,575.91l-10.8.6.6,4.8c.8,2,1.4,3,1.8,3h1.8q1.2-1.2,2.4,1.8,6,7.2,10.8,7.2,3.6,0,7.8-4.2Q795.05,589.11,793.25,575.91Z" transform="translate(-358.65 -145.71)"/><path class="cls-1" d="M754.25,211.71h-.6c-.4,0-.81-.6-1.2-1.8v-3a18.54,18.54,0,0,0-5.4-.6q-5.4,0-10.2,6.6l1.2,1.2a7.49,7.49,0,0,0-1.8,3,4.54,4.54,0,0,0,1.2.9,5.44,5.44,0,0,1,1.2.9,16.76,16.76,0,0,0-3,3.6l1.8-.6a3.54,3.54,0,0,1,3,1.8q0,1.8-4.8,1.8l-1.8,1.8h3.6l3-.6h.6c.8,0,1.2.21,1.2.6q0,3.6-7.2,3.6l-3-.6-1.2,1.2a8,8,0,0,0,4.8,1.8c2.4,0,5.3-1,8.7-3s5.49-3,6.3-3a1.06,1.06,0,0,1,1.2,1.2,2.45,2.45,0,0,1-.6,1.8l-3.6,1.8-5.4,3-6,.6,1.2,1.8q4.8-.58,6.6-.9c.71-.12,1-.2.86-.25.62.09.94.27.94.55q0,3-4.2,3.6l.6,1.2a2.47,2.47,0,0,1,1.8-.6c.8,0,1.4.81,1.8,2.4,4,.81,5.79,1.2,5.4,1.2q3,0,9-3.6t6-6q0-.59-1.8-1.8t-1.8-1.8c0-.39.39-1,1.2-1.8l4.8-1.8q3.6-1.2,6.6-11.4c-6.4-2-10.6-3.39-12.6-4.2a13.83,13.83,0,0,0-4.2-1.2A13.59,13.59,0,0,0,754.25,211.71Z" transform="translate(-358.65 -145.71)"/><path class="cls-1" d="M769.25,574.71l-3,.6-15,4.8-2.4.6q-5.4,0-13.8-6.6l-1.8,3.6.6.6,1.2,2.4,2.4,2.4-.6,3.6a34.5,34.5,0,0,1,6.6-.6h4.8q12.6-1.2,20.4-7.2c1.2-1.2,1.8-2.19,1.8-3A1.06,1.06,0,0,0,769.25,574.71Z" transform="translate(-358.65 -145.71)"/><path class="cls-1" d="M733.85,358.11q0,1.8,2.4,1.8a3.47,3.47,0,0,0,2.4-.6l-3.6-1.2Z" transform="translate(-358.65 -145.71)"/><path class="cls-1" d="M673.85,592.11h-1.2c-3.2-.8-4.8.21-4.8,3,0,2,.6,3,1.8,3l.6-.6,4.2-2.4c.39-.39,1.4-.6,3-.6a41.69,41.69,0,0,1,9.6,1.8,58.38,58.38,0,0,0-7.5-2.7Q676.25,592.71,673.85,592.11Z" transform="translate(-358.65 -145.71)"/><path class="cls-1" d="M678.05,175.11a92.19,92.19,0,0,1,43.8-10.8q26.4,0,55.2,19.8v-5.4q-25.8-18.59-53.4-18.6-31.2,0-48,12.6Z" transform="translate(-358.65 -145.71)"/><path class="cls-1" d="M681.65,215.91a3.46,3.46,0,0,1-2.4-.6h-1.8q-1.8,0-1.8,1.2,0,6.62,6,14.4,8.4,10.22,16.2,10.2c-.4,0,1-.39,4.2-1.2q-4.2-1.8-4.2-3.6a2.47,2.47,0,0,1,1.8-.6c-.4,0,1,.4,4.2,1.2l1.2-.6c-2.4-1.59-3.6-3.6-3.6-6a.53.53,0,0,1,.6-.6c2,0,3.8,1.41,5.4,4.2l1.8-1.2-3.6-3-3-5.4-2.4-2.4-.6-1.2c0-1.59.6-2.4,1.8-2.4.8,0,2.1,1.71,3.9,5.1s5.1,5.7,9.9,6.9a3.46,3.46,0,0,1-.6-2.4c0-1.2.39-1.8,1.2-1.8,1.6,0,2.4,1.41,2.4,4.2h3a2.41,2.41,0,0,1-.6-1.8c0-.39.39-1,1.2-1.8,1.6,0,2.6,1.41,3,4.2q7.78-4.18,7.8-15,0-7.2-3.6-10.8l-5.4-4.2a33.82,33.82,0,0,1-3-3.6,54.2,54.2,0,0,0-4.8-5.4l-3.6,2.4-1.2,2.4c-.8,1.2-1.41,1.8-1.8,1.8a5.75,5.75,0,0,1-2.4-1.5q-1.8-1.48-10.8-2.7a20.35,20.35,0,0,1-13.8-8.4,21.64,21.64,0,0,0-4.2,12.6,23.9,23.9,0,0,0,4.8,14.4q1.2,1.22,1.2,1.8c-.8.81-1.41,1.2-1.8,1.2Z" transform="translate(-358.65 -145.71)"/><path class="cls-1" d="M711.65,354.51h5.4c1.2-.39,1.8-.2,1.8.6a7.24,7.24,0,0,1-.9,2.4,7.32,7.32,0,0,0-.9,2.4c.8.81,1.4,1.2,1.8,1.2q1.2,0,4.8-1.8l14.4-10.2q13.19-9,13.2-40.2a42.83,42.83,0,0,0-2.1-12.3c-1.4-4.59-2.1-7.5-2.1-8.7,0-1.59.4-2.4,1.2-2.4q2.38,0,3.6,5.4l1.8,9a51.62,51.62,0,0,1,1.2,9.6q0,12.6-3,21.6l-4.8,10.8-.6,3.6-1.2,2.4c0,1.2.39,1.8,1.2,1.8l1.8.6,1.8,3.6q.6,2.4,4.8,2.4,2.4,0,2.4-1.8a2.49,2.49,0,0,0-.6-1.8l-2.4-1.8q-1.2-1.2-1.2-4.8a17.85,17.85,0,0,1,2.4-9,76.63,76.63,0,0,0,7.2-33.6q0-32.4-19.8-54-13.82-14.4-22.8-14.4-14.4,0-14.4,14.4,0,7.8,12,19.8,26.4,25.2,26.4,45,0,13.2-7.2,22.5t-18,9.3q-16.8,0-16.8-13.8,0-12,9.6-12h.6c-1.2,0-.21.4,3,1.2h2.4a.53.53,0,0,0,.6-.6q0-4.8-7.2-4.8c-2,0-3.21.21-3.6.6l-1.8,1.8-1.2,1.2c-.4-1.2-.81-2.3-1.2-3.3s-.8-1.89-1.2-2.7q-6.62,6.62-6.6,16.8l.6,1.8,1.2,3,.6,1.8a.53.53,0,0,1-.6.6h-6Q699.65,355.13,711.65,354.51Z" transform="translate(-358.65 -145.71)"/><path class="cls-1" d="M714.05,169.11q-21.6,1.21-21.6,11.4c0,4.41,2,6.6,6,6.6,2.4,0,4.8-1.59,7.2-4.8h-1.2q-4.2,0-4.2-3.6Q700.25,173.91,714.05,169.11Z" transform="translate(-358.65 -145.71)"/><path class="cls-1" d="M703.25,379.71q-.6.6-.6,4.2,0,14.4,12,14.4,5.4,0,13.2-6.6a2.49,2.49,0,0,1,1.8.6q3-4.8,3-6.6a3.47,3.47,0,0,0-.6-2.4l-2.4-3.6a19.06,19.06,0,0,1-1.2-4.8q0-7.79,9-9.6l-6-1.2c-3.2,0-5.4,2-6.6,6-.4,1.6-.81,2.4-1.2,2.4a1.05,1.05,0,0,1-1.2-1.2l.6-1.8c0-.8-.21-1.2-.6-1.2q-3.6,0-3.6,5.4a16.52,16.52,0,0,0,2.1,7.2q2.1,4.2,2.1,6,0,7.2-8.4,7.2-7.8,0-7.8-9a25.71,25.71,0,0,1,2.1-9q2.1-5.4,2.1-7.2c0-2-1.3-4-3.9-6s-4.9-3-6.9-3-4.6,1.6-7.8,4.8a13.82,13.82,0,0,1,5.4-1.8c5.19,0,7.8,2.61,7.8,7.8l-.6,2.4Z" transform="translate(-358.65 -145.71)"/><path class="cls-1" d="M708.65,267.51a14.62,14.62,0,0,0-1.8-3,3.54,3.54,0,0,0-1.8,3v.6l.6,3v.6a3.46,3.46,0,0,1-.6,2.4,5.22,5.22,0,0,0-1.2-.9,4.54,4.54,0,0,1-1.2-.9q-2.4,2.4-2.4,4.2c0,3.21,1.59,5.8,4.8,7.8h3l2.4-1.2,7.2,5.4a20.23,20.23,0,0,0,2.4-9v-1.8a41.58,41.58,0,0,1-6-6v1.2q0,3.6-2.4,3.6Q712.85,276.51,708.65,267.51Z" transform="translate(-358.65 -145.71)"/><path class="cls-1" d="M720.05,421.11q16.2-1.2,21-3t9.6-9l-2.4-.6h-1.8c-1.2,0-1.8-.39-1.8-1.2,0-.39.39-1,1.2-1.8l1.8-1.2q4.2-1.8,9-10.8a3.51,3.51,0,0,0,.6-2.4c0-.39-.6-.6-1.8-.6l-4.2.6a.53.53,0,0,1-.6-.6v-1.8q.58-3,.9-4.8a18.75,18.75,0,0,0,.3-3q0-12-10.2-13.2h-1.2a8.51,8.51,0,0,0-3.6.6q7.2,4.81,7.2,11.4,0,21-37.2,31.8l5.4,10.2Z" transform="translate(-358.65 -145.71)"/><path class="cls-1" d="M721.25,576.51h3.6a24.5,24.5,0,0,0-8.4-1.8q-7.8,0-7.8,5.4,0,10.21,13.8,10.2a9.45,9.45,0,0,0,2.4-.3l3.6-.9q-13.8-1.2-13.8-7.2C714.65,577.51,716.84,575.71,721.25,576.51Z" transform="translate(-358.65 -145.71)"/><path class="cls-1" d="M762.05,439.11l-3.6-4.8q-9-10.8-30-10.8a86.88,86.88,0,0,0-15,1.8l4.2,10.8q14.4,2.4,23.7,11.7t9.3,20.1q0,11.4-9,16.8a12.48,12.48,0,0,0,4.8.6q10.8,0,12-12c0-2.4.39-3.6,1.2-3.6a9.71,9.71,0,0,1,3,1.5,8,8,0,0,0,3.6,1.5,2.13,2.13,0,0,0,2.4-2.4l-.6-2.4-1.8-8.4q-3.6-14.4-15-15a3.51,3.51,0,0,1,2.4-.6c6.8-.8,10.2-1.59,10.2-2.4a4.54,4.54,0,0,1-.9-1.2A4.88,4.88,0,0,0,762.05,439.11Z" transform="translate(-358.65 -145.71)"/><path class="cls-1" d="M715.25,178.11c0,4.41,1.59,6.6,4.8,6.6h4.2q-3-3-3-5.4,0-8.4,10.8-8.4,3,0,7.2.3t9,.9q-10.8-4.19-18-4.2Q715.25,167.91,715.25,178.11Z" transform="translate(-358.65 -145.71)"/><path class="cls-1" d="M735.05,300.51l-.6-3.6q-24,4.81-27,4.8a40.12,40.12,0,0,1-14.4-3,2.35,2.35,0,0,1-1.8-2.4,1.75,1.75,0,0,0,1.2-.6l4.8-3q1.8-.58,1.8-3.6l-1.2-4.8-.6-1.8q-3,9-12,9-30,0-38.4-60.6l-4.2-1.8q8.4,76.81,66,76.8Q717.65,305.91,735.05,300.51Z" transform="translate(-358.65 -145.71)"/><path class="cls-1" d="M671.15,577.41q-18.9-17.1-18.9-44.1,0-19.2,18-31.2l-2.4-.6a19.73,19.73,0,0,1-5.4,3.6l-3.6,3-1.8,1.2,1.2-3,4.2-4.8-3.6,1.8c-.4.4-1.6,1.71-3.6,3.9s-3.21,3.3-3.6,3.3q0-3,4.8-7.5c3.2-3,6.39-4.5,9.6-4.5q11.38,0,12.6,10.8c.8,5.61,2.19,8.4,4.2,8.4.8,0,1.9-.69,3.3-2.1s2.49-2.1,3.3-2.1c.39,0,1,1,1.8,3a9.32,9.32,0,0,0,6.6,7.2,22.51,22.51,0,0,1,2.4-3.9,15,15,0,0,0,1.8-2.7q8.4-10.2,8.4-15.6a12.05,12.05,0,0,0-4.2-9.6,2.35,2.35,0,0,1-1.8-2.4,4,4,0,0,1,1.2-3l2.4-3,.6-5.4h-16.2q-12.6-1.2-18.6,4.8,19.8,1.8,19.8,9a1.06,1.06,0,0,1-1.2,1.2,18,18,0,0,1-7.8-4.8c-2.4-2.4-5-3.2-7.8-2.4a21.57,21.57,0,0,0-15,5.4h5.4c.39-.39,1.4-.6,3-.6s2.4.4,2.4,1.2q0,1.8-3,1.8l-3.6-.6q-8.4,0-14.4,11.1t-6,27.3q0,30.6,20.7,48.9t56.7,18.3q18.6,0,44.4-10.2l.6-4.2q-28.8,10.22-49.2,10.2Q690.05,594.51,671.15,577.41Z" transform="translate(-358.65 -145.71)"/><path class="cls-1" d="M666.65,253.11a3.47,3.47,0,0,0-.6-2.4c-2,2.4-3.4,3.6-4.2,3.6q-8.4,0-10.8-18.6,0,22.2,10.2,22.2C664.85,257.91,666.65,256.32,666.65,253.11Z" transform="translate(-358.65 -145.71)"/><path class="cls-1" d="M673.85,526.11q-3,0-9.6,8.4c-2.8,2.8-4.2,7.41-4.2,13.8q0,28.8,37.8,38.4c-4.8-2-8-3.6-9.6-4.8q-21.6-11.38-21.6-28.8,0-13.18,11.4-13.2c4.8,0,7.2,2.61,7.2,7.8v1.8c3.6-2.79,5.4-5.6,5.4-8.4,0-5.6-2-8.4-6-8.4l-4.8.6h-3c-.81,0-1.2-1-1.2-3v-.6Q675.65,526.11,673.85,526.11Z" transform="translate(-358.65 -145.71)"/><path class="cls-1" d="M672.05,183.51l-.6,1.8,3.6,1.8,1.2-4.8q0-10.2-9.6-9.6h-.6a14.79,14.79,0,0,0-3,1.8Q672.05,181.13,672.05,183.51Z" transform="translate(-358.65 -145.71)"/><path class="cls-1" d="M672.65,165.51q1.8,0,9-1.8h-1.2a25.82,25.82,0,0,1-10.2-1.8,2.49,2.49,0,0,0-1.8-.6.53.53,0,0,0-.6.6Q667.85,165.51,672.65,165.51Z" transform="translate(-358.65 -145.71)"/><path class="cls-1" d="M673.85,262.11q-6,1.8-6,9a10.26,10.26,0,0,0,.6,4.2h13.8a18.2,18.2,0,0,0,5.4-.6,39.23,39.23,0,0,0,2.4,4.2,2.44,2.44,0,0,0,1.8-.6l3-3.6,6-5.4c1.6-1.59,2.6-5.4,3-11.4-1.2.4-2.4.81-3.6,1.2v-.6c0-.8.6-2.19,1.8-4.2v-2.4l-4.2,4.2q-6,6-9.6,6a1.06,1.06,0,0,1-1.2-1.2,3.48,3.48,0,0,1,1.2-2.4l4.2-1.8,6.6-5.4c1.59-1.59,2.4-3,2.4-4.2l-.6-1.8-3,3a6.93,6.93,0,0,1-4.8,2.4c-1.2,0-1.8-.39-1.8-1.2q0-3,6-5.4-9-4.19-15.6-4.2-8.42,0-11.4,10.2l-1.2,6c0,2,.8,3,2.4,3a7.37,7.37,0,0,0,2.7-.6,7.49,7.49,0,0,1,2.7-.6q3,0,3,1.8C679.85,260.11,677.84,260.91,673.85,262.11Z" transform="translate(-358.65 -145.71)"/><path class="cls-1" d="M623.75,474.21q14.7-15.88,44.1-29.1l-7.8-15q-28.8,17.42-41.4,32.4-12.6,14.4-21,44.4c2.4,2.4,4,5.8,4.8,10.2Q609.05,490.11,623.75,474.21Z" transform="translate(-358.65 -145.71)"/><path class="cls-1" d="M622.85,594.51v.6q-1.22,0-7.2-3.3c-4-2.19-7.6-3.3-10.8-3.3l-4.8,1.2a2.46,2.46,0,0,0,.9,1.5q.9.9,5.7,2.7,11.4,5.4,20.4,5.4a41.88,41.88,0,0,0,14.4-2.4q-16.2-7.2-27.6-9Q622.85,589.71,622.85,594.51Z" transform="translate(-358.65 -145.71)"/><path class="cls-1" d="M606.05,185.31c2.79,0,4.2-1,4.2-3,0-2.4-1.41-3.6-4.2-3.6a4.25,4.25,0,0,0-3,4.2C603.05,184.51,604,185.31,606.05,185.31Z" transform="translate(-358.65 -145.71)"/><path class="cls-1" d="M607.85,170.91c2.79,0,4.2-1.2,4.2-3.6s-1.41-3.6-4.2-3.6c-2,0-3,1.2-3,3.6S605.84,170.91,607.85,170.91Z" transform="translate(-358.65 -145.71)"/><path class="cls-1" d="M670.85,458.31c0-.39-.4-.6-1.2-.6h-3l-12-.6q-11.4-.58-31.8,23.4-12,14.4-18,40.2,22.8-55.2,45-55.2c4.4,0,6.6,2.61,6.6,7.8,0,4.41-3,6.6-9,6.6,2,2,3.6,3,4.8,3q5.4,0,9.6-6,1.2-1.2,1.8-1.2l3.6.6q3,0,3-4.2a4.06,4.06,0,0,0-1.8-3.6l-2.4-2.4a1.71,1.71,0,0,1-.6-1.2C669.05,462.51,670.85,460.32,670.85,458.31Z" transform="translate(-358.65 -145.71)"/><path class="cls-1" d="M619.85,344.91c0-.8-.21-1.2-.6-1.2q-9,0-10.2,6.6l-1.2,3.6-1.2,3.6,2.4.6,3-3q.6,0,.6,1.2l-.6,1.2a1.75,1.75,0,0,1,.6,1.2,19.31,19.31,0,0,1,3.6-1.2c1.59-.39,2.4-1,2.4-1.8v-1.8l-2.4-2.4c0-.8.6-1.89,1.8-3.3S619.85,345.72,619.85,344.91Z" transform="translate(-358.65 -145.71)"/><path class="cls-1" d="M609.05,175.11c0,.81,1,1.2,3,1.2a9.1,9.1,0,0,0,7.2-3.6l5.4-6.6c.39-1.59,2.8-2.4,7.2-2.4h1.2q8.4-1.2,8.4,7.8v1.2c-.81,3.6-2.4,5.4-4.8,5.4h-7.2q-3.6,0-6.9,3.6t-3.3,6.6c0,1.2.8,2.61,2.4,4.2.39-5.19,3.2-8.4,8.4-9.6q16.8-3.6,16.8-10.2,0-11.39-14.4-11.4-7.8,0-10.8,3l-4.8,5.4-7.2,3.6A2.44,2.44,0,0,0,609.05,175.11Z" transform="translate(-358.65 -145.71)"/><path class="cls-1" d="M625.85,536.31c0,6,2.79,9,8.4,9a1.59,1.59,0,0,0,1.8-1.8,1.79,1.79,0,0,0-.6-1.2l-3.6-4.2-.6-5.4,3-6.6.6-1.8c0-5.19-2.2-7.8-6.6-7.8q-4.2,0-7.5,4.5t-3.3,8.1v1.2l2.4,10.8-.6,10.8,3.6-7.2-1.2-13.2q0-6.6,4.2-6.6a2.13,2.13,0,0,1,2.4,2.4,20.38,20.38,0,0,1-1.2,3.9A16.3,16.3,0,0,0,625.85,536.31Z" transform="translate(-358.65 -145.71)"/><path class="cls-1" d="M631.25,201.51q-4.82,0-12.6-9v1.8q0,13.81,13.2,13.8h2.4l.6,3q13.18-1.2,15.6-14.4c.39-6,2-9,4.8-9a2.13,2.13,0,0,1,2.4,2.4q0,3-4.2,7.2a44.62,44.62,0,0,1-5.1,13.2q-3.3,5.4-3.3,9a18.81,18.81,0,0,0,1.8,7.2c1.6-1.59,2.79-2.4,3.6-2.4q1.8,1.22,1.8,1.8l.6,5.4q1.2,8.42,12,8.4,9,0,10.2-5.4v-1.8q-1.2.6-3.9,1.8a11.1,11.1,0,0,1-3.9,1.2q-9.6,0-9.6-12,0-5.4,8.4-23.4c2.4-4,3.6-7.2,3.6-9.6q0-12-12-12-6.6,0-12.6,9.6Q637.25,201.51,631.25,201.51Z" transform="translate(-358.65 -145.71)"/><path class="cls-1" d="M646.85,505.11l.6-3.6a42.38,42.38,0,0,0-2.4-13.2l-4.2,1.8-6-4.2h-4.8l-1.8,3.6c-.4.81-2,2.4-4.8,4.8s-4.2,4.8-4.2,7.2c0,2.8,1.59,4.8,4.8,6q1.8-9,7.8-9,9,0,8.4,20.4l-.6,10.2q0,13.82,9,30.6l.6,1.2q-6.62-22.8-6.6-30c0-4,.2-6.6.6-7.8Z" transform="translate(-358.65 -145.71)"/><path class="cls-1" d="M584.45,289.71q3,0,3-2.4,0-3-3.6-3-1.8,0-1.8,3A2.12,2.12,0,0,0,584.45,289.71Z" transform="translate(-358.65 -145.71)"/><path class="cls-1" d="M587.45,173.91c2.4,0,3.6-1,3.6-3,0-2.79-1.2-4.2-3.6-4.2s-3.6,1.2-3.6,3.6S585.05,173.91,587.45,173.91Z" transform="translate(-358.65 -145.71)"/><path class="cls-1" d="M590.45,583.11c-3.6,0-5.4,1.41-5.4,4.2,0,2,1.59,3,4.8,3q5.4,0,5.4-3.6T590.45,583.11Z" transform="translate(-358.65 -145.71)"/><path class="cls-1" d="M585.65,593.91a2.44,2.44,0,0,0-.6,1.8l.6,3,7.2-.6.6-4.8-4.2,1.2Z" transform="translate(-358.65 -145.71)"/><path class="cls-1" d="M595.25,184.71q3.6,0,3.6-2.4c0-2.79-1.6-4.2-4.8-4.2-2,0-3,1-3,3Q591.05,184.71,595.25,184.71Z" transform="translate(-358.65 -145.71)"/><path class="cls-1" d="M597.65,166.71q3,0,3-2.4a2.85,2.85,0,0,0-2.4-3c-3.21,0-4.8.81-4.8,2.4C593.45,165.72,594.85,166.71,597.65,166.71Z" transform="translate(-358.65 -145.71)"/><path class="cls-1" d="M608.45,314.91c0-4-2-6-6-6-2.8,0-5.61,3-8.4,9q5.4-5.4,9-5.4t3.6,3.6c0,.81-1,2.2-3,4.2Q608.45,319.11,608.45,314.91Z" transform="translate(-358.65 -145.71)"/><path class="cls-1" d="M595.25,173.91q0,3.6,3.6,3.6c3.2,0,4.8-1,4.8-3q0-4.8-4.8-4.8C596.45,169.71,595.25,171.12,595.25,173.91Z" transform="translate(-358.65 -145.71)"/><path class="cls-1" d="M600.65,448.11c2.4,2,3.6,3.6,3.6,4.8q0,3.6-5.4,5.4v1.8q9-2.39,9-10.8l-.6-.6q-6-6-6-9,0-10.2,9.6-10.2,10.2,0,10.2,10.8,0,4.81-1.8,7.2l-11.4,18.6-8.4,25.8q4.8-14.4,9-20.4a98.17,98.17,0,0,1,6.6-9.3c2.4-3,4.8-6.09,7.2-9.3q9-11.39,9-20.4c0-2-.6-3.39-1.8-4.2l-1.8-1.8-1.2,1.2-2.4-.6-8.4-3.6-11.4-.6-1.8-.6h-1.8l-1.8,2.4,1.8,1.2-1.8,1.8c-2.4,3.21-3.6,7.6-3.6,13.2Q595.25,444.51,600.65,448.11Z" transform="translate(-358.65 -145.71)"/><path class="cls-1" d="M625.85,361.11l-7.2.6h-14.4a3.53,3.53,0,0,1,.6,2.4q0,2.4-3,2.4h-1.2c1.2.81,1.8,1.6,1.8,2.4q0,1.8-1.2,1.8h-.6l-2.4-.6-2.4,1.2q3,9,9.6,7.8h3.6c2.79-.8,4.4-1.4,4.8-1.8l1.2-1.8-2.4-1.2a2.41,2.41,0,0,1-.6-1.8q3-2.38,6.6-5.4C621.05,365.11,623.45,363.12,625.85,361.11Z" transform="translate(-358.65 -145.71)"/><path class="cls-1" d="M570.65,298.71c.8.81,1.4,1.2,1.8,1.2,1.2,0,1.8-.39,1.8-1.2a1.8,1.8,0,1,0-3.6,0Z" transform="translate(-358.65 -145.71)"/><path class="cls-1" d="M572.45,292.71a1.59,1.59,0,0,0,1.8,1.8c1.59,0,2.4-.39,2.4-1.2a2.13,2.13,0,0,0-2.4-2.4A1.59,1.59,0,0,0,572.45,292.71Z" transform="translate(-358.65 -145.71)"/><path class="cls-1" d="M594.05,500.91q-6-21-9.6-40.2t-6-37.8l-3.6.6q6,43.8,16.2,76.2Z" transform="translate(-358.65 -145.71)"/><path class="cls-1" d="M578.45,286.71c0-1.59-.6-2.4-1.8-2.4-.81.81-1.2,1.41-1.2,1.8,0,1.2.39,1.8,1.2,1.8C577,287.91,577.64,287.52,578.45,286.71Z" transform="translate(-358.65 -145.71)"/><path class="cls-1" d="M576.65,302.91q0,2.4,1.8,2.4c1.59,0,2.4-1,2.4-3,0-1.59-.6-2.4-1.8-2.4Q576.65,299.91,576.65,302.91Z" transform="translate(-358.65 -145.71)"/><path class="cls-1" d="M585.65,298.11c2,.81,3,4.2,3,10.2q0,6-4.8,17.4,7.78,0,7.8-16.2t-8.4-16.2a1.59,1.59,0,0,0-1.8,1.8,2.41,2.41,0,0,0,.6,1.8Z" transform="translate(-358.65 -145.71)"/><path class="cls-1" d="M562.25,222.51a8.39,8.39,0,0,1-3.6.6q-3.6,0-11.4-13.2,2.38,18,10.2,18Q560.45,227.91,562.25,222.51Z" transform="translate(-358.65 -145.71)"/><path class="cls-1" d="M551.39,518.25a1.87,1.87,0,0,0,.66.06A4.76,4.76,0,0,1,551.39,518.25Z" transform="translate(-358.65 -145.71)"/><path class="cls-1" d="M558.65,511.71h-1.2l-5.4,4.2-4.2-.6a5.52,5.52,0,0,0,3.54,2.94q-.42-.29,7.86-1.74l1.8-.6,3,.6C563.25,513.31,561.44,511.71,558.65,511.71Z" transform="translate(-358.65 -145.71)"/><path class="cls-1" d="M604.85,346.11q0-11.39,8.4-18c-3.21-1.2-5.4-1.8-6.6-1.8q-4.2,0-9,8.4-.6,2.4-2.4,2.4a23.67,23.67,0,0,0-1.8-4.8c-.4-1.59-1.6-2.4-3.6-2.4q-7.8,0-7.8,13.8a17.66,17.66,0,0,0,.3,3q.3,1.8.9,4.8l.6,4.2q0,6-4.2,6t-4.2-3.6a16.18,16.18,0,0,1,1.8-6.3,15.88,15.88,0,0,0,1.8-5.7l-.6-1.2-1.8-1.2v-2.4l2.4-4.2a25.08,25.08,0,0,0,1.2-4.2,12.72,12.72,0,0,0-.6-4.8h-2.4l-2.4,1.2-2.4-.6a7.11,7.11,0,0,0-2.1.6,6.88,6.88,0,0,1-2.1.6q-1.8,0-2.4-3.6c-.4-4-2.4-6.6-6-7.8h-4.2c2.79,4,4.2,7.2,4.2,9.6,0,2-.9,5.4-2.7,10.2s-2.7,8.61-2.7,11.4q0,8.42,6.9,14.7a23.61,23.61,0,0,0,16.5,6.3Q604.85,370.71,604.85,346.11Z" transform="translate(-358.65 -145.71)"/><path class="cls-1" d="M594.65,379.11c0-2.79-2-4.8-6-6-.81,2-1.6,3-2.4,3a4.46,4.46,0,0,1-2.1-1.2,4.6,4.6,0,0,0-2.1-1.2,1.75,1.75,0,0,0-.6,1.2l-.6.6-.6,1.2v.6l1.2,3-1.2,1.2a4.54,4.54,0,0,1-.9-1.2,5.44,5.44,0,0,0-.9-1.2l-.6-2.4c-.4-1.59-1.8-2.4-4.2-2.4q0,2.4-1.8,2.4l-.6-.6-2.4-3q-1.22-1.2-1.8-1.2c-3.6,0-5.4,2.61-5.4,7.8,0,4.41,1.8,6.6,5.4,6.6h1.2l1.2-1.2a11.19,11.19,0,0,0,3,2.1l4.2,2.1c.39.4,1.6.6,3.6.6,4,0,6.39-1.59,7.2-4.8l.6-1.8a2.47,2.47,0,0,1,1.8-.6c2,0,3.2.21,3.6.6C594.25,380.11,594.65,378.72,594.65,379.11Z" transform="translate(-358.65 -145.71)"/><path class="cls-1" d="M572.45,305.31c-5.61,0-8.4,2-8.4,6a6.9,6.9,0,0,0,2.4,4.8c.39-4.8,2.4-7.2,6-7.2s5.4,3,5.4,9c0,2.8-.21,4.6-.6,5.4,2.79-1.2,4.2-3.6,4.2-7.2Q581.45,305.31,572.45,305.31Z" transform="translate(-358.65 -145.71)"/><path class="cls-1" d="M568.85,295.11q0-1.8-1.2-1.8a1.59,1.59,0,0,0-1.8,1.8,1.06,1.06,0,0,0,1.2,1.2C568.25,296.31,568.85,295.92,568.85,295.11Z" transform="translate(-358.65 -145.71)"/><path class="cls-1" d="M577.25,521.91q-.6-17.4-8.4-24.9t-28.2-10.5l1.2,4.2,2.4,1.2v1.8l-4.2,6.6a25.36,25.36,0,0,0-1.2,4.2c0,4,2,7.41,6,10.2q-.6-3-.9-4.8a18.41,18.41,0,0,1-.3-2.4q0-9.58,10.8-9.6Q569.44,497.91,577.25,521.91Z" transform="translate(-358.65 -145.71)"/><path class="cls-1" d="M587.45,499.71q.59-11.38-21.6-42.6-10.8-15-10.8-20.4,0-7.2,7.8-7.8,3,0,3.6-.6,0-3.6-4.8-5.4c-.4-.39-1.6-.6-3.6-.6a10.54,10.54,0,0,0-7.8,3c-1.75,1.75-2.58,2.73-2.49,2.95a17.32,17.32,0,0,1-2-1.15,21.49,21.49,0,0,0-2.1-1.2,1.71,1.71,0,0,1-1.2-.6c-1.6,0-2.4,2-2.4,6q0,5.4,13.2,18.6a184.48,184.48,0,0,1,34.2,54Z" transform="translate(-358.65 -145.71)"/><path class="cls-1" d="M575.45,588.51c-2,0-3.2.21-3.6.6l-6.6,3-5.4,1.8,1.2-2.4,3-2.4q-3.6.6-7.5,1.5a40.21,40.21,0,0,0-8.7,3.3l-7.8,3a120.94,120.94,0,0,0,17.4,1.8q9.59,0,21.6-7.2c1.2-.39,1.8-.8,1.8-1.2Q580.85,588.51,575.45,588.51Z" transform="translate(-358.65 -145.71)"/><path class="cls-1" d="M548.45,538.11c2.8,0,5,1.41,6.6,4.2.39.81.9,2,1.5,3.6s1.29,3.81,2.1,6.6a9,9,0,0,0,5.4,7.2v-3l-4.8-6a18.2,18.2,0,0,1-.6-5.4,15.92,15.92,0,0,0-.6-4.8q-1.8-8.4-7.8-8.4-9.6,0-9.6,8.4,0,7.2,5.4,7.2a49.69,49.69,0,0,1-1.2-5.4C544.85,539.52,546.05,538.11,548.45,538.11Z" transform="translate(-358.65 -145.71)"/><path class="cls-1" d="M549.05,352.71q.59,0,1.8,1.8,0-9.58-3.6-16.2l-1.2,1.2-.6,4.2-.6,1.8-1.2.6a3.44,3.44,0,0,0-1.2,2.4c0,2.8,1.59,4.8,4.8,6Q547.85,352.71,549.05,352.71Z" transform="translate(-358.65 -145.71)"/><path class="cls-1" d="M507.05,589.71a22.57,22.57,0,0,0-13.2,4.2,20.36,20.36,0,0,1,10.2-2.4q4.8,0,4.8,3l-.6,2.4c2.4-.39,3.6-1.4,3.6-3C511.85,591.12,510.25,589.71,507.05,589.71Z" transform="translate(-358.65 -145.71)"/><path class="cls-1" d="M536.45,190.71q11.38,16.8,21,16.8,12,0,12-4.2l-1.2-.6v-2.4l4.2-4.2a9.17,9.17,0,0,0,3-6.6l-1.2-4.8q-3.6,11.4-16.2,11.4-9.6,0-17.4-7.2l-14.4-12-27-13.2,21.6,12.6A38.63,38.63,0,0,1,536.45,190.71Z" transform="translate(-358.65 -145.71)"/><path class="cls-1" d="M507.65,254.31q0-1.8-3.6-1.8c-2,0-3,.6-3,1.8,0,1.6,1,2.4,3,2.4Q507.65,256.71,507.65,254.31Z" transform="translate(-358.65 -145.71)"/><path class="cls-1" d="M651.65,575.31c-1.2-.39-1.8-.8-1.8-1.2a6.93,6.93,0,0,1,2.4-4.8l-4.8-3.6a7.5,7.5,0,0,0-5.4-2.4h-6.6l-1.8,1.8a2.44,2.44,0,0,1-1.8.6q-.6,0-.6-1.8a13.82,13.82,0,0,1,1.8-5.4c-3.21-1.2-5.4-1.8-6.6-1.8q-4.8,0-13.2,8.4c-2,2-3.6,3-4.8,3q-4.2,0-4.2-4.2c0-.8,1-2.19,3-4.2q9.59-6,9.6-15l-.6-3-1.2-4.8c-.8-2.4-1.41-3.6-1.8-3.6-1.2,0-2.61,1-4.2,3s-2.8,3-3.6,3q-1.8,0-1.8-2.4c.39-.39.6-1.59.6-3.6v-2.4c.39-1.59-.8-5.19-3.6-10.8l-3.6-8.4-4.8-6-4.8,6-3.6,6.6q-4.2,6-4.2,7.8l-.6,7.8q-1.2,7.2-2.4,7.2-1.8,0-2.4-2.4l-.6-3q-.6-.59-1.8-1.8c-.81-.8-2.2-2-4.2-3.6q-4.81,11.4-4.8,13.8a17.88,17.88,0,0,0,3,9.6l4.2,5.4c1.2,2,1.8,3.4,1.8,4.2q0,4.2-4.8,4.2c-1.6,0-3.21-1.4-4.8-4.2q-7.2-8.4-16.2-8.4a18.85,18.85,0,0,0-7.2,1.8l5.4,9q0,1.8-3,1.8h-5.4q-5.4,0-13.2,7.2a2.84,2.84,0,0,1,2.4,3q0,.6-3.6,4.2t-3.6,7.2c0,2,1.59,4.6,4.8,7.8q1.8-13.8,27.6-13.2h12.6a20.29,20.29,0,0,1,4.8.6q22.8,0,22.2-21.6v-2.4q0-1.8,1.2-1.8c1.59,0,2.4,1.41,2.4,4.2v1.2l-.6,6a18.2,18.2,0,0,0-.6,5.4q0,7.8,31.8,7.8h10.8a69,69,0,0,0,8.4-.6h1.8c6.4,0,9.6,2,9.6,6a10,10,0,0,1-.9,3.9,10,10,0,0,0-.9,2.7q0,2.4,4.2,2.4l.6-.6a2.41,2.41,0,0,1-.6-1.8,4.54,4.54,0,0,0,.9-1.2,4.88,4.88,0,0,1,.9-1.2q3.6-4.19,3.6-7.2Q662.45,578.31,651.65,575.31Z" transform="translate(-358.65 -145.71)"/><path class="cls-1" d="M536.45,172.71l3.6,3.6a12.9,12.9,0,0,0,11.4,3l.6-.6.6.6c0,1.2-.81,2.61-2.4,4.2a17.79,17.79,0,0,0,9,2.4q3.6,0,4.8-1.8l1.2-3a4.67,4.67,0,0,1,4.8-3q7.2,0,7.2,12v.6a39.64,39.64,0,0,0,1.8-11.4q0-15.6-16.8-15.6c-4,0-6.6.21-7.8.6q1.2,1.22,1.2,1.8c0,.81-.21,1.2-.6,1.2q-8.41,1.22-16.2,3c-.81-.39-1.6-.8-2.4-1.2h-.6q-.6,0-1.8,1.2a5.15,5.15,0,0,1,.9,1.2A3.19,3.19,0,0,0,536.45,172.71Z" transform="translate(-358.65 -145.71)"/><path class="cls-1" d="M545.45,358.71l-6.6-1.8-3,1.8,3,3,.6,3.6a5.15,5.15,0,0,0,2.1,2.1c1,.6,1.5,1.11,1.5,1.5a1.06,1.06,0,0,1-1.2,1.2l-2.4,1.8c0,3.6,1.8,5.61,5.4,6h1.8q13.19,0,15-7.8l-1.8.6c-2,0-3-.39-3-1.2a2.44,2.44,0,0,1,.6-1.8l-3.6-1.2h-1.8a1.06,1.06,0,0,1-1.2-1.2,15.54,15.54,0,0,1,4.2-1.8C553,361.11,549.85,359.52,545.45,358.71Z" transform="translate(-358.65 -145.71)"/><path class="cls-1" d="M482.45,258.51c2.4,0,3.6-1,3.6-3a2.13,2.13,0,0,0-2.4-2.4q-3.6,0-3.6,3A2.12,2.12,0,0,0,482.45,258.51Z" transform="translate(-358.65 -145.71)"/><path class="cls-1" d="M495.05,253.11c0-1.59-1.4-2.4-4.2-2.4q-2.4,0-2.4,1.8t4.2,1.8Q495.05,254.91,495.05,253.11Z" transform="translate(-358.65 -145.71)"/><path class="cls-1" d="M457.25,300.51q0,3.6,3.6,3.6c2.8,0,4.2-1,4.2-3,0-2.79-1.4-4.2-4.2-4.2Q457.25,298.13,457.25,300.51Z" transform="translate(-358.65 -145.71)"/><path class="cls-1" d="M465.65,287.31q0-3.6-3.6-3.6c-2,0-3,1-3,3s1.2,3,3.6,3A2.84,2.84,0,0,0,465.65,287.31Z" transform="translate(-358.65 -145.71)"/><path class="cls-1" d="M462.65,265.11h1.2a2.47,2.47,0,0,1,1.8-.6,3.47,3.47,0,0,0,2.4-.6q0-3-4.8-3h-1.8a3.54,3.54,0,0,0-1.8,3C459.65,264.72,460.65,265.11,462.65,265.11Z" transform="translate(-358.65 -145.71)"/><path class="cls-1" d="M463.85,250.11q-.6,0-1.8,1.2v1.8l-1.2,2.4c0,1.2,1,1.8,3,1.8q4.2,0,4.2-3.6T463.85,250.11Z" transform="translate(-358.65 -145.71)"/><path class="cls-1" d="M473.45,296.91c0-3.2-1.41-4.8-4.2-4.8q-3,0-3,3.6,0,3,3.6,3.6Q473.45,299.31,473.45,296.91Z" transform="translate(-358.65 -145.71)"/><path class="cls-1" d="M495.05,320.91c2.79-1.59,5.7-3.39,8.7-5.4s6.09-4.2,9.3-6.6l-22.8,9.6q-23.4,10.22-23.4,21.6c0,3.21.6,4.8,1.8,4.8h.6q3.6,11.4,13.2,11.4c4,0,6.2-.8,6.6-2.4l4.2-9c1.2-2.4,2.79-3.6,4.8-3.6h1.2c-.4-1.59-1.2-2.4-2.4-2.4a7.41,7.41,0,0,0-4.2,1.8l-2.4,2.4-3,4.2a3.47,3.47,0,0,1-2.4.6c-5.6,0-8.4-2.79-8.4-8.4Q476.45,329.93,495.05,320.91Z" transform="translate(-358.65 -145.71)"/><path class="cls-1" d="M468.05,304.71a1.59,1.59,0,0,0,1.8,1.8,4,4,0,0,0,3-1.2c0-1.59-1.2-2.4-3.6-2.4C468.44,303.72,468.05,304.32,468.05,304.71Z" transform="translate(-358.65 -145.71)"/><path class="cls-1" d="M474.65,238.71c0-1.2-.81-2-2.4-2.4-2.4,0-3.6.81-3.6,2.4q0,1.8,3,1.8T474.65,238.71Z" transform="translate(-358.65 -145.71)"/><path class="cls-1" d="M478.25,247.71c0-3.2-1.41-4.8-4.2-4.8s-4.2,1.41-4.2,4.2q0,3.6,4.2,3.6C476.84,250.71,478.25,249.72,478.25,247.71Z" transform="translate(-358.65 -145.71)"/><path class="cls-1" d="M470.45,258.51c0,1.6,1,2.4,3,2.4s3-1,3-3-.8-3-2.4-3Q470.45,254.91,470.45,258.51Z" transform="translate(-358.65 -145.71)"/><path class="cls-1" d="M514.25,457.11q21.6,0,39.9,16.2t26.1,42a38.51,38.51,0,0,1,2.4-4.2,20.17,20.17,0,0,1,2.4-3,178.79,178.79,0,0,0-10.2-24.9A98,98,0,0,0,562,464a86.49,86.49,0,0,0-18-15.6,247.74,247.74,0,0,0-24.9-14.1q-66-32.4-66-53.4a16,16,0,0,1,3.3-10.2c2.19-2.79,3.9-4.2,5.1-4.2.39,0,.6.4.6,1.2l-1.2,1.2c1.59.4,2.4,1,2.4,1.8,0-.39-1.1,0-3.3,1.2s-3.51,2.2-3.9,3l.6,1.2c2.4-.8,3.39-1.2,3-1.2q2.4,0,9,5.4,2.4,2.4,4.2,2.4c.8,0,2.8-1,6-3a21.49,21.49,0,0,0-1.2-2.1,17.25,17.25,0,0,1-1.2-2.1,1.75,1.75,0,0,1,.6-1.2l3-1.2c2-1.2,3-3.39,3-6.6,0-2.79-.8-4.2-2.4-4.2a6.18,6.18,0,0,0-2.4,1.2,7.32,7.32,0,0,1-4.2,1.2h-1.2l-11.4-1.2q-15-.58-15,21l-4.8-1.2h-2.4l-1.8,1.8a21.11,21.11,0,0,1,1.2,3.3c.39,1.41.8,3.1,1.2,5.1q2.38,18.6,20.4,23.4,8.4,1.8,8.4,6.6,0,3.6-3,3.6c-1.2,0-2.8-1-4.8-3s-4-3-6-3q-1.22,0-12.6,4.8l1.8,2.4,3,2.4q1.2,1.21,1.2,1.8,0,1.22-1.8,1.8l-3,1.2q-1.2,1.22-10.8,14.4,10.2,4.2,15.6,4.2a16.37,16.37,0,0,0,6-1.5,16.79,16.79,0,0,1,4.8-1.5,2.13,2.13,0,0,1,2.4,2.4c0,1.6-.2,2.61-.6,3l4.2.6q3,0,10.8-4.2l15.6-7.8a18,18,0,0,1,9-2.4q3,0,3,1.8c0,1.6-2,3-6,4.2l-8.4,2.4q-15.6,4.81-17.4,19.8l4.2.6q1.2,17.42,12,17.4,4.2,0,8.4-4.2-9-2.38-9-10.2Q487.25,457.11,514.25,457.11Z" transform="translate(-358.65 -145.71)"/><path class="cls-1" d="M433.85,232.11q0,3.6,3.6,3.6c2.8,0,4.2-1,4.2-3,0-2.79-1.2-4.2-3.6-4.2Q433.85,227.93,433.85,232.11Z" transform="translate(-358.65 -145.71)"/><path class="cls-1" d="M433.85,339.51l1.2,1.2a4,4,0,0,0,3-1.2l4.8-5.4,5.4-3,21.6-7.8,5.4-2.4Q433.85,329.91,433.85,339.51Z" transform="translate(-358.65 -145.71)"/><path class="cls-1" d="M442.85,347.31c0-2.79-1.2-4.2-3.6-4.2-2,0-3,1.41-3,4.2q0,3.6,3,3.6Q442.85,350.91,442.85,347.31Z" transform="translate(-358.65 -145.71)"/><path class="cls-1" d="M443.45,357.51a7.6,7.6,0,0,0-1.8-3l-2.4,3,1.2,2.4A12.61,12.61,0,0,0,443.45,357.51Z" transform="translate(-358.65 -145.71)"/><path class="cls-1" d="M445.85,233.91c.8.81,1.4,1.2,1.8,1.2,1.6,0,2.4-.39,2.4-1.2a1.59,1.59,0,0,0-1.8-1.8Q445.85,232.11,445.85,233.91Z" transform="translate(-358.65 -145.71)"/><path class="cls-1" d="M448.85,296.31l-.6.6c0,2,.8,3,2.4,3q3,0,3-3.6,0-3-3.6-3A7.45,7.45,0,0,0,448.85,296.31Z" transform="translate(-358.65 -145.71)"/><path class="cls-1" d="M454.85,287.91a2.65,2.65,0,0,0-3-3c-1.2,0-1.8.81-1.8,2.4,0,2,.8,3,2.4,3A2.13,2.13,0,0,0,454.85,287.91Z" transform="translate(-358.65 -145.71)"/><path class="cls-1" d="M460.25,246.51q0-3-4.8-3-4.2,0-4.2,3.6,0,2.4,3.6,2.4h.6Q460.25,248.31,460.25,246.51Z" transform="translate(-358.65 -145.71)"/><path class="cls-1" d="M453.05,268.11c2.4,0,3.6-1,3.6-3a3.54,3.54,0,0,0-1.8-3q-3.6,0-3.6,3.6Q451.25,268.11,453.05,268.11Z" transform="translate(-358.65 -145.71)"/><path class="cls-1" d="M454.25,253.71q-2.4,0-2.4,3a1.59,1.59,0,0,0,1.8,1.8q3,0,3-2.4A2.13,2.13,0,0,0,454.25,253.71Z" transform="translate(-358.65 -145.71)"/><path class="cls-1" d="M454.25,275.31a4.06,4.06,0,0,0-1.8,3.6c0,2.4,1,3.6,3,3.6s3-1,3-3C458.45,276.72,457,275.31,454.25,275.31Z" transform="translate(-358.65 -145.71)"/><path class="cls-1" d="M464.45,238.11c0-2.4-2-3.6-6-3.6-2,0-3,1-3,3,0,2.4,1.59,3.6,4.8,3.6C463,241.11,464.45,240.12,464.45,238.11Z" transform="translate(-358.65 -145.71)"/><path class="cls-1" d="M417.65,523.11c0,1.6.39,2.4,1.2,2.4,1.59,0,2.8-1,3.6-3l.6-1.8q0-3-1.8-3Q417.65,522.52,417.65,523.11Z" transform="translate(-358.65 -145.71)"/><path class="cls-1" d="M426.65,510.51c0-2-.81-3.2-2.4-3.6q-4.2,0-4.2,4.8c0,1.6,1,2.4,3,2.4Q426.65,514.11,426.65,510.51Z" transform="translate(-358.65 -145.71)"/><path class="cls-1" d="M426.65,332.91q-6,0-6,5.4,0,2.4,3.6,2.4,6,0,6-4.2Q430.25,332.91,426.65,332.91Z" transform="translate(-358.65 -145.71)"/><path class="cls-1" d="M428.45,360.51c0-2.4-2-3.6-6-3.6-.8,0-1.2.81-1.2,2.4q0,3.6,3,3.6C427,362.91,428.45,362.11,428.45,360.51Z" transform="translate(-358.65 -145.71)"/><path class="cls-1" d="M424.25,369.51c1.2,0,2.4-1,3.6-3h-6C421.85,368.52,422.65,369.51,424.25,369.51Z" transform="translate(-358.65 -145.71)"/><path class="cls-1" d="M427.85,343.11q-5.4,0-5.4,5.4c0,3.21,1.4,4.8,4.2,4.8,3.6,0,5.4-1.59,5.4-4.8Q432.05,343.11,427.85,343.11Z" transform="translate(-358.65 -145.71)"/><path class="cls-1" d="M501.05,191.31q-1.2-21.6-37.8-21.6-19.22,0-39.6,11.4l4.2.6q18.6-8.4,28.8-8.4,30.6,0,30.6,18,0,6-6,6c-3.21,0-5.6-2-7.2-6l-4.2-6.6c-2-3.6-5.4-5.4-10.2-5.4q-10.22,0-10.2,8.4c0,3.21,1.59,4.8,4.8,4.8l-.6-4.8c0-2.79,2-4.2,6-4.2q7.2,0,10.2,12t13.8,12l1.8-.6,3-1.2a2.45,2.45,0,0,1,1.8-.6,23.86,23.86,0,0,1,3,5.4q5.4-5.4,5.4-9.6c0-1.59-.81-4.8-2.4-9.6a2.49,2.49,0,0,1,1.8-.6C499.65,190.71,500.65,190.92,501.05,191.31Z" transform="translate(-358.65 -145.71)"/><path class="cls-1" d="M436.25,398.91v-2.4q-9-9.58-9-15c0-2.79,2-4.8,6-6l-3-.6q-6,0-6,6.6T436.25,398.91Z" transform="translate(-358.65 -145.71)"/><path class="cls-1" d="M434.45,476.91c.39,0,1-.39,1.8-1.2l.6-.6,4.8-.6q3.6,0,3.6-6v-1.2c-.81-2-1.6-3-2.4-3h-.6l-.6,4.8q0,2.4-4.2,2.4c-4.8,0-7.2-2.79-7.2-8.4a29.61,29.61,0,0,1,1.8-9l-2.4-.6c-3.21,4.41-4.8,7.8-4.8,10.2s1,5.2,3,8.4S432.05,476.91,434.45,476.91Z" transform="translate(-358.65 -145.71)"/><path class="cls-1" d="M426.05,236.31c0,2,.6,3,1.8,3,2,0,3-1,3-3s-.6-3-1.8-3C427,233.31,426.05,234.31,426.05,236.31Z" transform="translate(-358.65 -145.71)"/><path class="cls-1" d="M463.85,581.31c0-2-2.2-4-6.6-6l1.2,3.6q0,9.6-13.2,9.6a71.88,71.88,0,0,1-18.6-2.4,61.65,61.65,0,0,0,19.2,3.6Q463.85,589.71,463.85,581.31Z" transform="translate(-358.65 -145.71)"/><path class="cls-1" d="M432.05,356.31q.58,2.4,1.8,2.4a2.13,2.13,0,0,0,2.4-2.4,3.53,3.53,0,0,0-.6-2.4Z" transform="translate(-358.65 -145.71)"/><path class="cls-1" d="M432.65,362.31q1.8,2.4,2.4,2.4a14.48,14.48,0,0,0,1.8-3Z" transform="translate(-358.65 -145.71)"/><polygon class="cls-1" points="37.4 197.4 41 204.6 38 196.8 37.4 197.4"/><path class="cls-1" d="M396.65,506.91q0,4.2,3.6,4.2t3.6-4.2c0-3.2-1.41-4.8-4.2-4.8A4.68,4.68,0,0,0,396.65,506.91Z" transform="translate(-358.65 -145.71)"/><path class="cls-1" d="M403.85,521.91l-4.8-7.2a3.47,3.47,0,0,1-2.4.6Q397.24,520.71,403.85,521.91Z" transform="translate(-358.65 -145.71)"/><path class="cls-1" d="M402.65,482.91a56.25,56.25,0,0,1,2.1-12,36.21,36.21,0,0,1,4.5-9.3,37.9,37.9,0,0,1,8.4-8.7q5.4-4.19,13.8-10.2l1.8-3q-32.4,19.21-32.4,39A7.38,7.38,0,0,0,402.65,482.91Z" transform="translate(-358.65 -145.71)"/><path class="cls-1" d="M537.05,538.71q.59-.59,7.2-10.8h-3l-2.4,1.2a1.75,1.75,0,0,1-1.2.6q-1.8-.59-1.8-1.8c.4-1.2,1-3.39,1.8-6.6q.58-.59-2.4-15a18.61,18.61,0,0,0-.3-2.4c-.2-1.2-.51-2.79-.9-4.8l-.6-4.2c0-1.59-.2-2.4-.6-2.4a3.44,3.44,0,0,0-2.4,1.2l-1.2,1.8h-.6q-3.6-5.4-7.8-11.4-2.4-4.19-4.5-8.1c-1.41-2.6-2.91-5.49-4.5-8.7q-12,13.81-12,22.8a21.93,21.93,0,0,0,1.5,7.2,23,23,0,0,1,1.5,5.4.53.53,0,0,1-.6.6,32.58,32.58,0,0,1-6-1.8c-.4,2-.7,3.6-.9,4.8a18.61,18.61,0,0,0-.3,2.4q0,4.82,12,18.6,8.4,8.41,8.4,12.6,0,2.4-1.8,2.4h-1.8q-2.4-.59-2.4-1.8l-3.6-7.8-8.4-10.2q-8.42-12-16.8-10.8h-3q3,4.81,3,5.4h-.6a26.55,26.55,0,0,0-5.7,1.5q-4.5,1.5-14.1,9.3a25.19,25.19,0,0,1,7.8,7.5q3.6,5.1,6.6,4.5h3c.39,0,.6.4.6,1.2a18.41,18.41,0,0,1-.3,2.4c-.2,1.2-.51,2.8-.9,4.8q3-.59,5.4-.9a31.66,31.66,0,0,1,3.6-.3q14.4,0,14.4,15.6a19.59,19.59,0,0,1-4.2,11.7,39.35,39.35,0,0,1-10.8,9.9,63.68,63.68,0,0,1-15.3,6.9,59.39,59.39,0,0,1-17.7,2.7q-19.8,0-35.4-8.4a45.13,45.13,0,0,1-7.2-1.8c-2.4-.8-5-1.59-7.8-2.4l-1.2,6c1.2,1.2,2.6,3.81,4.2,7.8,1.6-1.59,2.4-3,2.4-4.2l-.6-4.2a1.06,1.06,0,0,1,1.2-1.2,2.49,2.49,0,0,1,1.8.6,73.16,73.16,0,0,0,42,12.6q30.6,0,52.8-14.1t30-38.1Q537.05,541.11,537.05,538.71Z" transform="translate(-358.65 -145.71)"/><path class="cls-1" d="M415.85,581.91c.4-1.2,1-1.8,1.8-1.8,2,0,3.2.21,3.6.6l1.8.6q5.4,0,7.8-4.2h-6.6l-7.2-2.4c-.4-.39-2-.6-4.8-.6a42.06,42.06,0,0,0-4.5.3q-2.7.32-6.9.9Q408.64,581.31,415.85,581.91Z" transform="translate(-358.65 -145.71)"/><polygon class="cls-1" points="53 303.6 44.6 297.6 42.8 298.8 51.2 305.4 53 303.6"/><path class="cls-1" d="M421.25,179.31q24-13.19,45.6-13.2,29.38,0,55.8,26.4-3.6-7.78-3.6-7.2v-1.2l3,1.2,3.6,3.6q9.58,11.4,9.6,20.4,0,9.6-4.8,14.4c-4.8,5.61-7.41,8.7-7.8,9.3s-1.6.9-3.6.9c-1.2,0-1.8-.39-1.8-1.2,0-1.2,1.59-2.79,4.8-4.8q10.2-5.4,10.2-17.4a24.57,24.57,0,0,0-.6-6.6c-.81,6-2.4,9-4.8,9a1.71,1.71,0,0,1-.6-1.2l.6-1.8,2.4-6.6a3.46,3.46,0,0,0,.6-2.4c0-3.2-2-6.8-6-10.8.4,2,.69,3.6.9,4.8a18.61,18.61,0,0,1,.3,2.4q0,16.8-10.8,17.4l-9,1.2q-3,0-8.7,2.7c-3.8,1.8-5.7,3.51-5.7,5.1q0,.6,2.4,1.5c1.59.6,2.4,1.3,2.4,2.1,0,.4-1.4,1.41-4.2,3q-7.2,4.2-7.8,11.4v3a1.75,1.75,0,0,0-.6,1.2,2.45,2.45,0,0,1-.6,1.8,24.51,24.51,0,0,1,6.6-.6h3l4.2,1.2,10.8,1.2,3-1.2,1.8-.6c1.2,0,1.8.81,1.8,2.4a7.38,7.38,0,0,1-1.8,4.2h3.6q9,.6,16.8-10.8c2-3.6,3.2-5.79,3.6-6.6l1.8-4.8q1.2-3,2.4-3c1.6,0,2.4,1.41,2.4,4.2q0,5.4-7.2,24,6-4.8,9-13.8.6-1.8,1.2-1.8a2.49,2.49,0,0,1,.6,1.8q0,8.42-6.9,14.7a22.88,22.88,0,0,1-15.9,6.3,37.75,37.75,0,0,1-12-1.8l-7.8-3-8.4-.6-6,1.2-2.4,1.2-1.8,1.8a2.41,2.41,0,0,0,.6,1.8l1.8,1.2.6.6q0,1.8-3,1.8a54.58,54.58,0,0,1-8.4-.9,53.94,53.94,0,0,0-7.8-.9c-3.21,0-7,1.6-11.4,4.8a19.74,19.74,0,0,1,7.2,7.8q6.6,10.22,14.4,12c1.48,0,2.27.18,2.38.52a14.1,14.1,0,0,0-1.18,3.08l-2.4,3.6a2.44,2.44,0,0,0-.6,1.8c0,2,1.6,3,4.8,3h8.4l6,.6c1.59,0,4.8-1,9.6-3l4.8-1.2a3.53,3.53,0,0,1,2.4.6q0,3-7.2,5.4-17.4,5.4-25.8,5.4a58,58,0,0,1-31.8-9.6,17.1,17.1,0,0,0,8.4,8.4c1.6,1.2,2.4,2,2.4,2.4s-.4.6-1.2.6c-2,0-4-1-6-3q-9-7.78-9-13.2c0-2,.9-5.19,2.7-9.6s2.7-7.4,2.7-9a10.51,10.51,0,0,0-.6-4.2q-3.6,0-3.6-2.4c0-1.2.7-2.79,2.1-4.8s2.1-3.6,2.1-4.8l-.6-6.6q0-4.8,3.6-17.4-15.62,1.21-21.6,7.8c-2,2-3.21,3-3.6,3-1.6,0-2.4-1-2.4-3l.6-2.4h-3q-7.2,1.8-7.2,15a23.6,23.6,0,0,0,2.1,8.7c1.4,3.4,2.1,5.91,2.1,7.5q0,3.6-3,3.6-6,0-6-14.4,0-19.2,21.6-38.4c-.4-.39-1.41-.6-3-.6q-6,0-12,10.8c-2,3.21-3.6,4.8-4.8,4.8q-.6,0-.6-1.8c0-1.59,1-3.39,3-5.4q-11.4,3.6-11.4,22.2,0,10.22,7.2,23.4,4.19,8.41,7.2,10.8l12,11.4-2.4-8.4q-.6-1.8-.6-9,0-19.8,5.4-19.8a3.47,3.47,0,0,1,.6,2.4v2.4l-2.4,7.8q-.6,1.22-.6,5.4,0,10.8,6.6,22.8l6,5.4-4.8-7.8-.6-4.2-.6-4.2q0-3.6,1.8-3.6l1.2,3.6q2.4,23.4,34.8,23.4,43.2,0,64.8-42.6l-7.2,5.4c-4.8,3.21-8.61,5-11.4,5.4l-17.4,1.2q-4.2,0-4.2-2.4,0-1.8,5.4-1.8h4.8q24,.6,37.8-24a67.82,67.82,0,0,0,2.4-17.4q0-33.6-22.8-56.4t-57.6-22.8a86.54,86.54,0,0,0-48,14.4A3.54,3.54,0,0,1,421.25,179.31Z" transform="translate(-358.65 -145.71)"/><path class="cls-1" d="M407.45,422.91c-2,0-3,.6-3,1.8l-.6,3.6-1.2,1.2q.59,4.2,9,4.2h3c.8-.39,2.3-1.1,4.5-2.1s5.1-2.3,8.7-3.9a20.74,20.74,0,0,1,3.3-1.2,49.21,49.21,0,0,0,5.1-1.8h-3l-17.4,5.4h-1.8q-6,0-6-4.2a4,4,0,0,1,1.2-3Z" transform="translate(-358.65 -145.71)"/><path class="cls-1" d="M409.85,503.91q1.2,0,1.2-2.4c0-2.79-2.4-4.8-7.2-6C404.65,501.12,406.65,503.91,409.85,503.91Z" transform="translate(-358.65 -145.71)"/><path class="cls-1" d="M410.45,529.71h.6c2.4-.39,3.6-1.2,3.6-2.4a7.42,7.42,0,0,1-1.8-3h-4.2q-3,0-3,1.2Q405.65,529.71,410.45,529.71Z" transform="translate(-358.65 -145.71)"/><path class="cls-1" d="M416.45,515.31c0-4.8-1.41-7.2-4.2-7.2q-5.4,0-5.4,6.6c0,4.41,1.59,6.6,4.8,6.6S416.45,519.31,416.45,515.31Z" transform="translate(-358.65 -145.71)"/><path class="cls-1" d="M411.65,164.91q3.6,0,3.6,3a3.47,3.47,0,0,0-.6,2.4l-.6,1.2-4.8,6.6q10.2-6.6,10.2-11.4c0-3.6-2-5.4-6-5.4q-3.6,0-4.8,4.8C411.05,165.31,412,164.91,411.65,164.91Z" transform="translate(-358.65 -145.71)"/><path class="cls-1" d="M414.05,224.31c-3.6,2-5.4,4-5.4,6,0,.81.2,1.2.6,1.2a5.39,5.39,0,0,0,3.6-3,29.4,29.4,0,0,1,18.6-6.6,23.18,23.18,0,0,1,12,3.6q6,3.6,7.2,3.6l5.4.6h1.2l.6-1.2a1.77,1.77,0,0,1,1.2-.6q.58,0,6.3,3a23.64,23.64,0,0,0,11.1,3c.8,0,3.39-1.2,7.8-3.6-.81-.8-1.8-1.89-3-3.3s-2.6-3.09-4.2-5.1l-2.4-8.4a8,8,0,0,0-3.6-3.6c-3.21-.8-4.8-1.8-4.8-3a2.44,2.44,0,0,1,.6-1.8l1.8-.6a1.75,1.75,0,0,0,.6-1.2l-1.2-.6q-1.8-1.2-7.8-1.8-5.4-1.2-13.2.6-1.8.6-7.8,1.8,1.2,1.22,1.2,1.8c0,.81-.6,1.2-1.8,1.2h-5.4c-2.8-.39-6.21,1.41-10.2,5.4a52.89,52.89,0,0,1,12.6-1.8q13.8,0,13.8,3c-.8,1.2-1.41,1.8-1.8,1.8a64.69,64.69,0,0,1-9.6-1.8h-2.4q-15,0-21,7.8c3.2-1.59,5.79-2.4,7.8-2.4,1.2,0,1.8.21,1.8.6-.81.81-1.41,1.2-1.8,1.2Z" transform="translate(-358.65 -145.71)"/><path class="cls-1" d="M442.25,431.91l-3.6-3.6a133.52,133.52,0,0,0-29.4,13.2l4.8,3.6A261.28,261.28,0,0,1,442.25,431.91Z" transform="translate(-358.65 -145.71)"/><path class="cls-1" d="M412.85,363.51v1.2c.8,2,1.8,3,3,3,1.59,0,2.4-1.2,2.4-3.6v-1.2c-.81-2-1.8-3-3-3Q412.85,359.91,412.85,363.51Z" transform="translate(-358.65 -145.71)"/><path class="cls-1" d="M421.85,500.91q0-3.6-1.2-3.6l-6-1.2,1.2,5.4v4.8l.6.6Q421.85,506.91,421.85,500.91Z" transform="translate(-358.65 -145.71)"/><path class="cls-1" d="M417.05,355.11q2.4,0,2.4-1.8a2.65,2.65,0,0,0-3-3q-1.2,0-1.2,3A1.59,1.59,0,0,0,417.05,355.11Z" transform="translate(-358.65 -145.71)"/><path class="cls-1" d="M417.65,346.11q2.4,0,2.4-1.8c0-1.59-.6-2.4-1.8-2.4a2.13,2.13,0,0,0-2.4,2.4A1.59,1.59,0,0,0,417.65,346.11Z" transform="translate(-358.65 -145.71)"/><polygon class="cls-1" points="23.6 316.2 25.4 315 24.8 312 22.4 312 23.6 316.2"/><path class="cls-1" d="M390.05,372.51q-6.6,0-6.6,7.2a7.52,7.52,0,0,0,3.6,6.6c.39-5.19,2.79-7.8,7.2-7.8q4.8,0,12.3,9t25.5,25.2l6.6,3.6q-15-11.38-34.8-36.6Q395.45,372.51,390.05,372.51Z" transform="translate(-358.65 -145.71)"/><path class="cls-1" d="M390.65,332.91v-5.4q-.6-18.58,11.4-18.6c3.2,0,6.2,2,9,6q3-1.2,3-3.6a10.29,10.29,0,0,0-1.8-4.8l-5.4-4.8,1.2-3.6-6.6-1.8-6,4.2h-2.4l-.6-1.8-1.2-.6q-5.4,0-5.4,15,0,7.8,4.2,19.8Z" transform="translate(-358.65 -145.71)"/><polygon class="cls-1" points="35 292.8 28.4 291 27.8 293.4 33.8 294 35 292.8"/><path class="cls-1" d="M449.45,415.71a293.55,293.55,0,0,1-57-70.8l-3.6,2.4q7.78,13.81,13.5,23.1a104.82,104.82,0,0,0,10.5,14.7,148.54,148.54,0,0,0,12.9,13.8q8.1,7.8,19.5,18Z" transform="translate(-358.65 -145.71)"/><path class="cls-1" d="M397.85,445.11a21.4,21.4,0,0,0,2.4-9.6q0-6.6-6-6.6c-2,0-3.81,1.41-5.4,4.2h1.8a2.47,2.47,0,0,1,1.8-.6,1.75,1.75,0,0,0,1.2-.6c2.79,0,4.2,1.8,4.2,5.4,0,1.6-.81,3.81-2.4,6.6Z" transform="translate(-358.65 -145.71)"/><path class="cls-1" d="M394.25,448.71a21.27,21.27,0,0,1-3.6-4.2c-.81.81-1.2,1.41-1.2,1.8,0,1.2.8,2.61,2.4,4.2Z" transform="translate(-358.65 -145.71)"/><path class="cls-1" d="M441.65,421.11q-13.81-3-26.1-6a217.08,217.08,0,0,1-23.7-7.2l-.6,3.6q12.6,3.6,25.2,6T441.65,421.11Z" transform="translate(-358.65 -145.71)"/><path class="cls-1" d="M393.65,478.71l-1.2,3q9.58,9.6,18,9.6,14.4,0,14.4-15c0-1.59-.2-2.6-.6-3l-6-15-2.4,1.8q5.4,10.8,5.4,16.2,0,13.2-12,13.2Q402.64,489.51,393.65,478.71Z" transform="translate(-358.65 -145.71)"/><path class="cls-1" d="M387.05,577.11q-1.2,10.8-9.6,20.4h3.6q6,1.22,7.2-5.4l.6-6q0-1.8,2.4-1.8c1.59,0,2.4,1.2,2.4,3.6v.6a6.2,6.2,0,0,0,3.6-6,21.48,21.48,0,0,0-.6-6Z" transform="translate(-358.65 -145.71)"/><path class="cls-1" d="M394.25,385.11q-15.62,35.42-15,49.8v10.8l3,.6v-6.6q-.6-21.6,16.2-54.6Z" transform="translate(-358.65 -145.71)"/><path class="cls-1" d="M380.45,268.11l3.6-13.2c1.6-4,4.4-6,8.4-6l3.6,1.2v-.6q0-6.6-5.4-6.6-7.2,0-8.4,12Z" transform="translate(-358.65 -145.71)"/><path class="cls-1" d="M380.45,276.51c0,3.21.8,4.8,2.4,4.8q1.2,0,1.2-.6v-3q0-3,4.8-3,6,0,14.4,9l13.8,16.2q7.8,10.21,28.8,15a151.94,151.94,0,0,1-15.9-8.4,52.6,52.6,0,0,1-6.9-4.8l-20.4-26.4q-6.6-9-13.2-9c-2,0-3,1-3,3v1.8q-4.8.6-6,4.2Z" transform="translate(-358.65 -145.71)"/><path class="cls-1" d="M376.85,186.51q.6.6.6,3.6a4.24,4.24,0,0,1-3,4.2q.58,1.8,1.8,1.8c3.2,0,5.19-2.19,6-6.6v-1.8c0-1.59-1-3.8-3-6.6s-3-5.4-3-7.8c0-5.19,2.6-7.8,7.8-7.8q8.4,0,8.4,11.4,0,5.4-6.6,17.4-8.4,13.81-8.4,21,0,12,10.2,12,9,0,15-11.4,13.8-22.8,22.8-22.8c3.6,0,6.39,2.2,8.4,6.6,2.8-1.2,4.2-2.79,4.2-4.8q0-9.58-12.6-9.6c-2,0-3.2.21-3.6.6l-2.4,1.2h-.6q-1.8,0-1.8-2.4v-2.4q-10.2,1.22-10.8,5.4l-2.4,6a15.58,15.58,0,0,0-2.4,3.3,21.89,21.89,0,0,1-3.6,4.5c0,1.6-1.41,4.41-4.2,8.4a3.44,3.44,0,0,1-2.4,1.2q-1.8,0-1.8-2.4c0-.8.6-2.19,1.8-4.2l3.6-6,6.6-7.8c2-3.2,3-7.59,3-13.2a18.86,18.86,0,0,0-.3-3c-.21-1.2-.5-2.79-.9-4.8-2,2-3.4,3-4.2,3a13.62,13.62,0,0,1-1.8-3q-3.6-9-13.2-9-12.6,0-12.6,13.2c0,3.6.8,6.21,2.4,7.8Z" transform="translate(-358.65 -145.71)"/><path class="cls-1" d="M381.05,331.11v2.4q-8.42,0-7.2,3v1.8a5.19,5.19,0,0,1,3.6-1.8,10.26,10.26,0,0,1,4.8,1.8l4.2-2.4.6-2.4q0-10.8-8.4-33l-.6-42.6,4.2-18.6-6-1.8q-2.4,13.2-3.6,23.1a146.76,146.76,0,0,0-1.2,17.7q0,14.4,6,34.8Q381.05,323.91,381.05,331.11Z" transform="translate(-358.65 -145.71)"/><path class="cls-1" d="M380.45,347.31q-8.42,12.6-8.4,30a45,45,0,0,0,8.4,26.4l2.4-1.8a39.68,39.68,0,0,1-9-25.2,49.53,49.53,0,0,1,7.8-27.6q7.78-12,18.6-12,9,0,9,9,0,5.4-3,17.4h1.8a37.38,37.38,0,0,0,4.2-16.8q0-12-11.4-12Q388.83,334.71,380.45,347.31Z" transform="translate(-358.65 -145.71)"/><path class="cls-1" d="M381.65,452.91l4.8-.6v-1.2c-8-.8-12-2.4-12-4.8l1.2-4.8-1.2-2.4a8.14,8.14,0,0,0-2.4,6Q372.05,452.91,381.65,452.91Z" transform="translate(-358.65 -145.71)"/><path class="cls-1" d="M400.85,544.71q.6-3.6-1.2-5.1t-3.6-2.7v-1.2a1.59,1.59,0,0,1,1.8-1.8l2.4.6c.4-2.4.2-4-.6-4.8l-3.6-3.6.6-1.2-3-.6-4.8-5.4-4.8-18.6q-.6-.58-.6-3.6,0-19.8,22.2-43.8l-6-3q-10.22,8.41-13.2,14.4-4.2,9.6-11.4,9.6h-1.8v3.6l1.8.6,1.8-1.2,2.4,1.8-3.6,10.2-3,21.6,1.2,16.8,1.8-.6c.8,0,2.19,4.2,4.2,12.6a22.68,22.68,0,0,0,1.8,4.8q1.2,2.4,2.4,5.4c1.6-1.59,3-2.4,4.2-2.4h.6l3.6,1.2,6-.6h2.4Z" transform="translate(-358.65 -145.71)"/><path class="cls-1" d="M388.25,232.71q0-.59-7.2-3.6a9.17,9.17,0,0,1-5.4-3.6c-.4.4-.6,1.41-.6,3q0,6,10.8,6C387.44,234.51,388.25,233.91,388.25,232.71Z" transform="translate(-358.65 -145.71)"/></svg>