<svg id="Layer_1" data-name="Layer 1" xmlns="http://www.w3.org/2000/svg" viewBox="0 0 465.6 465.6"><defs><style>.cls-1{fill:#c1272d;}</style></defs><path class="cls-1" d="M584.17,464.31q-1.8-7.2-4.2-7.8l-4.2-2.4-.6,1.8v1.8c0,1.6.2,2.61.6,3l3.6,6.6,9,7.2-2.4-5.4Z" transform="translate(-342.57 -296.51)"/><path class="cls-1" d="M632.17,310.11q-3.6,0-3.6,3v3l4.8,3q1.8,0,4.2-4.2Q634.57,310.11,632.17,310.11Z" transform="translate(-342.57 -296.51)"/><path class="cls-1" d="M424.57,436.11q-6.6-5.4-10.8-5.4h-3a15.92,15.92,0,0,0-4.8.6,6.9,6.9,0,0,0,2.4-4.8,1.59,1.59,0,0,0-1.8-1.8l-3,.6-9.6,1.2-4.2,3.6-3.6,3.6-4.2,6-2.4,6-3.6,6.6q-1.8,3.6-4.2,3.6-4.8,0-4.8-6a1.75,1.75,0,0,1,.6-1.2q21.6-16.2,21.6-32.4,0-3.6-.6-4.2l-1.8-4.8-4.2,6-1.2.6q-2.4,0-2.4-1.8,0-2.39,3.6-7.2c1.2-1.59,1.8-4.8,1.8-9.6q0-21-20.4-23.4-10.2,6.61-10.2,13.2,0,6,1.8,7.8l7.8,8.4,2.4,5.4a15.12,15.12,0,0,0,2.4-7.2v-1.2a35.08,35.08,0,0,0-3.6-3c-1.6-1.2-3.8-2.79-6.6-4.8a2.41,2.41,0,0,1-.6-1.8q0-7.2,6-7.2c1.6,0,3.8.81,6.6,2.4,3.2,5.2,4.6,9.21,4.2,12v4.2a44.6,44.6,0,0,1-7.2,17.4l-4.8,7.2a31.12,31.12,0,0,0-5.4,15q-.6.6-.6,5.4.6,21.6,14.4,21.6a21.3,21.3,0,0,0,9.6-2.4q19.2-24.6,32.4-24.6,9,0,9,7.2l-.6.6-4.8,5.4,4.8,1.2h.6q7.2,0,7.2-9.6A10.79,10.79,0,0,0,424.57,436.11Z" transform="translate(-342.57 -296.51)"/><path class="cls-1" d="M399.37,601.71q-8.4,0-16.8,10.2-6.6,8.42-8.4,9l-2.4,1.2q-3,1.8-7.2,10.8l-4.8,9a49.68,49.68,0,0,0-6,23.4v2.4c.4,2,.8,4.9,1.2,8.7s.8,8.5,1.2,14.1l.6,1.2q6-.59,6-3.6l-3-13.2v-6q0-18.58,10.5-36.6t24.9-24c4-1.59,6-3.2,6-4.8A1.59,1.59,0,0,0,399.37,601.71Z" transform="translate(-342.57 -296.51)"/><path class="cls-1" d="M364,318.51c.4,0-1-.39-4.2-1.2l-1.8-6.6q-3.6,3.6-3.6,6.6c0,3.21,2.6,4.8,7.8,4.8a6.27,6.27,0,0,0,4.5-2.1q2.1-2.1,2.7-2.1,3.6-.59,3.6-1.8l-.6-1.2Q367,318.51,364,318.51Z" transform="translate(-342.57 -296.51)"/><path class="cls-1" d="M401.17,568.11q-15.6-4.8-28.2-26.4-12-22.8-12-45a75.71,75.71,0,0,1,1.8-13.2,10.26,10.26,0,0,0,.6-4.2c0-2-2.2-3.39-6.6-4.2l-1.2,6c-.4,3.21-.7,6-.9,8.4s-.3,4.41-.3,6v3q.6,2.4,1.2,6.3c.4,2.61.8,5.5,1.2,8.7q3,18,14.4,36.6l4.8,6c2,2,4,3.9,6,5.7a20.45,20.45,0,0,0,6,3.9l10.8,6.6,4.5,3a24.33,24.33,0,0,0,4.5,1.8l3-4.8Q410.77,570.51,401.17,568.11Z" transform="translate(-342.57 -296.51)"/><path class="cls-1" d="M356.17,568.11h-.6l-.6.6a1.75,1.75,0,0,0-.6,1.2q0,.6,1.2,1.8l1.2.6a1.59,1.59,0,0,0,1.8-1.8A2.13,2.13,0,0,0,356.17,568.11Z" transform="translate(-342.57 -296.51)"/><path class="cls-1" d="M356.17,578.91c-1.2.81-1.8,1.6-1.8,2.4a3.46,3.46,0,0,0,.6,2.4q2.4-.59,2.4-1.8Q357.37,582.51,356.17,578.91Z" transform="translate(-342.57 -296.51)"/><path class="cls-1" d="M401.77,596.91l-4.2,1.8-9,3-12,6.6a16.8,16.8,0,0,1-8.4,2.4q-6,0-9.6-9-4.2,2.4-4.2,6,0,8.41,12.6,8.4,6,0,8.4-2.4l18-12,9-3.6Q402.37,596.91,401.77,596.91Z" transform="translate(-342.57 -296.51)"/><path class="cls-1" d="M402.37,577.71a9.63,9.63,0,0,1-5.4-2.4l-8.4-6.6-10.2-6.6-9-9.6a9,9,0,0,0-6.6-2.4q-5.4,0-7.8,7.2a18.89,18.89,0,0,1,7.2-1.8,5.76,5.76,0,0,1,4.2,1.8l12,9,9.6,6,3,3c1.6,1.6,4.8,3.21,9.6,4.8l6,1.8A4.69,4.69,0,0,0,402.37,577.71Z" transform="translate(-342.57 -296.51)"/><path class="cls-1" d="M358.57,590.91h-1.2l-1.8.6v3.6a3.47,3.47,0,0,0,2.4.6,2.12,2.12,0,0,0,2.4-2.4C360.37,592.51,359.77,591.72,358.57,590.91Z" transform="translate(-342.57 -296.51)"/><path class="cls-1" d="M362.77,466.71l-5.4-6.6q-1.2,6-1.2,5.4,0,8.42,10.2,8.4c1.2,0,3.4-1.59,6.6-4.8l-7.8-1.2Z" transform="translate(-342.57 -296.51)"/><path class="cls-1" d="M364,694.11l-7.8,7.8q6-5.4,9.6-5.4l4.2.6-.6-1.8Z" transform="translate(-342.57 -296.51)"/><path class="cls-1" d="M411.37,732.51q-11.4,0-19.2-9.6L376,703.11c-1.6-2.79-4.6-4.2-9-4.2q-10.2,0-10.2,10.8a21.05,21.05,0,0,0,.6,6l4.8,22.8q0,2.4-4.8,7.2a14.55,14.55,0,0,0,9,4.2q6-4.18,6-7.2,0-4.19-.6-5.4a2.49,2.49,0,0,1,1.8-.6q1.2,0,4.2,1.8v-3a20.24,20.24,0,0,0-3.6-11.4l-6.6-6v-.6q0-3.6,3-3.6c1.2,0,2.6.81,4.2,2.4l6.6,15.6q6,9,21.6,12l-.6-6,13.2,1.2q4.8,0,7.2-9.6l-1.8-.6Q415.57,732.51,411.37,732.51Z" transform="translate(-342.57 -296.51)"/><path class="cls-1" d="M404.77,308.91H394A45.14,45.14,0,0,0,370,323q-10.2,11.12-10.2,23.7,0,14.4,15,14.4a47,47,0,0,0,5.4-1.2l16.2-4.8h1.8q10.8,0,10.8,8.4,0,5.4-5.1,11.1c-3.4,3.81-6.9,5.7-10.5,5.7-2.4,0-4-1-4.8-3l-3-11.4q0-1.8-2.4-1.8l-7.8,3,6,3,4.8,12q.6,2.4,6,2.4,7.2,0,13.2-6.6a21.67,21.67,0,0,0,6-15q0-12.6-12-12.6a3.53,3.53,0,0,0-2.4.6l-19.8,6h-1.8q-10.2,0-10.2-12.6t11.4-22.5a38.29,38.29,0,0,1,25.8-9.9q18,0,25.8,13.2c.8,2,1.8,3,3,3l2.4-.6Q425.17,308.31,404.77,308.91Z" transform="translate(-342.57 -296.51)"/><path class="cls-1" d="M362.77,574.11q-3,0-3,3.6t4.2,3h2.4Q366.37,574.11,362.77,574.11Z" transform="translate(-342.57 -296.51)"/><path class="cls-1" d="M364,563.31a2.65,2.65,0,0,0-3,3q0,3.6,3.6,3.6a3.42,3.42,0,0,0,2.4-1.2l1.8-3-.6-.6Q365.17,563.31,364,563.31Z" transform="translate(-342.57 -296.51)"/><path class="cls-1" d="M364,661.71v4.8l3,8.4.6,3.6,8.4,9.6c2,2,3.4,3,4.2,3,1.6,0,2.4-1,2.4-3a8.14,8.14,0,0,0-2.4-6q12-1.2,12-10.8,0-4.8-3-6.6l-7.2-4.8-2.4-4.8q-2.4,1.8-2.4,3,0,1.8.6,1.8l8.4,6a3.54,3.54,0,0,1,1.8,3q0,4.2-3.6,4.2l-4.8-1.2q-8.4-6.6-8.4-16.2,0-22.8,24.6-42,1.8-.59,4.8-3.6l-.6-1.2Q364,631.73,364,661.71Z" transform="translate(-342.57 -296.51)"/><path class="cls-1" d="M386.77,473.91q-3.6-1.2-3-1.2h-2.4l-5.4,3a28.78,28.78,0,0,0-9.6,14.4l-1.2,4.8.6,7.8,1.8,12.6,1.2,1.2-.6-12v-4.8l2.4-9v-3l3.6-2.4,5.4-4.2,7.2,3.6v1.2c.8,2.4,0,3.81-2.4,4.2a3.42,3.42,0,0,0,2.4,1.2c3.6,0,5.4-2.79,5.4-8.4Q392.17,478.73,386.77,473.91Z" transform="translate(-342.57 -296.51)"/><polygon class="cls-1" points="23.2 298 25.6 296.8 23.8 295 23.2 298"/><path class="cls-1" d="M371.77,581.91q-2.4,0-2.4,3.6v2.4q.6.6,3,.6c1.6,0,2.4-1,2.4-3Q374.77,581.91,371.77,581.91Z" transform="translate(-342.57 -296.51)"/><path class="cls-1" d="M373.57,568.71q-1.8,0-3,3l-.6,1.2c0,3.21,1.6,4.8,4.8,4.8q3.6,0,3.6-4.2Q378.37,568.71,373.57,568.71Z" transform="translate(-342.57 -296.51)"/><path class="cls-1" d="M373.57,595.11l-1.2.6a2.84,2.84,0,0,0-2.4,3c0,2,1.2,3,3.6,3,2.8,0,4.2-1,4.2-3Q377.77,595.11,373.57,595.11Z" transform="translate(-342.57 -296.51)"/><path class="cls-1" d="M376.57,526.11q0-12.6,8.4-12.6,4.2,0,4.2,3.6a6.9,6.9,0,0,1-2.4,4.8c3.6-1.59,5.4-3.2,5.4-4.8q0-9.58-9.6-9.6-11.4,0-11.4,15.6a23.13,23.13,0,0,0,3.6,12l4.8,9,3.6,3.6q12.6,14.4,26.4,19.2v-1.2Q376.57,551.31,376.57,526.11Z" transform="translate(-342.57 -296.51)"/><path class="cls-1" d="M404.17,314.91q-29.4,0-29.4,19.2c0,4.41,1.6,6.6,4.8,6.6q2.4,0,5.4-3.6-4.8-3-4.8-5.4a5.19,5.19,0,0,1,1.8-3.6q7.2-10.8,21.6-10.8c6.4,0,11,1.41,13.8,4.2l6,4.2.6-.6Q415.57,314.91,404.17,314.91Z" transform="translate(-342.57 -296.51)"/><path class="cls-1" d="M382,577.11q-1.8,0-3,3v1.2q0,3.6,3.6,3.6,4.8,0,4.8-3.6C387.37,578.52,385.57,577.11,382,577.11Z" transform="translate(-342.57 -296.51)"/><path class="cls-1" d="M407.77,586.71l-16.2,4.8-.6-.6-9-2.4a2.65,2.65,0,0,0-3,3q0,3.6,9,3.6a32.58,32.58,0,0,0,21-7.8l-.6-.6Z" transform="translate(-342.57 -296.51)"/><path class="cls-1" d="M388.57,743.31a11.69,11.69,0,0,1-4.2-3q1.2,2.4,2.4,5.1a27,27,0,0,1,1.8,5.7c3.6-1.2,5.4-2.79,5.4-4.8Q394,745.11,388.57,743.31Z" transform="translate(-342.57 -296.51)"/><path class="cls-1" d="M395.19,667.45a1.18,1.18,0,0,0,0,.26C395.17,667.63,395.19,667.54,395.19,667.45Z" transform="translate(-342.57 -296.51)"/><path class="cls-1" d="M442,642.51q-20.4,0-24.6,9.6l-4.8,10.8a2.44,2.44,0,0,1-1.8.6q-1.8,0-1.8-2.4l.6-1.2,1.2-2.4,4.2-6.6,4.2-3.6,4.8-3.6c-1.6.4-3.4.81-5.4,1.2s-4.4,1-7.2,1.8q-7.8,6-9.6,6a3.42,3.42,0,0,1-2.4-1.2,4.54,4.54,0,0,0,.9-1.2,3.31,3.31,0,0,1,1.5-1.2H394l-3.6-.9a9.86,9.86,0,0,0-2.4-.3q-3,0-3,3.6c0,4.41,2.8,6.6,8.4,6.6q4.2,0,5.4-.6l.6,3c-2.68,2.69-4.06,5-4.18,6.94.06-.17.25.7.58,2.66q.6,3.6,1.8,12c-.4,5.2-2.4,9.21-6,12,3.2,2,5.2,3,6,3q13.2,0,15-15.6l2.4-1.2,1.8,3.6c3.2,3.21,5.8,4.8,7.8,4.8q11.4,0,13.8-11.4-1.2.6-5.4.6-10.8,0-10.8-13.2,0-13.8,24-17.4v-2.4C446.57,643.32,445.17,642.51,442,642.51Z" transform="translate(-342.57 -296.51)"/><path class="cls-1" d="M394,494.31c0,.17.07.11.19-.14C394,494,394,494.06,394,494.31Z" transform="translate(-342.57 -296.51)"/><path class="cls-1" d="M446.17,488.31c-1.2,2-2.4,3-3.6,3a1.59,1.59,0,0,1-1.8-1.8,19.2,19.2,0,0,1,1.8-4.2,14.15,14.15,0,0,0,1.8-6q0-9-7.8-9.6a30.57,30.57,0,0,0-2.4,4.5q-1.2,2.7-2.4,5.7v1.2q0-.58,1.2,5.4a3.47,3.47,0,0,1-2.4.6q-1.2,0-3-1.8c-1.6,2.8-2.4,5-2.4,6.6a18.16,18.16,0,0,0,1.8,6.6l-2.4.6-2.4-9.6,2.4-11.4-3-6.6q-2.4,2.4-4.2,4.5a13.22,13.22,0,0,1-4.2,3.3l-1.2-2.4q4.2-6,4.2-9,0-10.2-13.2-12.6c.4,2,.7,3.7.9,5.1a24.94,24.94,0,0,1,.3,3.3q0,4.82-3.6,12.6a12,12,0,0,0-.9,2.4,19.36,19.36,0,0,1-1.5,3.6q-3.32,10.44-4,11.86c.46.58,1.8,4,4,10.34q-2.4,0-6.6-2.4l.6,6q8.4,15.61,26.4,15h.6l4.8-.6h6.6q1.2,3.6,1.2,3,0,2.4-3,2.4a21.18,21.18,0,0,1-8.4-1.8q-8.4-1.2-12.6-2.1t-3.6-.9q-3.6,0-11.4,3.6l7.2,4.8,1.2,2.4q-10.2,4.82-10.2,10.2c0,1.6.8,3.81,2.4,6.6q4.8-7.2,9.6-8.4l28.8-1.8,7.8-1.8,4.2-1.2q3-1.2,3-3.6,0-3-.6-3.6l-7.8,1.8-6.6.6.6-1.8,14.4-3.6v-7.2h-12l-6.6-1.8-6-5.4,1.8-1.8q8.4,6.61,17.4,6.6h5.4v-3.6h-2.4c-2.4,0-4.9-1.29-7.5-3.9s-3.9-5.1-3.9-7.5a2.13,2.13,0,0,1,2.4-2.4c.8,0,1.2.81,1.2,2.4v1.8q3.6,7.2,10.2,7.2v-4.8a41.69,41.69,0,0,0-1.8-9.6,13.82,13.82,0,0,0,1.8-5.4A8.42,8.42,0,0,0,446.17,488.31Z" transform="translate(-342.57 -296.51)"/><path class="cls-1" d="M396.37,389.31a2.49,2.49,0,0,0-1.8.6l-2.4,1.2q4.8,4.81,4.8,5.4v2.4l-.6.6q-4.8,6.62-4.2,7.2l1.8,2.4.6-1.8,5.4-5.4c1.2-1.2,1.8-3.39,1.8-6.6C401.77,391.32,400,389.31,396.37,389.31Z" transform="translate(-342.57 -296.51)"/><path class="cls-1" d="M436.57,398.31a62.31,62.31,0,0,0-19.8,3l-8.4,4.2-7.2,3q-7.8,2.4-7.8,9.6v2.4l6-2.4,14.4-8.4a57,57,0,0,1,22.2-4.8q26.4,0,42,12.6l4.8,4.2,6,6,2.4,3.6,2.4,3.6q4.2-3.6,4.2-5.4v-2.4Q474.37,398.31,436.57,398.31Z" transform="translate(-342.57 -296.51)"/><path class="cls-1" d="M444.37,588.51q-9,3-13.8,1.8-2.4-.59-3.6-.9a9.86,9.86,0,0,0-2.4-.3c-1.2,0-2.4,1.41-3.6,4.2a26.81,26.81,0,0,0-5.4,3q-3.6,2.4-4.2,2.4-1.2,0-1.2-1.8,0,.6,10.2-6.6-1.2-1.8-2.4-1.8-10.2,0-12,14.4l5.4,2.4q-12,8.41-12,17.4c0,3.6,1.8,7.41,5.4,11.4q.6-5.4,1.8-5.4a3.53,3.53,0,0,1,2.4.6q2.4,10.8,10.8,10.8a23.49,23.49,0,0,0,7.8-1.8q6-2.38,7.2-7.2v-3l-4.2-12-.6-1.2q0-8.4,6-8.4a7.5,7.5,0,0,1,5.4,2.4l.6,3-2.4,4.8.6,4.8c4-5.19,6-9.2,6-12q0-6.6-7.8-6.6-3.6,0-8.4,3.6t-4.8,7.2q0,3,4.8,14.4c0,2-1.6,4-4.8,6a4.85,4.85,0,0,1-3.6,1.2q-9,0-9-12,0-4.8,4.2-10.8c2.8-4,5.6-6.6,8.4-7.8l21-6.6.6-4.8.6-3.6Q447.37,588.51,444.37,588.51Z" transform="translate(-342.57 -296.51)"/><path class="cls-1" d="M428.77,410.31q-10.8,0-27.6,9l-1.2,1.8,6-2.4,10.8-4.2a36.08,36.08,0,0,1,6-1.2,22.59,22.59,0,0,1,13.2,4.2q6,4.2,6,9,0,7.2-6.6,7.2-4.8,0-6-.6.6,4.2,6.6,4.2,11.4,0,11.4-13.2Q447.37,410.31,428.77,410.31Z" transform="translate(-342.57 -296.51)"/><path class="cls-1" d="M418.57,366.51c-2.4,0-3.8,2-4.2,6h1.2q7.2,0,7.2,3.6v.6c-.4,2.8-2.4,6.21-6,10.2q-7.8,9.6-10.8,11.7a6.13,6.13,0,0,0-3,5.1l4.8-4.2,3.6-2.4,4.8-5.4,6.6-6.6a13.56,13.56,0,0,0,3.6-9C426.37,369.72,423.77,366.51,418.57,366.51Z" transform="translate(-342.57 -296.51)"/><path class="cls-1" d="M479.17,722.91q-1.8-.58-9,11.4-8.4,14.4-36.6,14.4-9.6,0-25.8-4.8l-1.2,4.2a75.73,75.73,0,0,0,25.2,4.2q38.4,0,57.6-28.8l-4.8-.6Z" transform="translate(-342.57 -296.51)"/><path class="cls-1" d="M421,559.11q0-2.39,3-5.4.6.6,3,.6a1.59,1.59,0,0,0,1.8-1.8q0-3.6-6-3.6c-3.6,0-6.6,2-9,6a36.27,36.27,0,0,0-1.2,6q0,6,6.6,10.8l.6,1.8a19.64,19.64,0,0,0-10.2,5.4,23.33,23.33,0,0,0,18.6,8.4,105.07,105.07,0,0,0,18-1.8l.6-14.4-7.2-.6Q421,568.71,421,559.11Z" transform="translate(-342.57 -296.51)"/><path class="cls-1" d="M431.17,374.91l-2.4,6-16.2,18.6,3.6-1.2a9,9,0,0,0,2.4-1.8l2.4-2.4q15.6-21,15.6-19.8v-1.8l-3-3.6Z" transform="translate(-342.57 -296.51)"/><path class="cls-1" d="M444.37,722.91q-9,0-9,4.8a14.15,14.15,0,0,0,1.8,6q3-6.6,6.6-6.6,6,0,6,4.8,0,11.4-16.8,11.4h-7.8l-5.4-1.2q-1.8,1.21-1.8,1.8c.8.81,2.6,1.2,5.4,1.2l13.8,1.2a22.38,22.38,0,0,0,13.8-4.5q6-4.5,6-10.5Q457,722.91,444.37,722.91Z" transform="translate(-342.57 -296.51)"/><path class="cls-1" d="M440.77,383.31l-1.2.6-1.8.6a8.42,8.42,0,0,1,.6,3.6c0,2.4-2,4.41-6,6H436c6,0,9-2.19,9-6.6C445,384.72,443.57,383.31,440.77,383.31Z" transform="translate(-342.57 -296.51)"/><polygon class="cls-1" points="91.6 356.2 102.4 356.2 103 353.8 101.2 353.2 91.6 356.2"/><path class="cls-1" d="M500.17,310.71l-1.2,1.2h-2.4c-2.8-2.79-5.6-4.2-8.4-4.2l-3.6.6-4.8,2.4-7.2,12a5.7,5.7,0,0,1-4.8,2.4h-.6q-3.6,0-3.6-1.8v-10.2c0-2.79-3.4-4.2-10.2-4.2q-18,0-16.8,15.6v3.6h3q2.4-16.78,12.6-16.8,1.2,0,6,3l.6,2.4-1.2,4.8q0,7.8,8.4,7.8,4.2,0,6-2.4l10.8-13.8c.4-1.59,2-2.4,4.8-2.4q3,0,6.6,3.6l-1.2,4.2,1.8,3a1.75,1.75,0,0,1,.6,1.2q0,.6-3,5.4.6.6,3,.6c2.8,0,4.2-1.59,4.2-4.8v-.6l-1.8-3.6v-3l5.4,2.4h1.2c2.4,0,4-1.59,4.8-4.8v-1.2l-5.4.6Z" transform="translate(-342.57 -296.51)"/><path class="cls-1" d="M517.57,735.51v-1.8c4,0,6.4-1.59,7.2-4.8l-6-.6-4.2-1.8c-.8-.39-4-.6-9.6-.6a17.58,17.58,0,0,0-7.8,2.1,41.67,41.67,0,0,0-7.2,4.5c-2,1.6-4.6,3.81-7.8,6.6a20.87,20.87,0,0,1-4.5,3q-3.3,1.8-9.3,4.8a15,15,0,0,0-5.4,3l-.6,1.2q14.4-1.2,29.4-10.8,9-5.4,12.6-5.4a16.9,16.9,0,0,1,8.4,2.4l3,3.6c.8,3.21,1.2,4.6,1.2,4.2,0,3.21-1.6,4.8-4.8,4.8l-3.6-1.2-7.2-6-5.4,2.4,8.4,3.6,6,3.6a47,47,0,0,0,5.4,1.2q10.2,0,10.2-9.6Q526,739.11,517.57,735.51Z" transform="translate(-342.57 -296.51)"/><path class="cls-1" d="M506.17,455.31l-4.8-3.6,3.6-10.2q0-4.8-9.6-5.4.6,3,1.2,5.4a18.6,18.6,0,0,0,1.2,3.6q3.6,12.6,3.6,18.6,0,6.62-4.2,16.8l-.6,18.6a42.56,42.56,0,0,1,3-3.9,22.05,22.05,0,0,0,3-4.5v-3.6l3.6-12c.4-.39.6-1.4.6-3a18.2,18.2,0,0,1,.6-5.4v-7.2Q508.57,455.91,506.17,455.31Z" transform="translate(-342.57 -296.51)"/><path class="cls-1" d="M520,607.11l-5.4-.6-4.2-1.2-.6-.6q-13.2,0-13.2,7.2v.6l3.6,2.4-3.6,4.2a4.92,4.92,0,0,0-1.2,3.6q0,13.2,8.4,12l2.4-.6c-3.6-2.79-5.4-5.4-5.4-7.8q0-2.38,3.6-9l4.8,1.2h.6a34.57,34.57,0,0,1,3.9-1.5c1.8-.6,4.3-1.29,7.5-2.1.4-.39,1.6-.6,3.6-.6l6,1.2Q527.77,608.91,520,607.11Z" transform="translate(-342.57 -296.51)"/><path class="cls-1" d="M539.47,603.51a149.52,149.52,0,0,0-18.9-11.7,241.38,241.38,0,0,0-22.8-10.5l-.6,15.6a63.32,63.32,0,0,1,8.4,2.1q2.4.9,6.6,2.7l8.4,3q13.8,5.4,28.2,19.8a17.54,17.54,0,0,1,1.5,1.8,21.59,21.59,0,0,0,2.1,2.4l2.4,4.2H556c.4-2,.7-3.69.9-5.1a24.67,24.67,0,0,0,.3-3.3c0-2.79-1.6-6-4.8-9.6A85,85,0,0,0,539.47,603.51Z" transform="translate(-342.57 -296.51)"/><path class="cls-1" d="M526.57,376.71l0-.16S526.57,376.58,526.57,376.71Z" transform="translate(-342.57 -296.51)"/><path class="cls-1" d="M539.17,375.51l-9-.6-3-1.2-.57,2.84a4.76,4.76,0,0,1,.27,1.06l.9,4.5q-3-.58-5.4-.9a34.41,34.41,0,0,0-4.2-.3,49.69,49.69,0,0,0-5.4,1.2l-7.8,3-5.4-1.2a41.69,41.69,0,0,0-1.8,9.6,18.75,18.75,0,0,0,.3,3q.3,1.8.9,4.8l2.4,3.6c1.6,2,4.4,4,8.4,6v1.8q-9.6.6-9.6,3.6c0,.81.9,1.9,2.7,3.3s3.3,2.5,4.5,3.3l1.2.6,3.6-.6-.6,1.8a25.24,25.24,0,0,0,6,.6h4.2a39.59,39.59,0,0,0,4.5-.3q2.7-.3,5.7-.9-1.8-3.6-4.2-3.6a12.69,12.69,0,0,0-4.8.6l-1.2-1.8.6-1.2h6l3.6.6c.4,0,1.6-1,3.6-3l-10.2-3.6h2.4a29.14,29.14,0,0,1,6.9,1.2,28.47,28.47,0,0,0,6.3,1.2v-1.2l-25.8-13.2,1.2-.6,6.6.6,9.6-.6c2.8,0,6.6.81,11.4,2.4l-.6-3-6-3.6q.6-1.8,1.2-1.8l2.4.6c1.6,2.4,3.2,3.81,4.8,4.2a1.59,1.59,0,0,0,1.8-1.8c0-1.59-1.6-3.6-4.8-6v-1.8h3l3.6,4.8,4.8,3Q547.57,376.13,539.17,375.51Z" transform="translate(-342.57 -296.51)"/><path class="cls-1" d="M509.17,433.11h-2.4l6.6-4.2-4.8-1.2q-7.2,0-9.6,5.4l-.6,1.2q0,2.4,4.8,2.4,7.2,0,18.6-6h-6.6Z" transform="translate(-342.57 -296.51)"/><path class="cls-1" d="M506.17,578.31l-7.2-8.4v5.4q0,2.4,9,7.8a99.49,99.49,0,0,0,19.8,9q-10.2-6.6-15.3-9.6A39.06,39.06,0,0,1,506.17,578.31Z" transform="translate(-342.57 -296.51)"/><path class="cls-1" d="M580,565.71a3.46,3.46,0,0,0,.6-2.4,7.33,7.33,0,0,0-1.8-5.4l-1.2-1.8-1.2-3.6q-7.8,2.4-7.8,9l-3.6.6v-10.2l-1.2-3-4.8-7.2-6.6-4.8-1.2-1.2-7.8-1.8-.6,4.2.6,1.2-1.8,1.2a22.26,22.26,0,0,0-14.4-5.4,28.67,28.67,0,0,0-19.2,7.2q-8.4,7.2-8.4,16.2,0,4.82,6.6,11.4c3.2,2,5.2,3,6,3a14.93,14.93,0,0,0,6.6-1.8q11.4-6,16.2-6,10.2,0,10.2,11.4v1.8q0,7.2-7.2,7.2a4.85,4.85,0,0,1-3.6-1.2l-5.4-6-1.2-1.2h-1.2l-1.8.6-2.4,2.4,6,2.4,4.8,9q.6.6,3.6.6,5.4,0,9.9-5.4a18.27,18.27,0,0,0,4.5-12q0-7.2-10.8-12l4.2-4.2c-2.8-2.79-5.6-4.2-8.4-4.2a13.6,13.6,0,0,0-9,3.6l-7.2,6c-2,2-4,3-6,3q-8.4,0-8.4-9,0-15.6,20.4-15.6,9.6,0,19.2,7.8l4.2,5.4,3,6,.6-.6-.6,1.2a75.71,75.71,0,0,1,1.8,13.2v4.2l-3.6,9.6-2.4,9-1.8,3.6q0,.6,3,5.4l8.4,8.4,2.4,3c1.2-2.79,3.2-6.8,6-12l9-12,4.2-7.2,2.4-7.2,1.2-11.4h-4.8Z" transform="translate(-342.57 -296.51)"/><path class="cls-1" d="M507.37,490.11v-1.8l3.6-15-.6-5.4-1.8,6.6-4.8,16.2a10.33,10.33,0,0,0-.6,4.2q0,7.8,7.2,7.8,6.6,0,7.2-6a14.15,14.15,0,0,1-6,1.8C508.77,498.51,507.37,495.72,507.37,490.11Z" transform="translate(-342.57 -296.51)"/><path class="cls-1" d="M506.77,321.51a2.35,2.35,0,0,0-2.4,1.8l-.6,1.2c0,2,1.2,3,3.6,3q3,0,3-3.6C510.37,322.32,509.17,321.51,506.77,321.51Z" transform="translate(-342.57 -296.51)"/><path class="cls-1" d="M553.57,464.91a8.12,8.12,0,0,1-2.4,6h-2.4l2.4-7.2v-6.6l-2.4,8.4-2.4,4.8-2.4-.6c1.6-2.79,2.4-4.8,2.4-6a8.42,8.42,0,0,0-.6-3.6l-4.2,6c-1.6,0-2.4-.39-2.4-1.2q0-3.6,4.2-6-10.2,3-14.4,10.8l-3-.6,1.8-6,4.2-7.2,4.2-9-7.8,6-1.2-1.2-.6-.6.6-.6,7.2-6-2.4-.6c-.4,0-1.4.81-3,2.4s-2.8,2.4-3.6,2.4a3.42,3.42,0,0,1-2.4-1.2l7.2-5.4-1.8-3.6-4.8,3.6h-2.4v-2.4l13.2-6.6h-4.8l-10.8,3.6q-3.6.6-12,9l-3,5.4,4.8,1.2q1.8,0,4.2-2.4l2.4,1.2c-2,3.21-3,5.4-3,6.6a18.75,18.75,0,0,0,.3,3q.3,1.8.9,4.8v9l-3,12q1.8.6,7.8.6c4,0,7.2-1.89,9.6-5.7s3.8-5.7,4.2-5.7h3l-2.4,7.8.6,4.8q18.6-5.4,21-19.8l.6-6H553A3.47,3.47,0,0,1,553.57,464.91Z" transform="translate(-342.57 -296.51)"/><path class="cls-1" d="M534.44,712.18l.53,2.93a61.75,61.75,0,0,0,2.4,7.8c.8,2,1.4,3.4,1.8,4.2-2-5.19-3-8.4-3-9.6Z" transform="translate(-342.57 -296.51)"/><path class="cls-1" d="M590.17,668.91c-4.8,0-7.8,2-9,6H580q.6,1.22.6,5.4,0,3.6-2.4,3.6H577a1.71,1.71,0,0,1-.6-1.2l.6-8.4-1.2-.6-2.4-3.6c-1.6,0-3.7,1.41-6.3,4.2a36.32,36.32,0,0,0-4.5,5.4q-4.2,4.2-4.2,14.4c0,2,.1,4.2.3,6.6s.5,5,.9,7.8q.6-18.59,3-18.6a3.47,3.47,0,0,0,2.4.6c-2,8-3,12.6-3,13.8a25.14,25.14,0,0,0,2.4,10.2l-3,.6a20.92,20.92,0,0,0,6,10.2q1.8,3.6,1.8,4.8a14.88,14.88,0,0,1-4.2,1.8l-3-3-3-10.8-3-8.4a61,61,0,0,1-1.2-12v-10.8a27.06,27.06,0,0,0-9.6-13.8q-6,2.4-6,11.4h-2.4q-1.8,0-2.4-4.2-3.6-13.8-16.2-13.8-10.8,0-13.2,13.2l10.8-3q7.8,5.4,10.8,12l1.8,4.8,6.07,18.67-.67-3.67-1.2-3.6v-.6a1.59,1.59,0,0,1,1.8-1.8,2.49,2.49,0,0,1,1.8.6l3,17.4q1.2,2.4,2.7,5.1t3.9,6.3l.6,1.8-2.4.6-4.8-7.2q9,22.2,24,22.2,24.6,0,24.6-17.4,0-1.2-6.6-19.8a21.54,21.54,0,0,1-2.4-10.8c0-4,.8-6.8,2.4-8.4l1.8-3,1.8-3.6c1.6-2.79,5.6-4.2,12-4.2q3.6,0,8.4,3.6Q604.57,668.93,590.17,668.91Z" transform="translate(-342.57 -296.51)"/><path class="cls-1" d="M532.57,648.51l.6-5.4q0-6-6.6-10.8a19.64,19.64,0,0,0-4.8-1.2q-10.2,0-10.2,9l.6,3c2.4-2.79,4.6-4.2,6.6-4.2q8.4,0,11.4,12l3,15,1.8,4.2c-.4-2.79-.8-6-1.2-9.6S533,652.92,532.57,648.51Z" transform="translate(-342.57 -296.51)"/><path class="cls-1" d="M513.37,323.91c0,2,1,3,3,3a2.12,2.12,0,0,0,2.4-2.4v-1.2l-3-3Q513.37,322.11,513.37,323.91Z" transform="translate(-342.57 -296.51)"/><path class="cls-1" d="M524.17,319.11q-2.4.6-2.4,2.4,0,2.4,3,2.4a2.12,2.12,0,0,0,2.4-2.4l-.6-.6Z" transform="translate(-342.57 -296.51)"/><path class="cls-1" d="M544,406.11q.6-3.6-16.2-4.2a37.76,37.76,0,0,0,5.4,3.9q4.2,2.7,12,7.5l-1.2-4.2Z" transform="translate(-342.57 -296.51)"/><path class="cls-1" d="M532.57,458.91v2.4l12-6.6-.6-7.2Q538.57,449.91,532.57,458.91Z" transform="translate(-342.57 -296.51)"/><path class="cls-1" d="M532.57,614.31v3a79.65,79.65,0,0,1,21.6,19.8Q549.37,625.72,532.57,614.31Z" transform="translate(-342.57 -296.51)"/><path class="cls-1" d="M545.17,425.91l1.2-2.4q5.4-.58,7.2-3.6a11.58,11.58,0,0,0-6-1.8q-12.6,0-12.6,4.8l1.2,2.4.6,5.4-3.6,7.2c0,2,2.4,3,7.2,3a14.88,14.88,0,0,0,10.8-4.8l-6,1.2.6-1.8c4-.39,6-1.8,6-4.2q-1.2-1.2-5.4-1.2l-1.8-1.2,10.2-4.8Z" transform="translate(-342.57 -296.51)"/><path class="cls-1" d="M646.57,612.51v-.6l1.2-14.4c0-2.79-1.6-4.2-4.8-4.2h-5.4l4.2-4.2a2.41,2.41,0,0,0,.6-1.8q0-4.8-13.8-7.8l-6.6-1.8c-.8-.39-3.2-.6-7.2-.6q-21.6,0-44.4,28.2-4.8,8.41-10.2,25.8l-.6,13.8-2.4,5.4H553l-1.2-7.2,1.2-3-4.2-6.6-4.2-4.2-4.2-4.2a128.87,128.87,0,0,0-3.6,28.8,121.19,121.19,0,0,0,1.8,19.8c4-2.79,7-4.2,9-4.2s3.2,1.41,3.6,4.2l6.6,9,3-6,5.4-5.4v-6.6l2.4-13.2,4.8-16.2a35.06,35.06,0,0,1,13.2-19.2q10.2-7.79,21-7.8a23,23,0,0,1,16.8,7.2q.6,1.22.6,5.4l-1.2,4.8q-4.2,4.2-8.4,4.2H613l-19.2-7.8H592q-12.6,0-12.6,14.4,0,4.82,6,10.8l-1.8,4.8,3,4.2v6.6q6-3.6,6-7.2a16.83,16.83,0,0,0-2.4-8.4l3.6-.6,3,1.2h1.8q4.8,0,6-3.6v-3.6h-6l-6.6-2.4-4.2,4.2h-.6c-2.4,0-3.6-1.59-3.6-4.8q0-10.8,9-10.8a11.58,11.58,0,0,1,6,1.8l15,11.4q2.4,1.8,7.2,1.8,15.6,0,15.6-15l1.8-1.2q3.6,3.6,5.4,3.6a13.82,13.82,0,0,0,5.4-1.8Q646,614.33,646.57,612.51Z" transform="translate(-342.57 -296.51)"/><path class="cls-1" d="M545.17,359.91l-1.2,6.6.6,7.8,3,4.2a30.69,30.69,0,0,0,6.6,6l-5.4-14.4.6-.6,6.6,9v-4.8Q557.17,367.11,545.17,359.91Z" transform="translate(-342.57 -296.51)"/><path class="cls-1" d="M556.57,479.91c-1.6,0-2.6,2.61-3,7.8q-1.2,1.8-1.8,1.8h-1.2l3-9-.6-3-4.2,6-1.2,9-2.4,6.6q13.2-4.19,13.2-16.8C558.37,480.72,557.77,479.91,556.57,479.91Z" transform="translate(-342.57 -296.51)"/><path class="cls-1" d="M569.77,395.31l-4.8-1.2-1.8-.6-3,3.6q-2.4,2.4-4.2,2.4a14.15,14.15,0,0,1-6-1.8q-2.4,2.4-2.4,7.2,0,8.41,12.6,12l-.6-6.6q3.6,7.2,6.6,7.2,1.2,0,1.2-1.8l-2.4-8.4h2.4q1.2,4.2,2.4,9l1.2-.6-.6-10.8,2.4.6,1.8,5.4.6-1.8.6-4.8-2.4-4.8Z" transform="translate(-342.57 -296.51)"/><path class="cls-1" d="M598.57,311.91l-6.6-3-8.4-.6q-7.8.6-7.8,4.2c0-.39,1,2.4,3,8.4q-.6,6-7.8,6-12.6,0-13.8-4.8a28.78,28.78,0,0,0,8.4,1.8q7.2,0,7.2-6c0-.8-.6-1.59-1.8-2.4-2,3.21-3.4,4.8-4.2,4.8q-1.8,0-6-1.8-3-6.6-7.2-6.6-3.6,0-4.2,5.4,1.2,10.21,12,10.8l14.4,1.2q7.2.6,7.8-3.6l.6-1.2-1.2-8.4q-1.2-5.4,4.2-5.4c1.6,0,4.4,1.41,8.4,4.2q1.8,6,4.8,6,1.2-1.2,1.2-1.8a10.33,10.33,0,0,0-.6-4.2Z" transform="translate(-342.57 -296.51)"/><path class="cls-1" d="M571.57,452.31l-3,.6a17,17,0,0,0-1.8-5.1q-1.2-2.1-2.4-4.5v7.2l-2.4-4.8h-1.8l-1.8,2.4-1.8-2.4,1.2-1.8-4.2,3a2.41,2.41,0,0,1-.6-1.8c0-1.59.2-2.6.6-3q-4.2,4.2-4.2,9,0,4.2.6,5.4v1.8a18.54,18.54,0,0,1,5.4-.6q3.6,0,8.4,3.6l2.4,4.8q6.6-6.6,6.6-12.6a13.21,13.21,0,0,0-4.2-9.6Z" transform="translate(-342.57 -296.51)"/><path class="cls-1" d="M604.57,379.71q-4.2,0-6.6,5.4l-2.4-.6q2.4-7.78,2.4-10.8,0-9-4.2-9.6l-3.6-.6-9,4.2-9.6,3q-1.2,1.21-1.2,1.8l-.6.6-1.8,6.6-5.4-4.2q-3,0-6,8.4a24.15,24.15,0,0,0-.6,6.6q0-.58,1.2,5.4c2.4-7.59,3.8-11.4,4.2-11.4a1.59,1.59,0,0,1,1.8,1.8,7.38,7.38,0,0,1-1.8,4.2l3.6.6q1.2-4.8,3.6-4.8l-.6,5.4,1.8.6,3-6a1.77,1.77,0,0,1,1.2-.6,1.59,1.59,0,0,1,1.8,1.8v.6l-3,6,2.4,1.2,1.8-4.2,4.8-8.4a30,30,0,0,1,4.2-6h2.4l-4.2,25.2,3.6-4.8,1.2-6a1.77,1.77,0,0,1,1.2-.6l.6-.6c1.2,0,1.8.81,1.8,2.4a8.75,8.75,0,0,1-1.8,4.5q-1.8,2.7-1.8,3.9a2.35,2.35,0,0,0,1.8,2.4l.6,7.8q15-9.59,15-28.2Q606.37,379.71,604.57,379.71Z" transform="translate(-342.57 -296.51)"/><path class="cls-1" d="M560.17,421.71h-2.4l-1.8,4.8,3.6,1.2c2,0,3-1,3-3S561.77,421.71,560.17,421.71Z" transform="translate(-342.57 -296.51)"/><path class="cls-1" d="M559,431.31h-.6a3.54,3.54,0,0,0-1.8,3c0,2,1,3,3,3s3-1,3-3S561.37,431.31,559,431.31Z" transform="translate(-342.57 -296.51)"/><path class="cls-1" d="M595,449.91l-.6,6.6c-4,.81-5.8,1.2-5.4,1.2a10.3,10.3,0,0,1-4.2-.6l2.4,7.2c.8,2.4,1.6,5,2.4,7.8l3.6,4.8a1.75,1.75,0,0,1,.6,1.2,1.06,1.06,0,0,1-1.2,1.2q-7.8,0-13.8-9l-5.4-7.8v3.6l4.8,10.2-8.4-10.2c-2,2-3,3.4-3,4.2s.6,2.4,1.8,4.8h-2.4a71.74,71.74,0,0,0-2.7-7.8,27.53,27.53,0,0,0-3.9-6.6c-.4,2-.7,3.7-.9,5.1a24.94,24.94,0,0,0-.3,3.3q0,6,9.6,21a15.56,15.56,0,0,0,4.8-11.4l2.4.6,4.2,5.4,10.8,3,4.2,3c.8,1.6,1.5,2.91,2.1,3.9a11.25,11.25,0,0,0,1.5,2.1c3.2,0,4.8-4,4.8-12a23.88,23.88,0,0,0-2.4-10.8l2.4-1.2c.8,1.6,2.6,2.61,5.4,3Q608.17,461.31,595,449.91Z" transform="translate(-342.57 -296.51)"/><polygon class="cls-1" points="229 454.6 221.8 455.2 241 454 238 451 229 454.6"/><path class="cls-1" d="M566.77,419.91l-1.2,1.8,4.2,2.4.6-2.4Q570.37,419.91,566.77,419.91Z" transform="translate(-342.57 -296.51)"/><path class="cls-1" d="M568,427.11h-.6q-1.8,0-1.8,1.2,0,3.6,3,3.6a2.12,2.12,0,0,0,2.4-2.4Q571,425.91,568,427.11Z" transform="translate(-342.57 -296.51)"/><path class="cls-1" d="M568,434.91l-1.2.6q-.6,0-.6,1.8c-.8,2,.2,3,3,3q1.8,0,1.8-2.4A2.65,2.65,0,0,0,568,434.91Z" transform="translate(-342.57 -296.51)"/><path class="cls-1" d="M575.77,650.31q-6,0-6.6,16.8l-.6,1.8,3-1.2q.6-9,4.2-7.8h4.8C580.57,653.52,579,650.31,575.77,650.31Z" transform="translate(-342.57 -296.51)"/><path class="cls-1" d="M578.17,535.71q-8.4,0-8.4,10.2l3,3,3-4.2a4.07,4.07,0,0,1,3-1.2q6.6,0,9,11.4l-1.8,9.6h1.2a19.3,19.3,0,0,0,5.4-13.2Q592.57,535.71,578.17,535.71Z" transform="translate(-342.57 -296.51)"/><path class="cls-1" d="M574,424.11h-.6a3.47,3.47,0,0,0-.6,2.4q0,2.4,1.8,2.4a2.35,2.35,0,0,0,1.8-2.4,3.48,3.48,0,0,0-1.2-2.4Z" transform="translate(-342.57 -296.51)"/><path class="cls-1" d="M575.77,431.91a1.59,1.59,0,0,0-1.8,1.8q0,1.8,2.4,1.8,1.8,0,1.8-2.4Q578.17,431.91,575.77,431.91Z" transform="translate(-342.57 -296.51)"/><path class="cls-1" d="M590.17,431.91q-7.2,0-9,4.8c.8.4,1.7.81,2.7,1.2s1.9.81,2.7,1.2l.6,1.2c-.8.81-1.4,1.2-1.8,1.2a16.73,16.73,0,0,1-2.4-.3q-1.8-.3-4.8-.9l-1.2-.6q-2.4,0-2.4,1.8,0,4.82,8.4,12l8.4.6,2.4-7.8,7.8-3.6Q596.17,431.91,590.17,431.91Z" transform="translate(-342.57 -296.51)"/><path class="cls-1" d="M586.57,405.51q-9.6,2.4-9.6,11.4a2.41,2.41,0,0,0,.6,1.8q1.2-4.8,4.2-4.8,1.2,0,1.2,1.8l-4.2,4.8v1.2l1.2,1.2,4.2-4.8h2.4l-4.8,8.4H583c1.6-2.79,3.4-4.2,5.4-4.2a2.49,2.49,0,0,1,1.8.6l-4.8,4.2,2.4.6q12,0,12-11.4l-9.6-1.2Z" transform="translate(-342.57 -296.51)"/><path class="cls-1" d="M583.57,384.51q-6,11.4-6,12.6a18.16,18.16,0,0,0,1.8,6.6q4.8-9.58,4.2-14.4Z" transform="translate(-342.57 -296.51)"/><path class="cls-1" d="M610.27,550.71q-5.7,6.62-17.7,16.2c-3.6,3.6-5.6,7.41-6,11.4l1.2.6q2.4-5.4,5.4-7.2a32.33,32.33,0,0,1,4.8-3l9.6-7.2,4.2-2.4,11.4-7.8,6-3c-5.2-2.79-8.4-4.2-9.6-4.2Q616,544.11,610.27,550.71Z" transform="translate(-342.57 -296.51)"/><path class="cls-1" d="M587.77,568.71l13.2-12.6v-2.4a22.49,22.49,0,0,0,6.6-12l-6.6-1.8Q597.37,557.33,587.77,568.71Z" transform="translate(-342.57 -296.51)"/><path class="cls-1" d="M725.77,556.11q-7.8-2.39-12.9-3.6t-7.5-1.8l-7.2-.6-5.4-.6-15-.6-7.2,1.2q-57,4.82-77.4,28.8l6-2.4,20.4-9.6q4.8-2.38,31.2-7.8,8.4-1.2,15.6-2.1a107.08,107.08,0,0,1,13.2-.9,101.21,101.21,0,0,1,46.8,11.4l6.6-9a15.68,15.68,0,0,0-4.2-1.5A10.66,10.66,0,0,1,725.77,556.11Z" transform="translate(-342.57 -296.51)"/><path class="cls-1" d="M637,418.71q-3-5.4-6-6h-2.4l-6,.6,3.6-7.2h-1.8l-4.8-1.2h-3l-3-.6-1.8,1.2a54.86,54.86,0,0,0-16.8,7.8v1.2h7.2q0,2.4.6,2.4l-1.8,6.6,3.6-1.8.6,1.8h3q4.2,1.8,16.2,3l.6,1.8q-12.6,6.62-19.2,6h-5.4l3,4.2,1.2,4.8q0,1.8-6.6,3v1.8q8.4,4.2,15,4.2a32.65,32.65,0,0,0,15.6-4.2,3.44,3.44,0,0,0,1.2-2.4c0-2-1.6-4-4.8-6l.6-2.4a18.21,18.21,0,0,0,6.6,1.8q10.8,0,18-13.8l-9-2.4Z" transform="translate(-342.57 -296.51)"/><path class="cls-1" d="M607,655.71l-10.2-4.2C599.17,653.91,602.57,655.32,607,655.71Z" transform="translate(-342.57 -296.51)"/><path class="cls-1" d="M599.77,429.51v1.2a37.27,37.27,0,0,0,7.2.6h4.2a23,23,0,0,0,7.2-1.8,114.74,114.74,0,0,0-16.2-3.6Q600.37,425.91,599.77,429.51Z" transform="translate(-342.57 -296.51)"/><path class="cls-1" d="M604,323.91q-3,0-3.6,3.6,0,4.2,4.2,4.2t4.2-3.6C608.37,325.32,606.77,323.91,604,323.91Z" transform="translate(-342.57 -296.51)"/><path class="cls-1" d="M784.57,617.91q0,3-3.6,3.6l4.8,15q3.6,12,3.6,19.2,0,12-5.4,30.6a68,68,0,0,0-2.4,7.5,67.51,67.51,0,0,1-3.6,9.9q-1.8,4.2-11.4,15.6l-3.6,1.8-9.6,6.6-5.4,2.4-3,1.8-5.4,1.2-5.4,2.4-11.4,1.2-10.2,1.2q-7.8,1.22-16.8-4.8l-6.6-4.8a15.12,15.12,0,0,1-2.4-7.2c0-4,2.2-6,6.6-6,5.2,0,7.8,2,7.8,6v1.2l.6,1.2,4.2,2.4a46,46,0,0,1-2.4-6,66.46,66.46,0,0,0-3.6-8.4c-2.4-4-6.4-6-12-6q-12.6,0-14.4,16.8h-2.4a5.79,5.79,0,0,0-4.2-4.8,23.54,23.54,0,0,0-1.8,7.8l1.2,4.8,1.8,2.4,4.8,4.8q4.8,5.4,15.6,8.4v2.4a32.31,32.31,0,0,1-16.8-7.8l-5.4-5.4q-10.8-12-22.2-12h-9l3.6,4.2a2.12,2.12,0,0,1-2.4,2.4v-.6q-1.2,0-5.1-2.4a16.36,16.36,0,0,0-8.7-2.4,24.83,24.83,0,0,0-15.6,5.1q-6.6,5.1-6.6,12.3,0,10.22,12.6,10.2,4.2,0,9.6-3.6.6-3.6,6.6-3.6,4.2,0,7.2,5.4c2-3.2,3-5.19,3-6q0-4.8-9.6-4.8c-2.8,0-4.4.21-4.8.6l-12,7.2h-1.2q-6,0-6-5.4,0-7.78,15.6-7.8a34.48,34.48,0,0,1,12,1.8l32.4,12,15,3q3,.6,4.8.9a17.75,17.75,0,0,0,3,.3q3.6,0,9-9,2.4.6,2.4,2.4v.6l-.6,2.4q0,5.4,9,5.4,4.8,0,6-.6c.8-.39,4.4-.9,10.8-1.5a29.23,29.23,0,0,0,16.2-6.3q24-5.4,39.3-29.1t15.3-56.1a88.17,88.17,0,0,0-12-44.4Z" transform="translate(-342.57 -296.51)"/><path class="cls-1" d="M608.17,313.71h-.6q-2.4,0-2.4,3,0,4.2,3.6,4.2t3.6-3.6Q612.37,313.13,608.17,313.71Z" transform="translate(-342.57 -296.51)"/><path class="cls-1" d="M613,390.21q-5.4,2.12-7.8,9.9a21.84,21.84,0,0,1,9.6-7.2l.6,1.8a16.38,16.38,0,0,0-9,9.6q15-4.19,18-18l-1.2.6A87.37,87.37,0,0,0,613,390.21Z" transform="translate(-342.57 -296.51)"/><path class="cls-1" d="M609.37,481.11l-2.4-.6-1.8,16.8c5.2-.39,7.8-1.4,7.8-3C613,486.31,611.77,481.92,609.37,481.11Z" transform="translate(-342.57 -296.51)"/><path class="cls-1" d="M609.37,453.51c-1.2,0-1.8.21-1.8.6l-1.8,2.4,5.4,1.8q5.4,3.6,6,3.6l1.2.6a1.59,1.59,0,0,1-1.8,1.8q-.6,0-3.6-2.4a15,15,0,0,0-5.4-3q4.2,10.21,19.8,10.8a14.86,14.86,0,0,1-3-5.4Q617.77,453.51,609.37,453.51Z" transform="translate(-342.57 -296.51)"/><path class="cls-1" d="M614.17,653.91h-.6l-6,.6q.6,1.8,3.6,1.8H613q1.2,0,4.8,1.8l2.4,6.6c.8.81,1.4,1.2,1.8,1.2,1.6,0,2.4-1.59,2.4-4.8Q624.37,652.71,614.17,653.91Z" transform="translate(-342.57 -296.51)"/><path class="cls-1" d="M607.57,674.91q0,3.6,3,3.6,2.4,0,3-6a3.53,3.53,0,0,0-2.4-.6Q607.57,671.91,607.57,674.91Z" transform="translate(-342.57 -296.51)"/><path class="cls-1" d="M614.77,662.31h-1.2a9.45,9.45,0,0,0-2.4,3.6c0,2,1.2,3,3.6,3s3.6-1.2,3.6-3.6Q618.37,662.31,614.77,662.31Z" transform="translate(-342.57 -296.51)"/><path class="cls-1" d="M616,321.51c-2.8,0-4.2,1.41-4.2,4.2q0,3.6,3.6,3.6c2.8,0,4.2-1.59,4.2-4.8Q619.57,321.51,616,321.51Z" transform="translate(-342.57 -296.51)"/><path class="cls-1" d="M638.77,564.51l-4.8.6q-8.4,1.21-21,7.2l7.8-.6,9.6-3c.4-.39,1.6-.6,3.6-.6q16.2,0,16.2,8.4c0,2-.6,3-1.8,3a8,8,0,0,1-4.8-1.8l-.6,3.6q2.4,4.2,5.4,4.2l4.2-.6q5.4-3.6,5.4-7.2Q658,564.52,638.77,564.51Z" transform="translate(-342.57 -296.51)"/><path class="cls-1" d="M619,309.51h-.6c-3.2-.8-4.8.21-4.8,3q0,6,5.4,6c3.6,0,5.4-1.59,5.4-4.8C624.37,310.92,622.57,309.51,619,309.51Z" transform="translate(-342.57 -296.51)"/><path class="cls-1" d="M616.57,680.91H616q-2.4,0-2.4,1.8,0,2.4,3,2.4a3.53,3.53,0,0,0,3-1.8v-.6Q619.57,680.91,616.57,680.91Z" transform="translate(-342.57 -296.51)"/><path class="cls-1" d="M622,670.71h-.6c-2,0-3,.81-3,2.4q0,3.6,3.6,3.6c2,0,3-1,3-3C625,670.92,624,669.91,622,670.71Z" transform="translate(-342.57 -296.51)"/><path class="cls-1" d="M620.17,332.31q0,4.2,4.2,4.2c2.8,0,4.2-1,4.2-3v-1.2l-5.4-2.4C621.17,329.91,620.17,330.72,620.17,332.31Z" transform="translate(-342.57 -296.51)"/><path class="cls-1" d="M751.57,319.11l-19.8-7.2a41.48,41.48,0,0,0-22.2-3.6H706l-9.6,1.2-31.8,7.8-10.2,6.6-4.8,3q-10.2,6.61-19.2,24.6-7.8,18-9,33.6l6.6-1.8-1.8,7.2q-4.8,6.62-4.8,9c0,2.8,2.6,4.41,7.8,4.8l-.6,5.4,6.6,3.6q-5.4-15-5.4-24.6,0-30,22.2-52.2,22.2-22.8,49.8-22.2H706l6.6.6a68.9,68.9,0,0,1,27.6,6l6.6,3,10.2,6,2.4-5.4a26.67,26.67,0,0,0-3.3-2.7A35.73,35.73,0,0,0,751.57,319.11Z" transform="translate(-342.57 -296.51)"/><path class="cls-1" d="M634.57,323.31a18.2,18.2,0,0,1-5.4-.6l-4.8-1.2c.8,2.8,1.4,4.41,1.8,4.8l5.4,1.2,4.8.6,1.8-1.2,7.8-1.2,6-4.2a51.27,51.27,0,0,1-12,1.8Z" transform="translate(-342.57 -296.51)"/><path class="cls-1" d="M627.37,679.71q-3,0-3,3.6c0,2,.8,3,2.4,3,1.2,0,2.2-1.59,3-4.8Q628.57,679.71,627.37,679.71Z" transform="translate(-342.57 -296.51)"/><path class="cls-1" d="M629.77,663.51c-1.2,0-2,.81-2.4,2.4a2.12,2.12,0,0,0,2.4,2.4,13.89,13.89,0,0,0,3-1.8A2.65,2.65,0,0,0,629.77,663.51Z" transform="translate(-342.57 -296.51)"/><path class="cls-1" d="M643.57,447.51l-4.2-6-3,1.2,4.8,13.2q-2.4,7.8-9.6,9,3.6,5.4,6.6,5.4,9,0,9-12a36.27,36.27,0,0,0-1.2-6Z" transform="translate(-342.57 -296.51)"/><path class="cls-1" d="M646.57,344.91l-7.2,12c-.8,2-1.6,4-2.4,6l-2.4,6-1.8,12.6a24.15,24.15,0,0,0-.6,6.6v6c0,2,.4,3.4,1.2,4.2l1.2.6,2.4,4.8a4.24,4.24,0,0,0,4.2,3q1.8,0,3.6-4.2-10.2-12-10.2-18.6a52.94,52.94,0,0,1,5.4-24Z" transform="translate(-342.57 -296.51)"/><path class="cls-1" d="M674.77,627.51q-6,0-15.6,9.6-13.8,12.6-18.9,21.3t-5.1,23.7l9-4.8,2.4-12.6a21,21,0,0,1,6-10.8l3.6-3.6,4.2-3.6,9-3.6c3.2-.8,5-4.59,5.4-11.4H676v-1.8C676,628.32,675.57,627.51,674.77,627.51Z" transform="translate(-342.57 -296.51)"/><path class="cls-1" d="M665.17,587.31l-1.8,4.2q1.2,1.22,1.2,1.8c-.8.81-1.4,1.2-1.8,1.2l-6-1.2c-4.4,0-6.6,3.81-6.6,11.4q0,4.2,4.8,7.2v-3.6c-.4-5.19,1-7.8,4.2-7.8q3.6,0,6.6,4.8v4.2a13,13,0,0,1-3.6,12l-15,19.8q-3.6,3.6-6.6,12l4.2-4.8,4.2-5.4,16.8-16.8a25,25,0,0,0,9-19.8A22.81,22.81,0,0,0,665.17,587.31Z" transform="translate(-342.57 -296.51)"/><path class="cls-1" d="M643.57,716.31c0,2,1.4,3,4.2,3h3l-2.4-5.4C645.17,714.72,643.57,715.51,643.57,716.31Z" transform="translate(-342.57 -296.51)"/><path class="cls-1" d="M648.37,435.51q-3.6,1.8-3.6,3.6c0,.81,1,1.8,3,3l4.8,3,1.2-4.8C653.37,437.91,651.57,436.32,648.37,435.51Z" transform="translate(-342.57 -296.51)"/><path class="cls-1" d="M656.77,659.31q-6,0-9.6,15.6c.8-1.2,1.7-2.49,2.7-3.9s2.1-3.09,3.3-5.1q1.8-.58,7.2-1.8v-1.2Q661,659.31,656.77,659.31Z" transform="translate(-342.57 -296.51)"/><path class="cls-1" d="M665.17,712.11q-3-3-4.8-3c-4,0-6,2-6,6q0,3.6,6.6,10.2a15.87,15.87,0,0,1-2.4-7.8Q658.57,713.33,665.17,712.11Z" transform="translate(-342.57 -296.51)"/><path class="cls-1" d="M665.17,327.51l-3.6,3.6c-4,2.8-5.8,5.61-5.4,8.4v5.4l.6,1.2,4.8.6-.6-9,8.4-12Z" transform="translate(-342.57 -296.51)"/><path class="cls-1" d="M709.57,468.51l-1.8-3.6-.6-.6q-2.4,0-2.4,3l1.2,3.6-1.2,1.2q-3-.58-4.8-.9a18.86,18.86,0,0,0-3-.3q-13.8,0-13.8,16.2,0,6,10.2,7.2-4.8-4.8-4.8-6.6,0-6.6,7.2-6.6a13.9,13.9,0,0,1,2.7.3q1.5.31,3.9.9l3.6,4.2q-1.2,14.4-17.4,21l-18,6.6-6,3a7.41,7.41,0,0,0,4.2,1.8h.6q3.6,0,22.2-8.4l10.2-4.8q15.6-7.2,15.6-21.6a17.22,17.22,0,0,0-3-9Z" transform="translate(-342.57 -296.51)"/><path class="cls-1" d="M727,318.51l-15.6-1.8-5.4-.6-28.2,8.4-1.2,3-1.8.6-.6,2.4-2.4,3.6-2.4,7.2h7.2l-1.2,2.4-.6,1.8a19.47,19.47,0,0,0-1.2,4.5q-.6,3.3-1.8,8.1l1.8-.6q4.8,10.22,13.8,10.2a17.85,17.85,0,0,0,9-2.4l-2.4-4.8,7.2-.6q3-1.2,3-5.4a18.61,18.61,0,0,0-.3-2.4c-.2-1.2-.5-2.79-.9-4.8q-.6.6-5.4,4.2h-2.4q-12,1.22-12-12.6,0-6,6.6-10.8,9.6-7.78,23.4-7.8a33.72,33.72,0,0,1,7.8,1.2l12,2.4,5.4-.6Q738.37,320.31,727,318.51Z" transform="translate(-342.57 -296.51)"/><path class="cls-1" d="M705.37,508.71a18,18,0,0,0-9.6,3q-1.2.6-18,6.6c-1.2.4-2.3.81-3.3,1.2s-1.9.81-2.7,1.2l4.8,3q3.6,0,21.6-9c.8-.39,1.7-.8,2.7-1.2a32.91,32.91,0,0,1,3.9-1.2l4.2-5.4h-3Z" transform="translate(-342.57 -296.51)"/><path class="cls-1" d="M703.57,520.11q-9.6,0-24,6.6a7.41,7.41,0,0,0,4.2,1.8,34.23,34.23,0,0,0,5.7-2.4,23.33,23.33,0,0,1,9.9-2.4q9,0,21,6.6l7.8.6-.6-2.4Q715.57,520.11,703.57,520.11Z" transform="translate(-342.57 -296.51)"/><path class="cls-1" d="M754.57,538.71h-5.4a15.61,15.61,0,0,1-4.8-.6l-30-4.2a27.94,27.94,0,0,0-7.2-.6H703a18.54,18.54,0,0,0-5.4.6l-6.6,1.2,3,3.6h20.4l40.2,4.8a98,98,0,0,0,13.8-1.8q10.2-3,10.2-5.4c0-.8-.6-2.19-1.8-4.2A40,40,0,0,1,754.57,538.71Z" transform="translate(-342.57 -296.51)"/><path class="cls-1" d="M731.17,458.91v-1.8c3.6-.39,5.4-1.4,5.4-3q0-6.6-12-6.6c-3.2,0-6.9,1.11-11.1,3.3s-7.3,3.3-9.3,3.3a15.61,15.61,0,0,1-4.8.6h-1.2q-1.8.6-2.4,4.2l7.8-.6,6-1.2a21.43,21.43,0,0,1,6-.6q16.8,0,16.8,9.6,0,7.2-6,7.2c-1.6,0-3.4-1.59-5.4-4.8q-3,4.82-3,5.4,0,7.2,9.6,7.2,11.4,0,11.4-12C739,462.72,736.37,459.31,731.17,458.91Z" transform="translate(-342.57 -296.51)"/><path class="cls-1" d="M706,440.31l-6,3-1.8,7.8q10.2-4.19,13.2-10.8l-1.2-3Z" transform="translate(-342.57 -296.51)"/><path class="cls-1" d="M768.37,666.51q0-4.18-5.4-12.6c.4.81.6,2.8.6,6q0,4.2-1.8,4.2v-.6l-1.8-1.2,1.2-6.6-1.2-3-1.2-4.2L755,644.77c.05.72.08,1.5.1,2.36,1.62,4.93,2.44,8.41,2.44,10.38q0,24-12,25.8l3-6q6.6-15.6,6.6-27c0-1.15,0-2.21,0-3.18-.35-1.08-.73-2.2-1.16-3.42l1.06,1.06c0-.72-.09-1.38-.16-2-.2-1.8.1-3.09.9-3.9q0-.58-3-1.8-3.6-.58-12.6-6.6l3.6,4.8,4.2,8.4a13.45,13.45,0,0,1,1.8,3.6q0,1.22-1.8,1.8l-1.2-1.2-3-7.2q-3.6-9-16.2-16.2l-1.8,5.4q15.6,8.42,15.6,20.4l-1.2,3.6-5.4,8.4a9.16,9.16,0,0,1-6.6,4.2,53,53,0,0,0-8.1,1.8c-2.6.81-5.3,1.6-8.1,2.4a3.47,3.47,0,0,0-.6,2.4,15.87,15.87,0,0,0,2.4,7.8l2.4,2.4a2.44,2.44,0,0,1,.6,1.8q0,.6-1.8.6c-5.6.4-9.7,2.31-12.3,5.7s-3.9,5.91-3.9,7.5a16.77,16.77,0,0,0,2.4,8.4,18.89,18.89,0,0,1,7.2-1.8,36.08,36.08,0,0,1,6,1.2l11.4,6.6q3.6,1.8,10.8,1.8,15.6,0,18.6-10.2,1.2-4.8,2.4-4.8h1.8c1.2,4.41,3.2,6.6,6,6.6a15.9,15.9,0,0,0,7.8-2.4c-2.8-5.19-4.2-9.6-4.2-13.2Z" transform="translate(-342.57 -296.51)"/><path class="cls-1" d="M755.13,647.13c0-.86,0-1.64-.1-2.36L754,643.71C754.4,644.93,754.78,646.05,755.13,647.13Z" transform="translate(-342.57 -296.51)"/><path class="cls-1" d="M764.77,468.51c.05-.13.1-.28.17-.42C764.83,467.93,764.77,468.07,764.77,468.51Z" transform="translate(-342.57 -296.51)"/><path class="cls-1" d="M789.37,334.11l.6-.6,2.4-4.2,1.8-4.8,1.8-.6h-2.4l1.8-4.8v-.6a2.84,2.84,0,0,0-2.4-3l2.4-.6h-1.8q-6-7.79-13.8-7.8-8.4,0-12,7.2l-1.8,3h.6l-1.2,5.4,1.8,3.6v1.2q0,1.8-2.4,1.8l-4.8-1.2,1.2.6H760v4.8l3.6,6,3,2.4,5.4,7.2,7.2,10.8,3,4.8,2.4,3,1.8,4.8,2.4,6.6,1.8,13.2,1.2,4.2-1.8,18,.6,6c-.8,3.21-2,4.8-3.6,4.8a2.35,2.35,0,0,1-1.8-2.4c.4-2,.8-4,1.2-6l.6-2.4a43.23,43.23,0,0,0-3-15.6q-5.4-13.8-11.4-16.2l-4.2-1.8-6-3.6-.6,1.2,1.8,7.2H760l-3.6-6.6-10.2-2.4-6-6.6a18.21,18.21,0,0,0-5.4,9q2.4,16.2,14.4,22.8v2.4l-6.6-.6q1.2,10.21,4.8,13.2a102.78,102.78,0,0,1,17.4,12.9q9,8.1,9,23.7,0,3.6-3.6,15l-4.2,3a19.14,19.14,0,0,0-1-3.42c-.07.14-.12.29-.17.42,0-.44.06-.58.17-.42a21.7,21.7,0,0,1,3.13-4.68q2.7-3.29,2.7-9.9l-.6-1.8,1.8-1.2q-3.6-9.58-9-15v6.6l-1.8.6q-3.6-7.79-6.6-9l-6-.6-4.8-3-1.2,10.2,1.8,4.2a17.36,17.36,0,0,0,6.6,6.6l-.6,3-2.4-.6h1.2l-6-2.4-1.8.6a53,53,0,0,0,1.8,15q3,15,3,16.2c0,3.21-1.8,7-5.4,11.4s-6.8,7.2-9.6,8.4L703,515.31l-3.6,2.4h7.8l13.8-6.6,5.4-1.2a19,19,0,0,1,1.8-1.5l3.6-2.7,9.6-8.4q1.8-1.2,3.9-5.7t3.3-4.5h1.8l-9.6,15q13.8-7.78,16.8-31.8l.6-1.2q3,0,3,1.8,0,6.61-8.4,22.2a22.53,22.53,0,0,1,2.4-2.1,5.87,5.87,0,0,0,1.8-2.1,29.81,29.81,0,0,0,3.3-4.8,10.09,10.09,0,0,1,1.5-2.4l.6-.6a1.06,1.06,0,0,1,1.2,1.2c0-.39-.4,1-1.2,4.2a31.9,31.9,0,0,0,10.8-13.8l6-12.6.6-9.6.6-9.6a21.57,21.57,0,0,0-2.7-12.6q-3.3-6-3.3-7.2.6-1.8,1.8-1.8,2.4,0,4.2,6.6l2.4,8.4.6,12.6-1.8,12-3.6,10.8,3.6-5.4,1.8-5.4,3-7.2-.6-1.2a18.2,18.2,0,0,1-.6-5.4c0-2.79.6-4.2,1.8-4.2s1.8.81,1.8,2.4v1.8l-.6,2.4q7.8-16.2,7.8-39.6,0-34.2-7.8-51.6-6.6-15.6-9-25.8a35.88,35.88,0,0,1-1.2-6c0-1.2,1-3.39,3-6.6l8.4-1.2v.6c0,3.21-2,6-6,8.4v1.2c-.8,3.21-1.2,4.6-1.2,4.2a10.26,10.26,0,0,0,.6,4.2l1.2,3,1.2,2.4,7.2,1.8.6-1.8q-3.6-4.18-3.6-5.4v-1.2Z" transform="translate(-342.57 -296.51)"/><path class="cls-1" d="M709.57,412.11l1.79.49c.9-.18,1.91-.34,3-.49Z" transform="translate(-342.57 -296.51)"/><path class="cls-1" d="M732.37,386.91l-1.2-6a3.46,3.46,0,0,0-2.4-1.2q-4.8,0-3.6,10.2v2.4h-2.4l-4.8-5.4-9.6-3-4.2-2.4c-2.8,0-4.2,3.21-4.2,9.6q0,15,16.2,19.2v3.6l-4.81-1.31q-6,1.15-6,3.11a9.8,9.8,0,0,0,.3,2.4q.3,1.22.9,3.6l.6,2.4,2.4,4.2c2.8,2.8,4.2,5.61,4.2,8.4q0,6-10.8,15,18-6.6,16.8-16.8v-.6l-1.2-9,2.4,1.2q.6.6.6,4.2a24.43,24.43,0,0,1-4.2,14.4q9-2.39,9-19.2,0-6-3.6-16.8l2.4-.6c1.2,0,2,2,2.4,6l1.8,8.4v2.4c0,2.8-1.2,7.41-3.6,13.8q7.2-6,7.2-16.8a52.89,52.89,0,0,0-1.8-12.6h2.4l1.8,12.6,1.2,1.2a38.36,38.36,0,0,0,2.4-13.2c0-2.79-.2-4.4-.6-4.8Z" transform="translate(-342.57 -296.51)"/><path class="cls-1" d="M740.17,548.91l-30.6-2.4h-7.2l.6,1.2,26.4,3c4,.81,6.2,1.2,6.6,1.2q6,0,6-2.4l-1.2-2.4Z" transform="translate(-342.57 -296.51)"/><path class="cls-1" d="M776.17,362.31l1.2-1.8a22.05,22.05,0,0,1-4.5-3q-2.1-1.8-4.5-3.6a14.79,14.79,0,0,1,3-1.8,16.45,16.45,0,0,0-7.2-4.2,10.92,10.92,0,0,0-6-7.8l1.2-1.2q-2.4-13.19-21-13.2-6.6,0-6.6,1.8l1.2,3.6,2.4,2.4.6,2.4q-3-.59-5.4-.9a34.41,34.41,0,0,0-4.2-.3c-2.8,0-4.6.21-5.4.6l-4.8,2.4-3,4.2-2.4,1.2-3,4.2a7.46,7.46,0,0,0,5.4,2.4,12.48,12.48,0,0,0,4.8-.6v1.2l-4.8,5.4a13.82,13.82,0,0,0-1.8,5.4v3q4.2,11.4,13.2,11.4,5.4,0,6.6-3.6-6.6-4.8-6.6-8.4,0-13.18,18.6-13.2,16.2,0,31.2,18.6l1.2,1.8,3.6,6,5.4,13.8,3,9a21.05,21.05,0,0,0,.6-6q0-16.2-7.2-24.6Z" transform="translate(-342.57 -296.51)"/><path class="cls-1" d="M734.17,493.11q-1.2.6-5.1,2.7c-2.6,1.41-6.1,3.3-10.5,5.7a63,63,0,0,0-7.2,3.6c2,2,3.4,3,4.2,3q1.8,0,7.2-3.6l12-7.2q3.6-1.8,6.6-9a46.61,46.61,0,0,1-4.5,3.3C735.87,492.21,735,492.72,734.17,493.11Z" transform="translate(-342.57 -296.51)"/><polygon class="cls-1" points="374.2 220.6 374.2 219.4 369.4 221.2 374.2 220.6"/><path class="cls-1" d="M790,467.31c-1.2,0-3.3.81-6.3,2.4s-4.7,2.8-5.1,3.6v1.8l-4.8,3.6-12.6,11.4q-15,13.2-25.2,17.4l-10.8,4.8-7.2,4.2,6.6-1.8,10.2-4.8,5.4-1.8,46.2-31.2,3-.6,6.6,1.8-.6-7.2Q795.37,467.31,790,467.31Z" transform="translate(-342.57 -296.51)"/><path class="cls-1" d="M727.57,722.91l-.6-1.8.6-4.2a4.89,4.89,0,0,0-3.6-1.2h-.6c-3.6-.39-5.4,1.2-5.4,4.8q0,11.4,15,11.4,4.8,0,13.2-3.6l-4.2-.6Q728.17,726.51,727.57,722.91Z" transform="translate(-342.57 -296.51)"/><path class="cls-1" d="M731.77,640.11l2.4-1.8c-3.2-3.2-6-5.19-8.4-6l-1.8,6.6q10.2,3.6,13.2,16.2l-.6-9Z" transform="translate(-342.57 -296.51)"/><path class="cls-1" d="M791.77,568.71l-4.2,4.2-1.2,1.8-4.8,1.2a16.13,16.13,0,0,1-6-2.1c-1.6-1-4.4-2.7-8.4-5.1q-9-7.2-15-7.2-15,0-15.6,19.8a35.55,35.55,0,0,0,13.2,15.6l7.8,6.6,4.2,7.8q4.2,6,4.2,10.8c0,5.61-2,8.4-6,8.4q-3.6,0-3.6-4.2l1.2-15-2.4-3-1.8-4.2-2.4-3c-4-2.79-7.6-4.2-10.8-4.2q-12.6,0-12.6,12.6,0,4.82,4.2,9-.6-1.2-.6-5.4,0-9.58,10.2-9.6,9.6,0,9.6,11.4v13.8a19.29,19.29,0,0,0,5.4,9.6,6.49,6.49,0,0,0,4.8,1.8q14.4,0,14.4-15.6c0-.8-.6-2.79-1.8-6q-4.8-1.8-4.8-4.2l.6-.6,1.2-1.2c.4,0,1.5.81,3.3,2.4s3.3,2.4,4.5,2.4q1.2,0,1.2-5.4,0-14.4-13.8-22.8l-6.6-3.6c-1.2-.39-1.8-1.4-1.8-3q0-3.6,3-3.6a5.19,5.19,0,0,1,3.6,1.8l3,4.2q9,9.6,19.8,9.6h1.8l-1.2-6.6-1.2-4.2,4.8-1.2q5.4-1.8,5.4-13.2,0-2.38-3-5.4Z" transform="translate(-342.57 -296.51)"/><path class="cls-1" d="M729.37,573.51q0,4.82,5.4,5.4.6-10.2,10.2-18.6h-1.8Q729.37,560.31,729.37,573.51Z" transform="translate(-342.57 -296.51)"/><path class="cls-1" d="M755.17,508.71q-19.8,0-19.8,12,0,9,15.6,10.2,3.6,0,3.6-2.4v-1.8q-12.6,0-12.6-7.2,0-6.6,15-6.6-1.8,0,13.8,4.8l1.2-3.6Q772,508.71,755.17,508.71Z" transform="translate(-342.57 -296.51)"/><path class="cls-1" d="M759.37,310.11l-4.2,1.8.6,6,6.6,6c-2-5.19-3-9.2-3-12Z" transform="translate(-342.57 -296.51)"/><path class="cls-1" d="M760,517.11l-1.2,5.4v8.4l-.6,2.4.6.6a1.77,1.77,0,0,1,1.2.6q1.2,0,3.6-9.6l1.2-4.8C764.77,518.91,763.17,517.92,760,517.11Z" transform="translate(-342.57 -296.51)"/><path class="cls-1" d="M782.77,524.91l-1.2-.6H781q-2.4,0-2.4,3c0,.4,1.5,2.91,4.5,7.5a26.47,26.47,0,0,1,4.5,14.7q0,12.6-9.6,12.6-6.6,0-9.6-8.4-1.8-6.6-6-6.6h-1.8q6,20.4,18.6,20.4,13.2,0,13.2-18,0-9.59-6-19.2Q783.37,524.91,782.77,524.91Z" transform="translate(-342.57 -296.51)"/><path class="cls-1" d="M787,718.11l3-7.2q1.2-4.8,2.4-9.9a85.57,85.57,0,0,0,1.8-11.1l-4.8,13.8a125.81,125.81,0,0,1-23.4,36.6q-2.4,2.4-2.4,3.6v1.2l4.8,6.6q3-1.8,3-3.6v-3l1.8-1.2,1.8,4.8,2.4,1.2,1.8,2.4a3.42,3.42,0,0,0,2.4,1.2q11.4,0,11.4-10.2,0-4.18-.6-5.4-2.4,7.8-7.2,7.8-3.6,0-5.4-4.2a18.16,18.16,0,0,1-1.8-6.6,11.6,11.6,0,0,1,1.8-6Z" transform="translate(-342.57 -296.51)"/><path class="cls-1" d="M784,490.71q-10.8,0-18,15l3.6,1.8q6-11.38,15-11.4c5.2,0,7.8,3.21,7.8,9.6v1.2l-1.8,6.6-.6,3-4.2,4.2,3,5.4q7.8-7.79,7.8-21Q796.57,490.71,784,490.71Z" transform="translate(-342.57 -296.51)"/><path class="cls-1" d="M777.37,503.91l-2.4,4.2c2,2,3,3.6,3,4.8a7.53,7.53,0,0,1-5.1,7.5c-3.4,1.41-5.1,3.7-5.1,6.9q15.6-3,15.6-15.6C783.37,507.72,781.37,505.11,777.37,503.91Z" transform="translate(-342.57 -296.51)"/><path class="cls-1" d="M781.57,638.31q.6,3,.9,5.4a34.41,34.41,0,0,1,.3,4.2q0,3-3,10.8l-8.4,4.2,1.2,2.4c2.4,4.41,4.6,6.6,6.6,6.6q7.2,0,7.2-15,0-18-7.8-31.2Z" transform="translate(-342.57 -296.51)"/><path class="cls-1" d="M791.17,603.51a28.55,28.55,0,0,1-7.8-1.8q3.6,9,7.8,9c2.8,0,4.6-2.79,5.4-8.4C792.57,603.12,790.77,603.51,791.17,603.51Z" transform="translate(-342.57 -296.51)"/><path class="cls-1" d="M342.57,296.51v465.6h465.6V296.51Zm457.8,458.4H349.77V304.31h450.6Z" transform="translate(-342.57 -296.51)"/><path d="M590.77,334.71H592l-67.2-1.8-69.6,1.2-59.4-3c-4,0-6,1.41-6,4.2v1.2l1.2,1.2,21,3.6,6.6,2.4,6,3.6,5.4,2.4,10.2,10.2,1.8,3.6a28.61,28.61,0,0,1,6,12.6l1.2,5.4,1.8,6-.6,9,6,1.2q6,1.21,23.4,9l4.2,3,1.2-30.6,1.2-12q1.2-15.6,18.6-19.8,7.8-1.8,30.6-1.8,47.4,0,85.2,21.6l10.2-22.8a188,188,0,0,0-21.6-6.6A120.1,120.1,0,0,0,590.77,334.71Z" transform="translate(-342.57 -296.51)"/><path d="M398.17,341.91q26.4,11.4,43.8,28.8Q431.77,345.51,398.17,341.91Z" transform="translate(-342.57 -296.51)"/><path d="M450.37,716.31q-19.2,3.6-30.6,3.6a41.84,41.84,0,0,1-14.4-2.4c4.4,3.21,8.6,4.8,12.6,4.8q7.8,0,18-.3t23.4-.9q15-.58,25.2-.9t16.2-.3l28.8-.6-62.4-4.2Q463,714.53,450.37,716.31Z" transform="translate(-342.57 -296.51)"/><path d="M685.57,536.91q-.6-.58-1.8-1.8a35.08,35.08,0,0,0-3.6-3,49.67,49.67,0,0,0-17.4-10.8,101.32,101.32,0,0,0-14.4-4.8,42.1,42.1,0,0,0-13.2-1.8q-3-3-3-4.8v-1.8l1.2-1.2q32.4-18,44.4-37.2t12-49.8q0-43.2-33.6-64.8l-7.8-4.8-4.2,9a129.1,129.1,0,0,0-3.9,12.6,84.05,84.05,0,0,0-2.1,12l5.4,7.2,9.6,16.2q4.8,14.4,4.8,24.6,0,30.6-21,53.4l-5.4,4.8-4.2,3-4.8,3.6c-1.6.81-3.7,1.8-6.3,3a49.25,49.25,0,0,1-8.7,3l-7.8,1.2q-24.6,3.6-31.2,3.6h-83.4l-.6-40.8v-6a15.56,15.56,0,0,1-.6-4.8q0-3,.6-10.2t.6-10.8q0-8.4-7.8-13.8l-6-4.2-4.8-1.8a19.31,19.31,0,0,0-3.6-1.2,39.58,39.58,0,0,1-5.4-1.8q-3-3-6-3v18.6l-.6,28.2.6,7.2v9l-.6,177-3,21.6a24.72,24.72,0,0,1-3.6,10.8,53.23,53.23,0,0,0-4.2,7.8q-6.6,9-10.8,10.8l-22.8,9.6a2.44,2.44,0,0,0-.6,1.8q0,6,11.4,5.4h4.2l19.8-3q15.6-3,24-1.8h2.4l60,2.4-3.6-16.2a82.44,82.44,0,0,1-12-2.1,124.82,124.82,0,0,1-12.6-3.9q-10.8-7.78-12.6-22.2l-2.4-21v-126h55.8q68.4.6,95.4,18.6,9.6,6.62,10.8,7.2h1.2c2.4,0,6.8-.69,13.2-2.1a75.14,75.14,0,0,1,15-2.1q3.6,0,8.1.3t9.9.9a12.83,12.83,0,0,0-2.1-3.9Q691,541.11,685.57,536.91Z" transform="translate(-342.57 -296.51)"/><path d="M493,355.71a3.48,3.48,0,0,0-1.2,2.4l-2.4,15-1.2,3.6-1.8,31.2a3.46,3.46,0,0,0,.6,2.4l3.6,5.4,2.4-47.4,1.8-3.6.6-3.6,2.4-1.8,1.2-2.4h4.2q25.8-5.4,30.6-5.4,52.2,0,85.8,19.2v-1.8q-35.4-21-86.4-21Q508,347.91,493,355.71Z" transform="translate(-342.57 -296.51)"/><path d="M487.57,431.91v58.8l.6,5.4v9l3.6-.6v-64.8Q491.77,434.31,487.57,431.91Z" transform="translate(-342.57 -296.51)"/><path d="M619,536.91l-5.4-2.4c-1.2-.8-4.6-1.59-10.2-2.4l-19.8-3.6a35,35,0,0,1-6-1.2c-3.2-.8-5-1-5.4-.6l-3,.6-19.2-1.8h-49.8l-12,1.8-.6,4.2.6,45-.6,18,.6,13.8-.6,25.2,1.2,25.8,2.4,15.6a17.65,17.65,0,0,0,1.8,4.5q1.2,2.12,2.4,4.5l3,4.8-4.2-19.2-2.4-61.8v-62.4l-.6-13.8,12.6-1.2h50.4q27.6,0,45,4.2l6,1.2q18.6,4.2,22.8,6l4.2,1.8,6.6,2.4-13.2-7.2Z" transform="translate(-342.57 -296.51)"/><path d="M698.17,561.51H697a28.81,28.81,0,0,0-10.2-1.8h-12l-3.6.6H670l-10.2.6,3.6,4.2,2.4,2.4q14.4,21,14.4,42.6l.6,10.2a51.53,51.53,0,0,1-.3,5.7q-.3,2.7-.9,5.7l-1.8,7.2-1.2,6q-1.2,2.4-3,5.4c-1.2,2-2.4,4.2-3.6,6.6l-10.8,15q-30.6,27-67.8,27H589q-4.8,0-4.8,1.8v1.8l1.8,10.8q56.4-1.8,93-30.6,37.2-28.8,37.2-70.2,0-21.6-5.1-36.6T698.17,561.51Z" transform="translate(-342.57 -296.51)"/><path d="M708.37,563.91l3,7.8q7.8,21,7.8,34.8,0,30-14.4,50.4l-2.4,5.4-4.2,5.4-3,3.6-5.4,6-6.6,6.6q-2.4,1.8-5.4,3.9c-2,1.41-4.2,3.1-6.6,5.1l-4.8,2.4-7.8,4.8c-1.2,0-5.2,1.41-12,4.2a88.38,88.38,0,0,1-9.6,3q-4.8,1.22-5.4,1.8l-10.8,3-25.2,3.6h-8.4q.6,3.6,1.8,3.6h7.2l15-.6q44.4-3,78-35.4,34.8-33,34.8-73.2Q724,568.71,708.37,563.91Z" transform="translate(-342.57 -296.51)"/><path d="M694.57,400.11l-7.8-18q-4.8-11.39-19.8-21l10.2,12.6,6,9q3,3.6,5.4,13.2,3.6,13.81,3.6,23.4a106.15,106.15,0,0,1-18.6,60.6l-7.2,8.4c-1.2.81-2.7,1.9-4.5,3.3s-3.7,2.91-5.7,4.5l-4.8,2.4-9.6,6.6-6,2.4-1.2,3,3.6,1.8,3-3,17.4-9a48.7,48.7,0,0,0,15.6-12.9,97.85,97.85,0,0,0,12.6-19.8,103.54,103.54,0,0,0,8.1-23.7,120,120,0,0,0,2.7-25.2v-7.2c-.4-1.59-.8-3.3-1.2-5.1A64.75,64.75,0,0,0,694.57,400.11Z" transform="translate(-342.57 -296.51)"/></svg>